<svg width="131" height="54" viewBox="0 0 131 54" fill="none" xmlns="http://www.w3.org/2000/svg">
<path d="M51.7652 11.4323C47.6958 8.13778 41.5847 8.13778 37.5153 8.13778H36.5938L39.1735 5.37961H55.2408V3.84295C55.2408 2.96354 55.2408 1.86287 54.1554 0.984384C53.0701 0.105896 51.7105 0.105896 50.6252 0.105896H35.8153C35.8153 0.105896 29.5125 6.92184 27.6753 8.88891C25.5047 11.2055 25.593 13.4161 29.9296 13.4161H39.0236C40.6086 13.4161 41.544 13.7155 42.0565 14.395C42.8408 15.4399 42.8002 16.4904 42.8002 17.3689V22.5208C42.8002 23.3993 42.8002 24.7203 41.7148 25.5997C40.6284 26.4782 39.0039 26.4782 37.9174 26.4782H26.3646L21.5166 31.7463L32.428 31.7519H37.5153C41.5847 31.7519 47.6958 31.7519 51.7652 28.4518C53.1968 27.3037 54.2879 25.913 54.9607 24.3838C55.8287 22.4037 55.8287 17.579 55.0304 15.6658C54.3634 14.0725 53.2456 12.6241 51.7652 11.4323Z" fill="#D30D19"/>
<path d="M88.9184 26.4726H73.309L84.6852 14.1738C85.7775 12.9969 86.7187 11.9734 86.7187 10.658C86.7187 9.34257 85.8391 8.39157 84.6852 7.14216L83.0584 5.38519C81.4269 3.62728 79.8024 1.86938 77.6317 0.989961C75.4576 0.105896 72.8837 0.105896 69.3535 0.105896H62.4848C61.3995 0.105896 60.0399 0.105896 58.9546 0.984384C57.8693 1.8638 57.8693 2.96447 57.8693 3.84295V5.37961H69.7567C71.1163 5.37961 72.8779 5.37961 73.553 6.58997C74.2293 7.80033 73.28 8.89542 72.4677 9.77391L52.1475 31.7463H84.0217L88.9184 26.4726Z" fill="#D30D19"/>
<path d="M6.51429 23.0572L20.5527 7.91096L20.5596 0.105896H4.61671C3.52906 0.105896 2.17065 0.105896 1.08417 0.984384C0 1.86938 0 2.96447 0 3.84295V5.37961H6.51429V23.0572Z" fill="#D30D19"/>
<path d="M6.51465 31.7018V31.7464H20.5263L20.546 16.5676L6.51465 31.7018Z" fill="#D30D19"/>
<path d="M107.258 26.4726H106.644C105.558 26.4726 103.927 26.4726 102.847 25.5941C101.762 24.7147 101.762 23.3937 101.762 22.5152V9.33699C101.762 8.4585 101.762 7.14309 102.847 6.26368C103.933 5.38519 105.558 5.38519 106.644 5.38519H112.222C113.308 5.38519 114.94 5.38519 116.019 6.26368C117.104 7.14216 117.104 8.45757 117.104 9.33699V15.8434L127.416 4.71586C127.012 4.24641 126.557 3.80577 126.056 3.40046C122.001 0.105896 115.889 0.111474 111.819 0.105896H107.054C102.984 0.105896 96.8722 0.105896 92.8028 3.40046C88.7334 6.69502 88.7334 11.5318 88.7334 13.2897V18.5625C88.7334 20.3204 88.7334 25.1572 92.8028 28.4518C95.5277 30.6568 99.1532 31.3866 102.479 31.6301L107.258 26.4726Z" fill="#D30D19"/>
<path d="M110.379 31.7464H111.82C115.889 31.7464 122 31.7464 126.07 28.4463C130.139 25.1517 130.139 20.3214 130.139 18.557V13.2842C130.139 12.6865 130.139 11.7253 129.975 10.5976L110.379 31.7464Z" fill="#D30D19"/>
<path d="M19.0713 43.758C18.1835 41.0156 18.1835 41.0156 14.2303 41.0156C9.48464 41.0156 9.48464 41.0156 9.48464 45.7037V46.3888C9.48464 51.0768 9.48464 51.0768 15.7131 51.0768H16.7496L20.3077 50.3908H21.1955V52.3699C17.4398 53.0941 15.7107 53.0941 14.2303 53.0941C6.52148 53.0941 6.52148 49.8163 6.52148 46.6212V45.4778C6.52148 42.503 6.52148 39.0039 13.7864 39.0039H14.6742C21.6394 39.0039 21.6394 41.9396 21.6394 43.2708L19.0713 43.758Z" fill="#636466"/>
<path d="M31.799 50.2755C31.799 49.6833 31.8478 49.0921 32.8379 47.97L40.4723 39.3023H43.6795V52.7845H41.0103V41.8178H40.2457C40.2457 42.4649 40.1435 43.1333 38.9141 44.5212L31.5747 52.7901H28.3652V39.3023H31.0344V50.2746L31.799 50.2755Z" fill="#636466"/>
<path d="M51.7314 39.3023H63.5922V41.1318H54.4006V52.7901H51.7314V39.3023Z" fill="#636466"/>
<path d="M81.851 39.3023H84.5202V52.7845H81.851V46.7699H72.3666V52.7901H69.6963V39.3023H72.3666V44.9404H81.851V39.3023Z" fill="#636466"/>
<path d="M102.103 39.3023L108.727 52.0604V52.7845H106.159L104.376 49.357H94.6942L92.9187 52.7845H90.3506V52.0659L96.9741 39.3079H102.102L102.103 39.3023ZM95.582 47.6438H103.488C101.413 43.6418 100.819 42.503 100.819 41.1318H98.2512C98.2512 42.503 97.6585 43.6473 95.582 47.6438Z" fill="#636466"/>
<path d="M112.953 52.8236V51.1261C115.596 51.1261 116.019 50.8388 116.387 48.7658C117.077 44.9739 117.104 42.9009 117.179 39.3023H129.484V52.7845H126.814V41.1318H119.672C119.596 42.9009 119.624 44.9795 118.927 49.1693C118.388 52.409 117.889 52.8236 112.953 52.8236Z" fill="#636466"/>
</svg>
