<svg width="209" height="44" viewBox="0 0 209 44" fill="none" xmlns="http://www.w3.org/2000/svg">
<path d="M64.7877 13.5909C57.3158 13.6069 49.844 13.575 42.388 13.6229C40.5319 13.6388 38.66 13.7984 36.8356 14.0857C32.6952 14.7719 28.9037 16.3677 25.3978 18.6817C22.5106 20.5808 20.0359 22.9427 17.8942 25.6556C15.1815 29.0708 13.3255 32.9168 12.4371 37.1937C12.0405 39.0928 11.9453 41.0557 11.7074 42.9867C11.6756 43.2899 11.7867 43.4176 12.1039 43.4176C14.6422 43.4176 17.1804 43.4176 19.7186 43.4335C20.0517 43.4335 20.131 43.258 20.1786 42.9548C20.48 41.2472 20.7656 39.5556 21.1463 37.864C21.6222 35.7415 22.5423 33.7945 23.7321 32.0072C26.0007 28.608 29.0306 26.0865 32.7269 24.347C35.4079 23.0863 38.2317 22.3043 41.1982 22.2724C47.3216 22.1926 53.4451 22.1926 59.5526 22.1607C61.5197 22.1448 63.471 22.1607 65.5016 22.1607C65.5174 21.9692 65.5333 21.8575 65.5333 21.7298C65.5333 19.2562 65.5174 16.7827 65.5333 14.325C65.5333 13.7665 65.3588 13.5909 64.7877 13.5909Z" fill="#007ABB"/>
<path d="M65.3904 25.8471C65.3904 25.4481 65.2635 25.3364 64.8669 25.3524C63.2964 25.3684 61.7417 25.3364 60.1712 25.3205C53.7781 25.3045 47.3691 25.2726 40.976 25.3045C39.7069 25.3045 38.406 25.4481 37.1528 25.7194C33.4089 26.5652 30.2679 28.4643 27.7614 31.4007C25.8419 33.6509 24.5411 36.2202 23.7161 39.0289C23.3037 40.4492 23.0181 41.8855 23.0657 43.4814C23.4623 43.4814 23.7796 43.4814 24.0969 43.4814C26.3019 43.4814 28.4912 43.4814 30.6962 43.4814C31.537 43.4814 31.5529 43.4814 31.6639 42.6356C32.4412 36.9862 37.0735 33.8264 41.8009 33.8105C43.4507 33.8105 45.0847 33.8264 46.7345 33.8264C50.0342 33.8424 53.3498 33.8424 56.6494 33.8743C59.3463 33.8902 62.0431 33.9222 64.7241 33.9541C65.089 33.9541 65.3587 33.9381 65.3587 33.4274C65.3745 30.906 65.3745 28.3845 65.3904 25.8471Z" fill="#007ABB"/>
<path d="M0.602586 22.2564C5.79005 22.2405 10.9775 22.2405 16.165 22.2564C16.5933 22.2564 16.8947 22.1128 17.1961 21.8096C19.4012 19.4796 21.7332 17.3092 24.5252 15.6974C25.715 15.0112 26.9682 14.4048 28.2374 13.7345C28.158 13.7186 28.1263 13.7026 28.0787 13.7026C18.9094 13.7026 9.74014 13.7026 0.570859 13.7026C0.0949441 13.7026 0.015625 13.8782 0.015625 14.309C0.0314888 16.7826 0.0314888 19.2402 0.015625 21.7138C0.015625 22.1447 0.174263 22.2564 0.602586 22.2564Z" fill="#007ABB"/>
<path d="M105.827 33.5711C104.733 33.3795 104.336 32.9487 104.209 31.8475C104.193 31.656 104.146 31.4486 104.146 31.2571C104.146 26.262 104.13 21.267 104.161 16.256C104.177 14.5324 104.606 14.1335 106.319 14.0218C106.525 14.0058 106.747 13.9579 106.953 13.926C106.953 13.8622 106.938 13.8143 106.938 13.7505C103.781 13.7505 100.624 13.7505 97.4352 13.7505C97.4511 13.8462 97.4511 13.8781 97.4669 13.8941C97.7207 13.9739 97.9904 14.0377 98.2442 14.1016C98.9581 14.2931 99.3864 14.7718 99.4023 15.5059C99.4499 17.9795 99.4816 20.4371 99.4975 22.9107C99.4975 23.1341 99.3547 23.4533 99.1802 23.5491C97.8159 24.2353 96.3723 24.6342 94.8335 24.4427C93.7231 24.2991 93.025 23.6448 92.9933 22.5915C92.9299 20.3254 92.9616 18.0593 92.9616 15.7772C92.9616 15.6974 92.9933 15.6176 92.9933 15.5378C93.1361 14.7239 93.5803 14.2133 94.4211 14.0856C94.6273 14.0537 94.8335 13.9739 95.1508 13.8781C94.4687 13.5749 85.8705 13.6388 85.458 13.942C85.7436 13.9739 85.9498 14.0058 86.1402 14.0218C87.6472 14.2292 88.139 14.7559 88.2342 16.256C88.25 16.5751 88.25 16.8943 88.25 17.2135C88.25 18.8253 88.2342 20.4371 88.25 22.0489C88.2659 23.0384 88.4087 24.0278 88.9956 24.8417C89.7888 25.9269 90.9786 26.2141 92.2477 26.3099C94.5956 26.4695 96.7372 25.7833 98.8153 24.7619C99.434 24.4587 99.5134 24.4906 99.5292 25.1928C99.5292 26.0226 99.5451 26.8684 99.5292 27.6983C99.4975 29.1026 99.4975 30.523 99.4182 31.9273C99.3706 32.9167 98.974 33.2838 98.0222 33.4913C97.7049 33.5551 97.3876 33.6189 97.0862 33.6987C97.0862 33.7626 97.102 33.8104 97.102 33.8743C100.386 33.8743 103.67 33.8743 106.953 33.8743C106.953 33.8264 106.969 33.7785 106.969 33.7147C106.589 33.6668 106.208 33.6349 105.827 33.5711Z" fill="#007ABB"/>
<path d="M14.2616 25.3205C9.66107 25.3045 5.07642 25.3045 0.475915 25.2726C0.0475914 25.2726 0 25.496 0 25.8311C0.0158638 28.3207 0.0158638 30.8102 0 33.2998C0 33.7626 0.174502 33.8743 0.586961 33.8743C3.64868 33.8583 6.72626 33.8583 9.78798 33.8743C10.137 33.8743 10.2798 33.7306 10.3908 33.4434C10.5494 32.9965 10.7081 32.5337 10.8667 32.1029C11.7868 29.741 12.9607 27.5227 14.4361 25.4003C14.3409 25.3364 14.3092 25.3205 14.2616 25.3205Z" fill="#007ABB"/>
<path d="M16.6728 10.3513C17.0059 10.7662 17.3549 10.9418 17.8784 10.9258C20.5277 10.8939 23.177 10.8939 25.8421 10.8939C26.0483 10.8939 26.2545 10.8939 26.5877 10.8939C26.4132 10.6386 26.3021 10.479 26.2069 10.3194C25.6517 9.47359 25.0489 8.64375 24.5571 7.76602C23.288 5.53182 22.3838 3.13803 21.7809 0.63253C21.7175 0.361234 21.7175 0.105896 21.2892 0.105896C18.4654 0.137813 15.6258 0.153772 12.802 0.185689C12.6117 0.185689 12.4213 0.217606 12.1357 0.233565C12.3102 0.983619 12.453 1.66984 12.6275 2.32414C13.4048 5.3084 14.785 7.95753 16.6728 10.3513Z" fill="#007ABB"/>
<path d="M0.238157 0.951702C0.952029 4.44664 2.44323 7.57452 4.56898 10.3992C4.85453 10.7822 5.15594 10.9099 5.61599 10.9099C8.10661 10.8939 10.6131 10.8939 13.1037 10.8939C13.421 10.8939 13.7383 10.8939 14.2142 10.8939C13.9445 10.5269 13.77 10.2875 13.6114 10.0481C13.4369 9.80873 13.2465 9.56935 13.072 9.32997C11.2476 6.71276 9.99441 3.82425 9.42331 0.664447C9.35985 0.297399 9.23294 0.153772 8.85221 0.153772C6.07604 0.153772 3.29987 0.121855 0.53957 0.105896C0.396795 0.105896 0.238157 0.137813 0.111246 0.153772C0.0953827 0.249523 0.0636551 0.281441 0.0795189 0.313358C0.12711 0.536778 0.190566 0.74424 0.238157 0.951702Z" fill="#007ABB"/>
<path d="M80.588 23.2778C78.8588 23.0703 77.1138 23.0863 75.3846 23.0384C74.8294 23.0224 74.6073 22.8629 74.6232 22.2883C74.6549 19.9744 74.639 17.6604 74.6232 15.3623C74.6232 14.8995 74.8135 14.7718 75.226 14.7718C76.8124 14.8038 78.3988 14.8038 79.9693 14.8676C81.3494 14.9314 82.444 15.5379 83.142 16.7507C83.4593 17.2933 83.6338 17.9157 83.8718 18.5062C83.9511 18.6817 84.0463 18.8572 84.1891 19.1605C84.3001 18.9211 84.3794 18.8094 84.3794 18.7136C84.3953 17.1656 84.3953 15.6017 84.3636 14.0537C84.3636 13.926 84.1097 13.7186 83.967 13.7186C83.3959 13.6707 82.8248 13.7026 82.2378 13.7026C77.3676 13.7026 72.4974 13.7026 67.6272 13.7026C67.4369 13.7026 67.2306 13.7665 67.0403 13.7984C67.0561 13.8622 67.0561 13.9101 67.072 13.9739C67.2465 13.9899 67.4051 14.0218 67.5796 14.0218C69.4357 14.1814 69.9434 14.724 69.9592 16.5752C69.9592 16.7667 69.9592 16.9741 69.9592 17.1656C69.9592 21.634 69.9592 26.0865 69.9592 30.5549C69.9592 30.89 69.9592 31.2252 69.9434 31.5763C69.864 32.8051 69.4992 33.2359 68.3094 33.4913C67.8969 33.587 67.4686 33.619 67.0403 33.6987C67.0403 33.7626 67.0403 33.8264 67.0244 33.8902C67.1831 33.9062 67.3576 33.9541 67.5162 33.9381C68.3728 33.9222 69.2136 33.9062 70.0703 33.8902C73.3224 33.8743 76.5586 33.9222 79.8107 33.8105C81.7302 33.7466 83.3959 33.0285 84.6491 31.4167C85.8706 29.8527 85.9024 27.06 84.6967 25.512C83.6497 24.1395 82.2061 23.4693 80.588 23.2778ZM79.0016 32.3263C78.1291 33.0923 77.1297 33.3157 76.0192 33.0923C75.1784 32.9327 74.6708 32.1667 74.639 30.9698C74.6073 29.9166 74.639 28.8633 74.639 27.81C74.639 27.81 74.639 27.81 74.6232 27.81C74.6232 26.7568 74.639 25.7035 74.6232 24.6502C74.6073 24.2034 74.7818 24.0278 75.2101 24.0598C76.6696 24.1874 78.1291 24.2193 79.192 25.496C80.7466 27.3791 80.6832 30.8262 79.0016 32.3263Z" fill="#007ABB"/>
<path d="M120.517 14.9155H117.535V16.655H118.55C119.359 16.655 120.01 16.8943 120.501 17.3571C120.993 17.8199 121.231 18.4423 121.231 19.2083C121.231 19.9903 120.993 20.6127 120.501 21.0915C120.01 21.5702 119.375 21.8096 118.55 21.8096H115.933V13.6388H120.501V14.9155H120.517ZM117.535 17.9157V20.5329H118.55C118.899 20.5329 119.153 20.4052 119.343 20.1499C119.534 19.8946 119.629 19.5754 119.629 19.1924C119.629 18.8253 119.534 18.5221 119.343 18.2827C119.153 18.0434 118.883 17.9317 118.55 17.9317H117.535V17.9157Z" fill="#007ABB"/>
<path d="M126.404 18.2189H123.675V20.5329H126.88V21.8096H122.089V13.6388H126.88V14.9155H123.691V16.9582H126.42V18.2189H126.404Z" fill="#007ABB"/>
<path d="M133.4 13.6388V21.8096H131.829V14.9155H130.132L130.148 17.3093C130.148 18.9211 129.957 20.0701 129.561 20.7723C129.164 21.4745 128.545 21.8256 127.736 21.8256H127.355V20.5489H127.546C127.974 20.501 128.244 20.2776 128.387 19.8307C128.529 19.3839 128.577 18.554 128.577 17.3252L128.561 13.6548H133.4V13.6388Z" fill="#007ABB"/>
<path d="M140.093 18.8732C140.093 19.8307 139.839 20.5807 139.316 21.1233C138.792 21.6659 138.11 21.9372 137.254 21.9372C136.397 21.9372 135.715 21.6659 135.191 21.1233C134.668 20.5807 134.414 19.8307 134.414 18.8732V16.5911C134.414 15.6336 134.668 14.8835 135.191 14.3409C135.715 13.7983 136.381 13.527 137.238 13.527C138.094 13.527 138.777 13.7983 139.3 14.3409C139.824 14.8835 140.077 15.6336 140.077 16.5911V18.8732H140.093ZM138.523 16.5751C138.523 15.9847 138.412 15.5538 138.206 15.2506C137.983 14.9474 137.682 14.8037 137.27 14.8037C136.857 14.8037 136.54 14.9474 136.334 15.2506C136.127 15.5538 136.016 15.9847 136.016 16.5751V18.8891C136.016 19.4796 136.127 19.9264 136.334 20.2297C136.54 20.5329 136.857 20.6765 137.27 20.6765C137.682 20.6765 137.983 20.5329 138.206 20.2297C138.428 19.9264 138.523 19.4956 138.523 18.8891V16.5751Z" fill="#007ABB"/>
<path d="M142.727 18.8732V21.8096H141.141V13.6388H143.964C144.773 13.6388 145.408 13.8782 145.884 14.3569C146.36 14.8357 146.582 15.474 146.582 16.256C146.582 17.038 146.344 17.6763 145.884 18.1551C145.408 18.6338 144.773 18.8732 143.964 18.8732H142.727ZM142.727 17.5965H143.964C144.298 17.5965 144.567 17.4689 144.742 17.2135C144.916 16.9582 145.011 16.639 145.011 16.256C145.011 15.873 144.916 15.5379 144.742 15.2825C144.567 15.0272 144.313 14.8995 143.964 14.8995H142.727V17.5965Z" fill="#007ABB"/>
<path d="M150.152 17.3412L150.167 17.421H150.199L151.357 13.6388H153.007L150.739 20.2137C150.516 20.7563 150.263 21.1713 149.993 21.4745C149.723 21.7777 149.327 21.9213 148.803 21.9213C148.724 21.9213 148.645 21.9213 148.533 21.9053C148.422 21.8894 148.359 21.8894 148.296 21.8894L148.264 20.6127C148.296 20.6127 148.343 20.6287 148.422 20.6287C148.502 20.6287 148.565 20.6287 148.629 20.6287C148.867 20.6287 149.057 20.5648 149.168 20.4372C149.279 20.3095 149.374 20.102 149.454 19.8307L149.533 19.5594L147.153 13.6388H148.851L150.152 17.3412Z" fill="#007ABB"/>
<path d="M158.749 19.1764L158.765 19.2083C158.765 20.102 158.559 20.7882 158.131 21.235C157.702 21.6819 157.068 21.9213 156.227 21.9213C155.386 21.9213 154.72 21.6659 154.212 21.1393C153.705 20.6127 153.467 19.8945 153.467 18.937V16.5113C153.467 15.5697 153.705 14.8356 154.197 14.309C154.688 13.7824 155.339 13.527 156.148 13.527C157.004 13.527 157.655 13.7664 158.099 14.2292C158.543 14.692 158.765 15.3782 158.781 16.2879L158.765 16.3198H157.242C157.258 15.7772 157.195 15.3942 157.02 15.1548C156.846 14.9154 156.56 14.8037 156.148 14.8037C155.799 14.8037 155.513 14.9474 155.323 15.2186C155.132 15.5059 155.037 15.9208 155.037 16.4953V18.953C155.037 19.5275 155.132 19.9584 155.339 20.2456C155.545 20.5329 155.83 20.6605 156.227 20.6605C156.608 20.6605 156.878 20.5488 157.02 20.3254C157.163 20.102 157.242 19.719 157.211 19.1764H158.749Z" fill="#007ABB"/>
<path d="M164.81 19.1764L164.826 19.2083C164.826 20.102 164.62 20.7882 164.191 21.235C163.763 21.6819 163.128 21.9213 162.288 21.9213C161.447 21.9213 160.781 21.6659 160.273 21.1393C159.765 20.6127 159.527 19.8945 159.527 18.937V16.5113C159.527 15.5697 159.765 14.8356 160.257 14.309C160.749 13.7824 161.399 13.527 162.208 13.527C163.065 13.527 163.715 13.7664 164.16 14.2292C164.604 14.692 164.826 15.3782 164.842 16.2879L164.826 16.3198H163.303C163.319 15.7772 163.255 15.3942 163.081 15.1548C162.906 14.9154 162.621 14.8037 162.208 14.8037C161.859 14.8037 161.574 14.9474 161.383 15.2186C161.193 15.5059 161.098 15.9208 161.098 16.4953V18.953C161.098 19.5275 161.193 19.9584 161.399 20.2456C161.606 20.5329 161.891 20.6605 162.288 20.6605C162.668 20.6605 162.938 20.5488 163.081 20.3254C163.224 20.102 163.303 19.719 163.271 19.1764H164.81Z" fill="#007ABB"/>
<path d="M168.077 18.4104H167.379V21.8096H165.793V13.6388H167.379V16.9582H167.887L169.473 13.6388H171.425L169.204 17.3731L171.599 21.8096H169.664L168.077 18.4104Z" fill="#007ABB"/>
<path d="M175.787 20.0701H173.646L173.217 21.8096H171.615L173.9 13.6388H175.549L177.834 21.8096H176.232L175.787 20.0701ZM173.963 18.7934H175.454L174.725 15.9049H174.693L173.963 18.7934Z" fill="#007ABB"/>
<path d="M179.357 21.8096H177.644L179.103 18.2508C178.77 18.0274 178.516 17.7402 178.342 17.3891C178.167 17.038 178.088 16.6231 178.088 16.1603C178.088 15.3464 178.31 14.7399 178.77 14.2931C179.23 13.8463 179.849 13.6388 180.658 13.6388H183.117V21.8096H181.53V18.8094H180.578L179.357 21.8096ZM181.53 14.9155H180.658C180.325 14.9155 180.071 15.0272 179.912 15.2506C179.753 15.474 179.658 15.8092 179.658 16.24C179.658 16.655 179.738 17.0061 179.912 17.2454C180.087 17.4848 180.34 17.6284 180.674 17.6284H181.514V14.9155H181.53Z" fill="#007ABB"/>
<path d="M121.946 30.7145H121.168V34.0977H119.582V30.7145H118.773L117.409 34.0977H115.441L117.551 29.6133L115.537 25.9269H117.504L118.9 29.2623H119.582V25.9269H121.168V29.2623H121.835L123.183 25.9269H125.15L123.183 29.5974L125.245 34.0977H123.278L121.946 30.7145Z" fill="#007ABB"/>
<path d="M130.227 30.507H127.498V32.821H130.719V34.0977H125.928V25.9269H130.719V27.2036H127.53V29.2463H130.259V30.507H130.227Z" fill="#007ABB"/>
<path d="M137.222 25.9269V34.0977H135.651V27.2036H133.954L133.97 29.5974C133.97 31.2092 133.779 32.3582 133.383 33.0604C132.986 33.7626 132.368 34.1137 131.558 34.1137H131.178V32.837H131.368C131.796 32.7891 132.066 32.5657 132.209 32.1188C132.352 31.672 132.399 30.8422 132.399 29.5974L132.383 25.9269H137.222Z" fill="#007ABB"/>
<path d="M142.775 30.507H140.046V32.821H143.251V34.0977H138.46V25.9269H143.251V27.2036H140.062V29.2463H142.775V30.507Z" fill="#007ABB"/>
<path d="M148.978 28.1451C148.978 28.5281 148.883 28.8633 148.692 29.1824C148.502 29.5016 148.232 29.741 147.899 29.9165C148.28 30.0761 148.565 30.3155 148.772 30.6347C148.978 30.9539 149.073 31.3528 149.073 31.8316C149.073 32.5816 148.819 33.1721 148.327 33.587C147.836 34.0019 147.185 34.2254 146.392 34.2254C145.694 34.2254 145.075 34.0179 144.568 33.6189C144.06 33.22 143.806 32.6295 143.822 31.8635L143.838 31.8316H145.377C145.377 32.1507 145.472 32.422 145.662 32.6295C145.853 32.837 146.091 32.9487 146.392 32.9487C146.725 32.9487 146.995 32.837 147.185 32.6295C147.375 32.422 147.471 32.1348 147.471 31.7997C147.471 31.3688 147.391 31.0496 147.217 30.8581C147.042 30.6666 146.804 30.5549 146.471 30.5549H145.63V29.3101H146.471C146.773 29.3101 146.995 29.2144 147.153 29.0069C147.296 28.7994 147.375 28.5281 147.375 28.1611C147.375 27.8579 147.296 27.5866 147.122 27.3951C146.947 27.2036 146.709 27.0919 146.392 27.0919C146.122 27.0919 145.9 27.1876 145.742 27.3791C145.567 27.5706 145.488 27.826 145.488 28.1451H143.949L143.933 28.1132C143.917 27.427 144.139 26.8844 144.631 26.4535C145.107 26.0386 145.71 25.8152 146.408 25.8152C147.201 25.8152 147.82 26.0226 148.28 26.4216C148.74 26.8206 148.978 27.3951 148.978 28.1451Z" fill="#007ABB"/>
<path d="M155.862 34.0977H154.276V30.7145H151.753V34.0977H150.167V25.9269H151.753V29.4378H154.276V25.9269H155.862V34.0977Z" fill="#007ABB"/>
<path d="M160.843 32.3582H158.701L158.273 34.0977H156.671L158.955 25.9269H160.605L162.89 34.0977H161.287L160.843 32.3582ZM159.019 31.0815H160.51L159.78 28.193H159.748L159.019 31.0815Z" fill="#007ABB"/>
<path d="M164.413 34.0977H162.7L164.16 30.5389C163.827 30.3155 163.573 30.0283 163.398 29.6772C163.224 29.3261 163.144 28.9112 163.144 28.4484C163.144 27.6345 163.366 27.0281 163.827 26.5812C164.287 26.1344 164.905 25.9269 165.714 25.9269H168.173V34.0977H166.587V31.0975H165.635L164.413 34.0977ZM166.603 27.2036H165.73C165.397 27.2036 165.143 27.3153 164.985 27.5387C164.826 27.7622 164.731 28.0973 164.731 28.5282C164.731 28.9431 164.81 29.2942 164.985 29.5336C165.159 29.7729 165.413 29.9166 165.746 29.9166H166.587V27.2036H166.603Z" fill="#007ABB"/>
<path d="M178.326 36.0925H176.882V34.0818H172.948V36.0925H171.472L171.361 32.821H171.885C172.123 32.5976 172.329 32.2146 172.488 31.672C172.646 31.1294 172.757 30.2996 172.789 29.2144L172.995 25.9269H177.628V32.821H178.452L178.326 36.0925ZM174.391 29.2144C174.36 30.0602 174.28 30.7783 174.137 31.3528C173.995 31.9433 173.82 32.4221 173.598 32.821H176.073V27.2036H174.518L174.391 29.2144Z" fill="#007ABB"/>
<path d="M184.56 31.1613C184.56 32.1188 184.306 32.8689 183.783 33.4115C183.259 33.9541 182.577 34.2254 181.72 34.2254C180.864 34.2254 180.182 33.9541 179.658 33.4115C179.135 32.8689 178.881 32.1188 178.881 31.1613V28.8792C178.881 27.9217 179.135 27.1717 179.658 26.6291C180.182 26.0865 180.848 25.8152 181.705 25.8152C182.561 25.8152 183.243 26.0865 183.767 26.6291C184.29 27.1717 184.544 27.9217 184.544 28.8792V31.1613H184.56ZM182.974 28.8633C182.974 28.2728 182.863 27.8419 182.656 27.5387C182.434 27.2355 182.133 27.0919 181.72 27.0919C181.308 27.0919 180.991 27.2355 180.785 27.5387C180.578 27.8419 180.467 28.2728 180.467 28.8633V31.1773C180.467 31.7677 180.578 32.2146 180.785 32.5178C180.991 32.821 181.308 32.9646 181.72 32.9646C182.133 32.9646 182.434 32.821 182.656 32.5178C182.879 32.2146 182.974 31.7837 182.974 31.1773V28.8633Z" fill="#007ABB"/>
<path d="M187.177 31.1613V34.0977H185.591V25.9269H188.415C189.224 25.9269 189.858 26.1663 190.334 26.645C190.81 27.1238 191.032 27.7621 191.032 28.5441C191.032 29.3261 190.794 29.9644 190.334 30.4432C189.858 30.922 189.224 31.1613 188.415 31.1613H187.177ZM187.177 29.8846H188.415C188.748 29.8846 189.017 29.757 189.192 29.5016C189.366 29.2463 189.462 28.9271 189.462 28.5441C189.462 28.1611 189.366 27.826 189.192 27.5706C189.017 27.3153 188.764 27.1876 188.415 27.1876H187.177V29.8846Z" fill="#007ABB"/>
<path d="M197.521 31.1613C197.521 32.1188 197.267 32.8689 196.744 33.4115C196.22 33.9541 195.538 34.2254 194.681 34.2254C193.825 34.2254 193.143 33.9541 192.619 33.4115C192.096 32.8689 191.842 32.1188 191.842 31.1613V28.8792C191.842 27.9217 192.096 27.1717 192.619 26.6291C193.143 26.0865 193.809 25.8152 194.666 25.8152C195.522 25.8152 196.204 26.0865 196.728 26.6291C197.251 27.1717 197.505 27.9217 197.505 28.8792V31.1613H197.521ZM195.935 28.8633C195.935 28.2728 195.824 27.8419 195.617 27.5387C195.395 27.2355 195.094 27.0919 194.681 27.0919C194.269 27.0919 193.952 27.2355 193.745 27.5387C193.539 27.8419 193.428 28.2728 193.428 28.8633V31.1773C193.428 31.7677 193.539 32.2146 193.745 32.5178C193.952 32.821 194.269 32.9646 194.681 32.9646C195.094 32.9646 195.395 32.821 195.617 32.5178C195.839 32.2146 195.935 31.7837 195.935 31.1773V28.8633Z" fill="#007ABB"/>
<path d="M203.121 27.2036H200.138V34.0977H198.552V25.9269H203.121V27.2036Z" fill="#007ABB"/>
<path d="M206.595 32.3582H204.453L204.025 34.0977H202.423L204.707 25.9269H206.357L208.641 34.0977H207.039L206.595 32.3582ZM204.787 31.0815H206.278L205.548 28.193H205.516L204.787 31.0815Z" fill="#007ABB"/>
</svg>
