<svg width="622" height="375" viewBox="0 0 622 375" fill="none" xmlns="http://www.w3.org/2000/svg">
<g opacity="0.5">
<path d="M76.1493 0H152.299V76.1498H76.1493V0Z" fill="#15456B"/>
<path d="M76.1493 74.8169H152.299V150.966H76.1493V74.8169Z" fill="#08657D"/>
<path d="M150.145 0H226.295V76.1498H150.145V0Z" fill="#08657D"/>
<path d="M150.141 74.8151H226.291V150.965H150.141V74.8151Z" fill="#047782" stroke="#08657D" stroke-width="0.288" stroke-miterlimit="22.9256"/>
<path d="M226.257 76.8724H302.406V153.022H226.257V76.8724Z" fill="#0B8984"/>
<path d="M150.893 227.085H227.043V303.235H150.893V227.085Z" fill="#059B84"/>
<path d="M377.494 149.217H453.644V225.366H377.494V149.217Z" fill="#059B84"/>
<path d="M544.861 298.436H621.011V374.585H544.861V298.436Z" fill="#059B84"/>
<path d="M76.5925 149.217H152.742V225.366H76.5925V149.217Z" fill="#047782"/>
<path d="M0.000564575 149.217H76.1504V225.366H0.000564575V149.217Z" fill="#08657D"/>
<path d="M1.92663 298.438H78.0762V374.587H1.92663V298.438Z" fill="#08657D"/>
<path d="M226.257 298.438H302.406V374.587H226.257V298.438Z" fill="#059B84"/>
</g>
</svg>
