<svg width="226" height="60" viewBox="0 0 226 60" fill="none" xmlns="http://www.w3.org/2000/svg">
<rect y="0.105896" width="111.275" height="58.9493" fill="#E21A1A"/>
<g clip-path="url(#clip0_189_512)">
<path fill-rule="evenodd" clip-rule="evenodd" d="M25.415 35.2214V25.6946H23.5351H21.6553L21.6986 24.5062C21.7371 23.452 21.776 23.2658 22.0435 22.8558C22.2243 22.5787 22.5434 22.2963 22.8407 22.1502C23.3343 21.9079 23.3807 21.9068 33.0603 21.9088C43.5692 21.9109 43.6673 21.9161 44.8543 22.5262C45.1675 22.6872 45.7357 23.1118 46.1169 23.4698C46.8329 24.1423 49.3409 27.4313 49.7729 28.2645C50.1085 28.9116 50.1112 30.0483 49.7788 30.6875C49.5322 31.1617 47.9867 33.3203 46.1398 35.7702L45.0826 37.1727H40.4539C37.9081 37.1727 35.8251 37.1334 35.8251 37.0854C35.8251 37.0374 37.0553 35.32 38.5588 33.2689C42.782 27.5077 42.4259 28.0499 42.4795 27.2989C42.5219 26.7039 42.496 26.6105 42.1934 26.2669C41.8738 25.9041 41.8161 25.8855 40.7382 25.7974C40.1209 25.747 38.1264 25.7032 36.306 25.7001L32.9963 25.6946L32.9951 34.7909C32.9944 39.794 32.9623 44.081 32.9237 44.3178L32.8535 44.7482H29.1343H25.415L25.415 35.2214Z" fill="white"/>
<path fill-rule="evenodd" clip-rule="evenodd" d="M47.2207 36.8269C47.3394 36.6367 49.8522 33.2037 52.8046 29.198L58.1727 21.9149L62.8403 21.9108C65.4075 21.9086 67.5079 21.9372 67.5079 21.9745C67.5079 22.0512 63.3796 27.6974 59.1796 33.3649L56.3623 37.1666L51.6836 37.1696L47.0049 37.1727L47.2207 36.8269Z" fill="white"/>
<path fill-rule="evenodd" clip-rule="evenodd" d="M72.3168 37.0519C70.3172 36.9146 69.4949 36.5339 68.16 35.1276C67.3363 34.2597 65.286 31.5117 64.896 30.7526C64.5064 29.9943 64.4786 29.1793 64.817 28.4313C64.9696 28.094 66.0757 26.488 67.2749 24.8624L69.4553 21.9068H74.1392C76.7154 21.9068 78.8232 21.9232 78.8232 21.9432C78.8232 21.9632 77.3462 23.9905 75.5411 26.4483C73.5678 29.135 72.214 31.0826 72.1462 31.332C71.9173 32.1747 72.3295 32.9217 73.1512 33.1532C73.7076 33.31 79.2247 33.3034 79.9524 33.1451C80.5891 33.0066 81.1067 32.6261 81.4015 32.0799C81.5777 31.7535 81.5954 31.1692 81.5954 25.6946V19.6686L81.3275 19.1943C81.1728 18.9203 80.8621 18.6052 80.592 18.4482L80.1244 18.1764L74.8062 18.119L69.488 18.0616L69.4971 17.0852C69.5087 15.8489 69.5783 15.5789 70.0156 15.0736C70.7367 14.2405 70.4806 14.2728 76.2772 14.2833C81.1474 14.2921 81.5551 14.3085 82.6138 14.5383C84.7076 14.9928 85.8657 15.6116 87.0738 16.9217C87.8217 17.7326 88.5275 19.0683 88.8289 20.2425C89.1488 21.4892 89.2644 23.5323 89.1958 26.7276C89.1273 29.9181 89.0439 30.5729 88.5189 32.0401C87.6756 34.3967 85.8083 36.0342 83.1796 36.7223C81.716 37.1053 75.7366 37.2868 72.3168 37.0519Z" fill="white"/>
</g>
<g clip-path="url(#clip1_189_512)">
<path d="M121.095 12.5515V14.1457H122.63V12.5515C124.252 12.4654 125.515 11.9771 126.39 11.101C127.265 10.2249 127.71 9.16216 127.71 7.91269C127.71 6.66322 127.251 5.55737 126.347 4.69567C125.443 3.83397 124.194 3.36003 122.63 3.27386V1.70844H121.095V3.28822C119.631 3.34567 118.411 3.79088 117.449 4.62386C116.488 5.45684 116 6.54833 116 7.92705C116 9.30578 116.488 10.3973 117.449 11.2302C118.411 12.0632 119.631 12.5084 121.095 12.5659V12.5515ZM122.63 4.68131C123.706 4.73875 124.539 5.05471 125.142 5.61482C125.744 6.17492 126.031 6.93609 126.031 7.91269C126.031 8.88929 125.73 9.66482 125.127 10.2249C124.524 10.785 123.692 11.0866 122.644 11.1441V4.68131H122.63ZM118.641 5.58609C119.272 5.02599 120.09 4.72439 121.109 4.68131V11.1297C120.076 11.0866 119.258 10.785 118.626 10.2249C117.995 9.66482 117.693 8.88929 117.693 7.91269C117.693 6.93609 118.009 6.1462 118.641 5.58609Z" fill="#E21A1A"/>
<path d="M133.293 14.3467C134.326 14.3467 135.187 14.0882 135.847 13.5856C136.507 13.0829 136.966 12.3648 137.225 11.46L135.66 11.2733C135.431 11.9196 135.115 12.3792 134.728 12.6664C134.34 12.9536 133.867 13.0973 133.307 13.0973C132.561 13.0973 131.944 12.8388 131.441 12.3217C130.939 11.8047 130.666 11.0435 130.609 10.0669H137.268C137.268 9.89461 137.268 9.75099 137.268 9.66482C137.268 8.18556 136.895 7.05099 136.134 6.23237C135.373 5.41376 134.398 5.01163 133.206 5.01163C132.015 5.01163 130.968 5.42812 130.193 6.2611C129.418 7.09407 129.03 8.25737 129.03 9.76535C129.03 11.2733 129.418 12.3505 130.178 13.1547C130.939 13.959 131.972 14.3611 133.293 14.3611V14.3467ZM131.47 6.95046C131.944 6.49088 132.532 6.24673 133.221 6.24673C133.996 6.24673 134.613 6.53397 135.101 7.1228C135.416 7.4962 135.603 8.05631 135.675 8.81748H130.695C130.752 8.04195 131.011 7.41003 131.484 6.95046H131.47Z" fill="#E21A1A"/>
<path d="M138.847 14.1457H145.879V16.6733H147.128V12.8962H146.166V5.21268H139.938C139.981 8.88927 139.479 11.46 138.402 12.9105H137.599V16.6877H138.847V14.16V14.1457ZM141.186 6.46214H144.645V12.8962H139.837C140.627 11.5031 141.072 9.36321 141.186 6.46214Z" fill="#E21A1A"/>
<path d="M152.538 14.3467C153.571 14.3467 154.432 14.0882 155.092 13.5856C155.752 13.0829 156.211 12.3648 156.47 11.46L154.906 11.2733C154.676 11.9196 154.36 12.3792 153.973 12.6664C153.585 12.9536 153.112 13.0973 152.552 13.0973C151.806 13.0973 151.189 12.8388 150.686 12.3217C150.184 11.8047 149.911 11.0435 149.854 10.0669H156.513C156.513 9.89461 156.513 9.75099 156.513 9.66482C156.513 8.18556 156.14 7.05099 155.379 6.23237C154.619 5.41376 153.643 5.01163 152.452 5.01163C151.26 5.01163 150.213 5.42812 149.438 6.2611C148.663 7.09407 148.275 8.25737 148.275 9.76535C148.275 11.2733 148.663 12.3505 149.423 13.1547C150.184 13.959 151.217 14.3611 152.538 14.3611V14.3467ZM150.715 6.95046C151.189 6.49088 151.777 6.24673 152.466 6.24673C153.241 6.24673 153.858 6.53397 154.346 7.1228C154.662 7.4962 154.848 8.05631 154.92 8.81748H149.94C149.998 8.04195 150.256 7.41003 150.729 6.95046H150.715Z" fill="#E21A1A"/>
<path d="M159.871 13.2265C160.129 13.5568 160.459 13.8153 160.861 14.0308C161.263 14.2462 161.708 14.3467 162.224 14.3467C162.913 14.3467 163.573 14.1457 164.19 13.7579C164.808 13.3701 165.295 12.81 165.626 12.0776C165.956 11.3451 166.113 10.5265 166.113 9.60736C166.113 8.76002 165.97 7.97013 165.669 7.25204C165.367 6.53396 164.937 5.98821 164.348 5.58608C163.76 5.18396 163.085 4.99725 162.325 4.99725C161.736 4.99725 161.248 5.11215 160.832 5.34193C160.416 5.57172 160.057 5.9164 159.727 6.36162V5.19832H158.35V17.5637H159.856V13.2121L159.871 13.2265ZM160.474 7.10842C160.976 6.50523 161.536 6.20364 162.181 6.20364C162.827 6.20364 163.387 6.49087 163.86 7.05098C164.334 7.61108 164.564 8.47279 164.564 9.60736C164.564 10.7994 164.32 11.6898 163.846 12.2499C163.372 12.81 162.784 13.0973 162.124 13.0973C161.464 13.0973 160.904 12.8244 160.43 12.2786C159.957 11.7329 159.727 10.8856 159.727 9.72225C159.727 8.55896 159.971 7.69725 160.474 7.09406V7.10842Z" fill="#E21A1A"/>
<path d="M170.95 8.98981C170.347 9.06162 169.902 9.13342 169.601 9.21959C169.199 9.33449 168.84 9.49247 168.51 9.72225C168.18 9.95204 167.922 10.2249 167.735 10.5983C167.548 10.9717 167.434 11.3595 167.434 11.7903C167.434 12.5371 167.692 13.1547 168.223 13.6286C168.754 14.1026 169.5 14.3467 170.49 14.3467C171.079 14.3467 171.638 14.2462 172.155 14.0451C172.672 13.8441 173.217 13.5137 173.777 13.0398C173.82 13.4563 173.92 13.8297 174.078 14.1457H175.657C175.47 13.801 175.341 13.4419 175.269 13.0685C175.197 12.6951 175.169 11.8047 175.169 10.3973V8.37225C175.169 7.69725 175.14 7.23768 175.097 6.97917C175.011 6.56268 174.853 6.218 174.623 5.94513C174.394 5.67225 174.049 5.44247 173.576 5.27013C173.102 5.09779 172.485 4.99725 171.725 4.99725C170.964 4.99725 170.275 5.09779 169.701 5.31321C169.127 5.52864 168.668 5.83023 168.366 6.218C168.065 6.60576 167.835 7.12279 167.706 7.7547L169.184 7.95576C169.342 7.32385 169.601 6.87864 169.931 6.63449C170.261 6.39034 170.792 6.26108 171.509 6.26108C172.27 6.26108 172.844 6.43342 173.231 6.7781C173.518 7.03662 173.662 7.46747 173.662 8.08502C173.662 8.14247 173.662 8.27172 173.662 8.48715C173.088 8.68821 172.184 8.86055 170.964 9.00417L170.95 8.98981ZM173.648 10.2106C173.648 10.8712 173.561 11.3882 173.404 11.7185C173.188 12.1637 172.858 12.5084 172.399 12.7669C171.94 13.0254 171.423 13.1547 170.849 13.1547C170.275 13.1547 169.816 13.0254 169.514 12.7526C169.213 12.4797 169.055 12.1494 169.055 11.7473C169.055 11.4887 169.127 11.2446 169.271 11.0292C169.414 10.8137 169.615 10.6558 169.873 10.5409C170.132 10.426 170.576 10.3254 171.194 10.2393C172.299 10.0813 173.117 9.89459 173.662 9.66481V10.2249L173.648 10.2106Z" fill="#E21A1A"/>
<path d="M179.115 13.8297C179.417 13.5855 179.603 13.2983 179.675 12.968C179.747 12.6377 179.775 11.9483 179.775 10.9143V6.46214H183.779V14.1457H185.286V5.21268H178.254V11.101C178.254 11.8765 178.226 12.3361 178.183 12.4797C178.139 12.6233 178.053 12.7238 177.91 12.7813C177.766 12.8387 177.551 12.8818 177.235 12.8818H176.575V14.1457C177.034 14.1887 177.436 14.2175 177.795 14.2175C178.369 14.2175 178.8 14.0882 179.101 13.8441L179.115 13.8297Z" fill="#E21A1A"/>
<path d="M194.872 11.4313C194.872 10.584 194.528 9.90897 193.853 9.42067C193.179 8.93238 192.217 8.68823 190.969 8.68823H189.046V5.19833H187.539V14.1313H191.328C192.562 14.1313 193.466 13.8728 194.026 13.3414C194.585 12.81 194.872 12.1781 194.872 11.4313ZM192.691 12.5372C192.275 12.767 191.6 12.8962 190.639 12.8962H189.046V9.95206H190.84C191.873 9.95206 192.548 10.11 192.849 10.4116C193.15 10.7132 193.308 11.0579 193.308 11.4457C193.308 11.9483 193.107 12.3074 192.691 12.5515V12.5372Z" fill="#E21A1A"/>
<path d="M198.059 10.1818H202.263V14.1457H203.77V5.21268H202.263V8.93236H198.059V5.21268H196.552V14.1457H198.059V10.1818Z" fill="#E21A1A"/>
<path d="M211.879 13.0398C211.922 13.4563 212.022 13.8297 212.18 14.1457H213.759C213.572 13.801 213.443 13.4419 213.371 13.0685C213.299 12.6951 213.271 11.8047 213.271 10.3973V8.37225C213.271 7.69725 213.242 7.23768 213.199 6.97917C213.113 6.56268 212.955 6.218 212.725 5.94513C212.496 5.67225 212.151 5.44247 211.678 5.27013C211.204 5.09779 210.587 4.99725 209.826 4.99725C209.066 4.99725 208.377 5.09779 207.803 5.31321C207.229 5.52864 206.77 5.83023 206.468 6.218C206.167 6.60576 205.937 7.12279 205.808 7.7547L207.286 7.95576C207.444 7.32385 207.702 6.87864 208.033 6.63449C208.363 6.39034 208.894 6.26108 209.611 6.26108C210.372 6.26108 210.946 6.43342 211.333 6.7781C211.62 7.03662 211.764 7.46747 211.764 8.08502C211.764 8.14247 211.764 8.27172 211.764 8.48715C211.19 8.68821 210.286 8.86055 209.066 9.00417C208.463 9.07598 208.018 9.14779 207.717 9.23396C207.315 9.34885 206.956 9.50683 206.626 9.73662C206.296 9.9664 206.038 10.2393 205.851 10.6127C205.665 10.9861 205.55 11.3738 205.55 11.8047C205.55 12.5515 205.808 13.1691 206.339 13.643C206.87 14.1169 207.616 14.3611 208.607 14.3611C209.195 14.3611 209.755 14.2606 210.271 14.0595C210.788 13.8584 211.333 13.5281 211.893 13.0542L211.879 13.0398ZM207.616 12.7526C207.315 12.4797 207.157 12.1494 207.157 11.7473C207.157 11.4887 207.229 11.2446 207.372 11.0292C207.516 10.8137 207.717 10.6558 207.975 10.5409C208.233 10.426 208.678 10.3254 209.295 10.2393C210.4 10.0813 211.218 9.89459 211.764 9.66481V10.2249C211.764 10.8856 211.678 11.4026 211.52 11.7329C211.305 12.1781 210.974 12.5228 210.515 12.7813C210.056 13.0398 209.539 13.1691 208.965 13.1691C208.391 13.1691 207.932 13.0398 207.631 12.7669L207.616 12.7526Z" fill="#E21A1A"/>
<path d="M219.083 10.8712C219.341 10.7276 219.743 10.6701 220.274 10.6701H221.15V14.16H222.656V5.21268H218.523C217.49 5.21268 216.701 5.45683 216.141 5.93076C215.581 6.4047 215.323 7.03661 215.323 7.81215C215.323 8.47278 215.538 9.04725 215.955 9.54991C216.371 10.0526 217.016 10.3685 217.878 10.4834C217.39 10.584 216.887 11.0004 216.385 11.7329L214.749 14.1457H216.629L217.949 12.1925C218.452 11.4457 218.825 11.0004 219.083 10.8712ZM217.433 9.04725C217.045 8.8031 216.859 8.40097 216.859 7.86959C216.859 7.49619 216.988 7.16587 217.246 6.87863C217.504 6.5914 218.093 6.46215 218.997 6.46215H221.15V9.42066H219.47C218.495 9.42066 217.82 9.2914 217.433 9.04725Z" fill="#E21A1A"/>
<path d="M116.459 34.8265H117.966V27.143H121.984V34.8265H123.505V25.8936H116.459V34.8265Z" fill="#E21A1A"/>
<path d="M133.006 31.0781V29.0531C133.006 28.3781 132.977 27.9186 132.934 27.66C132.848 27.2436 132.69 26.8989 132.461 26.626C132.231 26.3531 131.887 26.1233 131.413 25.951C130.939 25.7787 130.322 25.6781 129.562 25.6781C128.801 25.6781 128.112 25.7787 127.538 25.9941C126.964 26.2095 126.505 26.5111 126.204 26.8989C125.902 27.2866 125.673 27.8037 125.543 28.4356L127.022 28.6366C127.179 28.0047 127.438 27.5595 127.768 27.3154C128.098 27.0712 128.629 26.942 129.346 26.942C130.107 26.942 130.681 27.1143 131.069 27.459C131.356 27.7175 131.499 28.1483 131.499 28.7659C131.499 28.8233 131.499 28.9526 131.499 29.168C130.925 29.3691 130.021 29.5414 128.801 29.685C128.198 29.7569 127.754 29.8287 127.452 29.9148C127.05 30.0297 126.692 30.1877 126.361 30.4175C126.031 30.6473 125.773 30.9202 125.587 31.2936C125.4 31.667 125.285 32.0547 125.285 32.4856C125.285 33.2324 125.543 33.8499 126.074 34.3239C126.605 34.7978 127.352 35.042 128.342 35.042C128.93 35.042 129.49 34.9414 130.007 34.7404C130.523 34.5393 131.069 34.209 131.628 33.735C131.671 34.1515 131.772 34.5249 131.93 34.8409H133.508C133.322 34.4962 133.193 34.1372 133.121 33.7638C133.049 33.3904 133.02 32.4999 133.02 31.0925L133.006 31.0781ZM131.47 30.8914C131.47 31.5521 131.384 32.0691 131.226 32.3994C131.011 32.8446 130.681 33.1893 130.222 33.4478C129.763 33.7063 129.246 33.8356 128.672 33.8356C128.098 33.8356 127.639 33.7063 127.337 33.4334C127.036 33.1606 126.878 32.8303 126.878 32.4281C126.878 32.1696 126.95 31.9255 127.093 31.71C127.237 31.4946 127.438 31.3366 127.696 31.2217C127.954 31.1069 128.399 31.0063 129.016 30.9202C130.121 30.7622 130.939 30.5755 131.485 30.3457V30.9058L131.47 30.8914Z" fill="#E21A1A"/>
<path d="M139.019 26.9276C139.521 26.9276 139.952 27.0856 140.31 27.3872C140.669 27.6888 140.913 28.1483 141.057 28.7372L142.535 28.5074C142.363 27.6026 141.961 26.9132 141.344 26.4106C140.727 25.9079 139.937 25.6781 138.961 25.6781C138.186 25.6781 137.483 25.8648 136.823 26.2239C136.163 26.5829 135.689 27.1287 135.359 27.8467C135.029 28.5648 134.886 29.4122 134.886 30.3744C134.886 31.868 135.259 33.017 136.005 33.8069C136.751 34.5967 137.727 34.9989 138.947 34.9989C139.923 34.9989 140.741 34.7116 141.415 34.1228C142.09 33.534 142.506 32.7441 142.664 31.71L141.171 31.5233C141.071 32.2845 140.813 32.8446 140.411 33.2037C140.009 33.5627 139.521 33.7494 138.918 33.7494C138.172 33.7494 137.584 33.4765 137.124 32.9308C136.665 32.385 136.436 31.509 136.436 30.317C136.436 29.1249 136.68 28.2632 137.153 27.7175C137.627 27.1717 138.244 26.8989 139.004 26.8989L139.019 26.9276Z" fill="#E21A1A"/>
<path d="M150.026 34.1515C150.701 33.5771 151.117 32.7728 151.275 31.7388L149.782 31.5521C149.682 32.3132 149.424 32.8733 149.022 33.2324C148.62 33.5914 148.132 33.7781 147.529 33.7781C146.783 33.7781 146.195 33.5053 145.736 32.9595C145.276 32.4138 145.047 31.5377 145.047 30.3457C145.047 29.1537 145.291 28.292 145.764 27.7462C146.238 27.2005 146.855 26.9276 147.615 26.9276C148.118 26.9276 148.548 27.0856 148.907 27.3872C149.266 27.6888 149.51 28.1483 149.653 28.7372L151.131 28.5074C150.959 27.6026 150.557 26.9132 149.94 26.4106C149.323 25.9079 148.534 25.6781 147.558 25.6781C146.783 25.6781 146.08 25.8648 145.42 26.2239C144.76 26.5829 144.286 27.1287 143.956 27.8467C143.626 28.5648 143.482 29.4122 143.482 30.3744C143.482 31.868 143.856 33.017 144.602 33.8069C145.348 34.5967 146.324 34.9989 147.544 34.9989C148.52 34.9989 149.338 34.7116 150.012 34.1228L150.026 34.1515Z" fill="#E21A1A"/>
<path d="M156.785 34.7403C157.302 34.5393 157.847 34.209 158.407 33.735C158.45 34.1515 158.55 34.5249 158.708 34.8409H160.287C160.1 34.4962 159.971 34.1372 159.899 33.7637C159.828 33.3903 159.799 32.4999 159.799 31.0925V29.0675C159.799 28.3925 159.77 27.9329 159.727 27.6744C159.641 27.2579 159.483 26.9132 159.254 26.6403C159.024 26.3675 158.68 26.1377 158.206 25.9653C157.732 25.793 157.115 25.6925 156.355 25.6925C155.594 25.6925 154.905 25.793 154.331 26.0084C153.757 26.2239 153.298 26.5255 152.997 26.9132C152.695 27.301 152.466 27.818 152.336 28.4499L153.815 28.651C153.972 28.0191 154.231 27.5739 154.561 27.3297C154.891 27.0856 155.422 26.9563 156.139 26.9563C156.9 26.9563 157.474 27.1286 157.862 27.4733C158.149 27.7318 158.292 28.1627 158.292 28.7802C158.292 28.8377 158.292 28.9669 158.292 29.1824C157.718 29.3834 156.814 29.5558 155.594 29.6994C154.991 29.7712 154.546 29.843 154.245 29.9292C153.843 30.0441 153.485 30.202 153.154 30.4318C152.824 30.6616 152.566 30.9345 152.379 31.3079C152.193 31.6813 152.078 32.0691 152.078 32.4999C152.078 33.2467 152.336 33.8643 152.867 34.3382C153.398 34.8122 154.145 35.0563 155.135 35.0563C155.723 35.0563 156.283 34.9558 156.8 34.7547L156.785 34.7403ZM153.671 32.4281C153.671 32.1696 153.743 31.9255 153.886 31.71C154.03 31.4946 154.231 31.3366 154.489 31.2217C154.747 31.1068 155.192 31.0063 155.809 30.9201C156.914 30.7622 157.732 30.5755 158.278 30.3457V30.9058C158.278 31.5664 158.192 32.0834 158.034 32.4137C157.819 32.859 157.488 33.2036 157.029 33.4622C156.57 33.7207 156.053 33.8499 155.479 33.8499C154.905 33.8499 154.446 33.7207 154.145 33.4478C153.843 33.1749 153.685 32.8446 153.685 32.4425L153.671 32.4281Z" fill="#E21A1A"/>
<path d="M168.998 30.2451C169.4 30.0584 169.701 29.8574 169.888 29.6276C170.074 29.3978 170.289 28.9957 170.505 28.4212C170.749 27.8036 170.921 27.4446 171.05 27.3154C171.165 27.2005 171.423 27.143 171.825 27.143H172.241V25.8935H171.681C171.079 25.8935 170.648 26.0084 170.375 26.2382C170.088 26.468 169.773 27.0138 169.428 27.8611C169.055 28.7515 168.768 29.2973 168.567 29.4696C168.366 29.6419 168.036 29.7425 167.548 29.7425V25.8792H165.998V29.7425C165.51 29.7425 165.166 29.6419 164.98 29.4552C164.793 29.2685 164.506 28.7228 164.133 27.8467C163.831 27.1287 163.587 26.6547 163.401 26.4249C163.214 26.1951 162.999 26.0515 162.755 25.9797C162.511 25.9079 162.109 25.8792 161.521 25.8792H161.306V27.1287C161.535 27.1287 161.679 27.1287 161.751 27.1287C162.038 27.1287 162.253 27.1717 162.396 27.2435C162.54 27.3154 162.669 27.5021 162.798 27.818C163.157 28.7372 163.43 29.326 163.602 29.5701C163.774 29.8143 164.09 30.0441 164.549 30.2451C163.889 30.4175 163.257 31.0207 162.626 32.0691L160.976 34.8409H162.64L164.262 32.0691C164.592 31.509 164.879 31.1356 165.123 30.9632C165.367 30.7909 165.668 30.7047 165.998 30.7047V34.8409H167.548V30.7047C167.893 30.7047 168.18 30.7909 168.438 30.9632C168.696 31.1356 168.969 31.509 169.299 32.0691L170.921 34.8409H172.586L170.921 32.0691C170.304 31.035 169.658 30.4318 168.998 30.2451Z" fill="#E21A1A"/>
<path d="M179.489 28.0478V34.8265H181.01V25.8936H179.374L175.183 32.701V25.8936H173.662V34.8265H175.298L179.489 28.0478Z" fill="#E21A1A"/>
<path d="M189.276 26.2813C188.688 25.8935 188.013 25.6925 187.253 25.6925C186.664 25.6925 186.176 25.8074 185.76 26.0372C185.344 26.2669 184.985 26.6116 184.655 27.0568V25.8935H183.277V38.259H184.784V33.9074C185.043 34.2377 185.373 34.4962 185.774 34.7116C186.176 34.927 186.621 35.0276 187.138 35.0276C187.827 35.0276 188.487 34.8265 189.104 34.4388C189.721 34.051 190.209 33.4909 190.539 32.7584C190.869 32.026 191.027 31.2074 191.027 30.2882C191.027 29.4409 190.883 28.651 190.582 27.9329C190.281 27.2148 189.85 26.6691 189.262 26.2669L189.276 26.2813ZM188.774 32.9308C188.3 33.5052 187.712 33.7781 187.052 33.7781C186.391 33.7781 185.832 33.5052 185.358 32.9595C184.885 32.4138 184.655 31.5664 184.655 30.4031C184.655 29.2398 184.899 28.3781 185.401 27.7749C185.904 27.1717 186.463 26.8701 187.109 26.8701C187.755 26.8701 188.315 27.1574 188.788 27.7175C189.262 28.2776 189.491 29.1393 189.491 30.2739C189.491 31.4659 189.247 32.3563 188.774 32.9164V32.9308Z" fill="#E21A1A"/>
<path d="M197.929 33.2324C197.527 33.5914 197.039 33.7781 196.437 33.7781C195.69 33.7781 195.102 33.5053 194.643 32.9595C194.184 32.4138 193.954 31.5377 193.954 30.3457C193.954 29.1537 194.198 28.292 194.671 27.7462C195.145 27.2005 195.762 26.9276 196.523 26.9276C197.025 26.9276 197.456 27.0856 197.814 27.3872C198.173 27.6888 198.417 28.1483 198.561 28.7372L200.039 28.5074C199.866 27.6026 199.465 26.9132 198.848 26.4106C198.23 25.9079 197.441 25.6781 196.465 25.6781C195.69 25.6781 194.987 25.8648 194.327 26.2239C193.667 26.5829 193.193 27.1287 192.863 27.8467C192.533 28.5648 192.39 29.4122 192.39 30.3744C192.39 31.868 192.763 33.017 193.509 33.8069C194.255 34.5967 195.231 34.9989 196.451 34.9989C197.427 34.9989 198.245 34.7116 198.919 34.1228C199.594 33.534 200.01 32.7441 200.168 31.71L198.675 31.5233C198.575 32.2845 198.317 32.8446 197.915 33.2037L197.929 33.2324Z" fill="#E21A1A"/>
<path d="M204.431 30.2451C204.833 30.0584 205.12 29.8574 205.321 29.6276C205.522 29.3978 205.722 28.9957 205.952 28.4212C206.196 27.8036 206.368 27.4446 206.497 27.3154C206.612 27.2005 206.871 27.143 207.258 27.143H207.674V25.8935H207.373C206.842 25.8935 206.454 25.9366 206.21 26.0084C205.966 26.0802 205.751 26.2382 205.565 26.468C205.378 26.6978 205.134 27.1574 204.847 27.8611C204.474 28.7515 204.187 29.2973 204 29.4696C203.814 29.6419 203.469 29.7425 202.981 29.7425V25.8792H201.475V34.8122H202.981V30.676C203.326 30.676 203.613 30.7622 203.871 30.9345C204.13 31.1068 204.402 31.4802 204.732 32.026L206.34 34.7978H208.004L206.354 32.026C205.722 30.9919 205.091 30.3888 204.431 30.2021V30.2451Z" fill="#E21A1A"/>
<path d="M216.614 31.0781V29.0531C216.614 28.3781 216.586 27.9186 216.543 27.66C216.456 27.2436 216.299 26.8989 216.069 26.626C215.839 26.3531 215.495 26.1233 215.021 25.951C214.548 25.7787 213.931 25.6781 213.17 25.6781C212.41 25.6781 211.721 25.7787 211.147 25.9941C210.573 26.2095 210.113 26.5111 209.812 26.8989C209.511 27.2866 209.281 27.8037 209.152 28.4356L210.63 28.6366C210.788 28.0047 211.046 27.5595 211.376 27.3154C211.706 27.0712 212.237 26.942 212.955 26.942C213.715 26.942 214.29 27.1143 214.677 27.459C214.964 27.7175 215.108 28.1483 215.108 28.7659C215.108 28.8233 215.108 28.9526 215.108 29.168C214.533 29.3691 213.629 29.5414 212.41 29.685C211.807 29.7569 211.362 29.8287 211.061 29.9148C210.659 30.0297 210.3 30.1877 209.97 30.4175C209.64 30.6473 209.381 30.9202 209.195 31.2936C209.008 31.667 208.894 32.0547 208.894 32.4856C208.894 33.2324 209.152 33.8499 209.683 34.3239C210.214 34.7978 210.96 35.042 211.95 35.042C212.539 35.042 213.098 34.9414 213.615 34.7404C214.132 34.5393 214.677 34.209 215.237 33.735C215.28 34.1515 215.38 34.5249 215.538 34.8409H217.117C216.93 34.4962 216.801 34.1372 216.729 33.7638C216.657 33.3904 216.629 32.4999 216.629 31.0925L216.614 31.0781ZM215.079 30.8914C215.079 31.5521 214.993 32.0691 214.835 32.3994C214.62 32.8446 214.29 33.1893 213.83 33.4478C213.371 33.7063 212.854 33.8356 212.28 33.8356C211.706 33.8356 211.247 33.7063 210.946 33.4334C210.644 33.1606 210.486 32.8303 210.486 32.4281C210.486 32.1696 210.558 31.9255 210.702 31.71C210.845 31.4946 211.046 31.3366 211.305 31.2217C211.563 31.1069 212.008 31.0063 212.625 30.9202C213.73 30.7622 214.548 30.5755 215.093 30.3457V30.9058L215.079 30.8914Z" fill="#E21A1A"/>
<path d="M221.852 25.8936C220.819 25.8936 220.03 26.1377 219.47 26.6116C218.91 27.0856 218.652 27.7175 218.652 28.493C218.652 29.1537 218.867 29.7281 219.284 30.2308C219.7 30.7334 220.346 31.0494 221.207 31.1643C220.719 31.2648 220.216 31.6813 219.714 32.4138L218.078 34.8265H219.958L221.278 32.8733C221.781 32.1265 222.154 31.6813 222.412 31.5521C222.67 31.4228 223.072 31.351 223.603 31.351H224.479V34.8409H225.985V25.9079H221.852V25.8936ZM224.479 30.1015H222.8C221.824 30.1015 221.149 29.9723 220.762 29.7281C220.374 29.484 220.188 29.0819 220.188 28.5505C220.188 28.1771 220.317 27.8467 220.575 27.5595C220.834 27.2723 221.422 27.143 222.326 27.143H224.479V30.1015Z" fill="#E21A1A"/>
<path d="M119.401 50.926C119.803 50.7393 120.09 50.5382 120.291 50.3084C120.492 50.0786 120.693 49.6765 120.923 49.1021C121.166 48.4845 121.339 48.1255 121.468 47.9962C121.583 47.8813 121.841 47.8239 122.228 47.8239H122.645V46.5744H122.343C121.812 46.5744 121.425 46.6175 121.181 46.6893C120.937 46.7611 120.722 46.9191 120.535 47.1489C120.348 47.3786 120.105 47.8382 119.817 48.5419C119.444 49.4324 119.157 49.9781 118.971 50.1505C118.784 50.3228 118.44 50.4233 117.952 50.4233V46.56H116.431V55.493H117.938V51.3568C118.282 51.3568 118.569 51.443 118.827 51.6153C119.086 51.7877 119.358 52.1611 119.688 52.7068L121.296 55.4786H122.96L121.31 52.7068C120.679 51.6728 120.047 51.0696 119.387 50.8829L119.401 50.926Z" fill="#E21A1A"/>
<path d="M127.797 46.3733C126.692 46.3733 125.759 46.7036 124.984 47.3643C124.066 48.1542 123.606 49.3893 123.606 51.0409C123.606 52.5489 123.994 53.7121 124.769 54.502C125.544 55.2919 126.548 55.7084 127.797 55.7084C128.572 55.7084 129.289 55.5217 129.95 55.1627C130.61 54.8036 131.112 54.2866 131.456 53.626C131.801 52.9653 131.973 52.0606 131.973 50.9116C131.973 49.4898 131.586 48.384 130.811 47.5797C130.036 46.7754 129.031 46.3733 127.797 46.3733ZM129.677 53.6116C129.175 54.1861 128.558 54.4733 127.797 54.4733C127.036 54.4733 126.419 54.1861 125.917 53.626C125.415 53.0659 125.171 52.2042 125.171 51.0552C125.171 49.9063 125.415 49.059 125.917 48.4845C126.419 47.91 127.051 47.6372 127.797 47.6372C128.543 47.6372 129.16 47.9244 129.663 48.4845C130.165 49.0446 130.409 49.8919 130.409 50.9978C130.409 52.1754 130.165 53.0371 129.663 53.6116H129.677Z" fill="#E21A1A"/>
<path d="M138.488 53.7265L136.148 46.5744H133.795V55.5074H135.273V47.9675L137.77 55.5074H139.119L141.76 48.3122V55.5074H143.281V46.5744H141.1L138.488 53.7265Z" fill="#E21A1A"/>
<path d="M145.592 55.5074H147.113V47.8239H151.131V55.5074H152.652V46.5744H145.592V55.5074Z" fill="#E21A1A"/>
<path d="M162.152 51.759V49.734C162.152 49.059 162.124 48.5994 162.081 48.3409C161.995 47.9244 161.837 47.5797 161.607 47.3069C161.377 47.034 161.033 46.8042 160.559 46.6319C160.086 46.4595 159.469 46.359 158.708 46.359C157.948 46.359 157.259 46.4595 156.685 46.6749C156.111 46.8904 155.651 47.192 155.35 47.5797C155.049 47.9675 154.819 48.4845 154.69 49.1164L156.168 49.3175C156.326 48.6856 156.584 48.2404 156.914 47.9962C157.244 47.7521 157.775 47.6228 158.493 47.6228C159.254 47.6228 159.828 47.7952 160.215 48.1398C160.502 48.3983 160.646 48.8292 160.646 49.4467C160.646 49.5042 160.646 49.6334 160.646 49.8489C160.072 50.0499 159.167 50.2223 157.948 50.3659C157.345 50.4377 156.9 50.5095 156.599 50.5957C156.197 50.7106 155.838 50.8686 155.508 51.0983C155.178 51.3281 154.92 51.601 154.733 51.9744C154.546 52.3478 154.432 52.7356 154.432 53.1664C154.432 53.9132 154.69 54.5308 155.221 55.0047C155.752 55.4787 156.498 55.7228 157.488 55.7228C158.077 55.7228 158.636 55.6223 159.153 55.4212C159.67 55.2202 160.215 54.8898 160.775 54.4159C160.818 54.8324 160.918 55.2058 161.076 55.5217H162.655C162.468 55.1771 162.339 54.818 162.267 54.4446C162.196 54.0712 162.167 53.1808 162.167 51.7733L162.152 51.759ZM160.617 51.5723C160.617 52.2329 160.531 52.7499 160.373 53.0803C160.158 53.5255 159.828 53.8701 159.368 54.1287C158.909 54.3872 158.392 54.5164 157.818 54.5164C157.244 54.5164 156.785 54.3872 156.484 54.1143C156.182 53.8414 156.025 53.5111 156.025 53.109C156.025 52.8505 156.096 52.6063 156.24 52.3909C156.383 52.1755 156.584 52.0175 156.843 51.9026C157.101 51.7877 157.546 51.6872 158.163 51.601C159.268 51.443 160.086 51.2563 160.631 51.0265V51.5866L160.617 51.5723Z" fill="#E21A1A"/>
<path d="M170.218 50.2941H166.013V46.5744H164.506V55.5074H166.013V51.5436H170.218V55.5074H171.724V46.5744H170.218V50.2941Z" fill="#E21A1A"/>
<path d="M175.514 53.3818V46.5744H174.007V55.5074H175.628L179.833 48.7287V55.5074H181.34V46.5744H179.719L175.514 53.3818Z" fill="#E21A1A"/>
<path d="M184.138 47.2925C183.593 47.7808 183.32 48.3983 183.32 49.1739C183.32 49.8345 183.535 50.409 183.952 50.9116C184.368 51.4143 185.014 51.7302 185.875 51.8451C185.387 51.9457 184.884 52.3621 184.382 53.0946L182.746 55.5074H184.626L185.946 53.5542C186.449 52.8074 186.822 52.3621 187.08 52.2329C187.338 52.1036 187.74 52.0318 188.271 52.0318H189.147V55.5217H190.653V46.5887H186.52C185.487 46.5887 184.698 46.8329 184.138 47.3068V47.2925ZM189.147 47.8239V50.7824H187.468C186.492 50.7824 185.817 50.6531 185.43 50.409C185.042 50.1648 184.856 49.7627 184.856 49.2313C184.856 48.8579 184.985 48.5276 185.243 48.2403C185.501 47.9531 186.09 47.8239 186.994 47.8239H189.147Z" fill="#E21A1A"/>
</g>
<defs>
<clipPath id="clip0_189_512">
<rect width="67.5599" height="30.4682" fill="white" transform="translate(21.6553 14.2801)"/>
</clipPath>
<clipPath id="clip1_189_512">
<rect width="110" height="54" fill="white" transform="translate(116 1.70844)"/>
</clipPath>
</defs>
</svg>
