<svg width="215" height="58" viewBox="0 0 215 58" fill="none" xmlns="http://www.w3.org/2000/svg">
<g clip-path="url(#clip0_189_446)">
<path d="M141.961 24.7795C142.988 24.7795 144.035 24.7795 145.062 24.7795C145.576 24.7795 145.852 25.0172 145.852 25.532C145.852 27.433 145.911 29.334 145.813 31.2351C145.793 31.7301 145.339 32.3638 144.904 32.641C144.233 33.0569 143.423 33.3539 142.652 33.4133C141.092 33.5321 139.492 33.4529 137.912 33.4331C137.003 33.4133 136.391 32.8192 136.391 31.9083C136.371 30.344 136.371 28.7994 136.371 27.235C136.371 26.1855 137.477 24.8785 138.544 24.7993C139.689 24.7597 140.815 24.7993 141.961 24.7795C141.961 24.7993 141.961 24.7993 141.961 24.7795ZM138.287 29.136C138.287 29.6311 138.267 30.1261 138.287 30.6212C138.327 31.5321 138.781 31.9876 139.67 32.0074C140.499 32.0272 141.349 32.0272 142.178 31.9876C143.008 31.9678 143.719 31.4925 143.758 30.8192C143.837 29.5321 143.818 28.2449 143.798 26.9776C143.798 26.4627 143.442 26.1855 142.909 26.1855C141.823 26.1855 140.736 26.1459 139.65 26.2053C138.801 26.2449 138.307 26.7994 138.267 27.6509C138.267 28.1459 138.287 28.641 138.287 29.136Z" fill="#A8A8A8"/>
<path d="M91.2559 33.5915C91.1966 33.0371 91.1176 32.6608 91.1176 32.2846C91.0978 31.4529 91.1176 30.6014 91.0781 29.7697C91.0386 28.8786 90.7818 28.6014 89.9127 28.5618C88.7276 28.5024 87.5424 28.5024 86.3573 28.5222C85.5672 28.542 85.2511 28.8786 85.1919 29.6707C85.1524 30.2846 85.1721 30.8984 85.1721 31.5321C85.1721 32.7598 85.1721 32.7598 83.8685 33.4133C83.7895 32.9777 83.6512 32.6014 83.6314 32.1856C83.5919 31.4133 83.671 30.641 83.5919 29.8885C83.5524 29.3538 83.3944 28.839 83.1969 28.3439C82.9994 27.8093 82.9401 27.3934 83.4339 26.9578C83.987 26.4429 84.4018 25.7696 84.9549 25.2746C85.2511 24.9974 85.7252 24.8191 86.14 24.7993C87.9967 24.7597 89.8337 24.7993 91.6904 24.7795C92.283 24.7795 92.5595 25.037 92.5595 25.631C92.5793 27.7895 92.5793 29.9281 92.599 32.0866C92.599 32.8787 91.967 33.0965 91.2559 33.5915ZM90.7423 26.4825C90.3473 26.3835 89.972 26.2251 89.6164 26.2251C88.6288 26.1855 87.6412 26.1855 86.6733 26.2449C86.377 26.2647 85.8437 26.5221 85.8437 26.6805C85.8042 27.1558 86.1993 27.3736 86.6931 27.3736C87.6412 27.3736 88.609 27.3736 89.5572 27.3736C90.0905 27.3538 90.4855 27.136 90.7423 26.4825Z" fill="#A8A8A8"/>
<path d="M175.717 33.4331C175.678 33.0965 175.599 32.8391 175.599 32.5816C175.599 30.3044 175.579 28.0271 175.599 25.7498C175.599 24.8587 175.776 24.7597 176.547 25.1954C177.317 25.631 178.087 26.0865 178.818 26.5617C180.023 27.334 181.11 27.2548 182.275 26.4231C183.045 25.8687 183.895 25.4132 184.744 24.9578C185.277 24.6805 185.633 24.9578 185.653 25.5716C185.653 27.7499 185.653 29.9281 185.653 32.1064C185.653 32.6806 185.435 33.0767 184.823 33.1361C184.27 33.1757 183.677 32.641 183.658 32.1262C183.638 31.0371 183.677 29.9479 183.618 28.8588C183.598 28.5024 183.44 27.8885 183.263 27.8489C182.828 27.7499 182.255 27.8291 181.88 28.0469C180.793 28.74 180.24 28.74 179.213 28.0271C178.897 27.8093 178.364 27.7301 177.989 27.8291C177.771 27.8885 177.594 28.4232 177.554 28.74C177.495 29.4529 177.534 30.1658 177.534 30.8984C177.574 32.3242 177.218 32.8391 175.717 33.4331Z" fill="#A8A8A8"/>
<path d="M127.956 24.7795C129.082 24.7795 130.228 24.7597 131.354 24.7795C132.341 24.7993 132.479 24.9182 132.479 25.9083C132.499 27.9875 132.499 30.0667 132.479 32.146C132.479 32.4628 132.262 32.7599 132.144 33.0569C131.768 32.8985 131.334 32.8193 131.038 32.5816C130.801 32.4034 130.603 32.0272 130.603 31.7499C130.603 30.6212 130.544 29.4529 130.801 28.3836C131.156 26.8984 130.781 26.1855 129.24 26.1855C128.233 26.1855 127.225 26.1657 126.198 26.2053C125.191 26.2251 124.993 26.4429 124.974 27.4528C124.954 28.7598 125.033 30.0865 124.954 31.3935C124.914 31.8886 124.618 32.3836 124.342 32.8193C124.223 32.9975 123.788 33.1163 123.591 33.0371C123.354 32.9381 123.117 32.5816 123.097 32.344C123.038 31.5321 123.077 30.7202 123.077 29.8885C123.077 28.7796 123.077 27.6707 123.077 26.5419C123.077 25.334 123.591 24.8191 124.756 24.7993C125.843 24.7597 126.909 24.7795 127.956 24.7795Z" fill="#A8A8A8"/>
<path d="M106.386 33.4331C104.944 32.8192 104.569 32.5618 104.569 30.9578C104.589 30.8192 104.569 28.7994 104.569 28.641C104.608 28.6014 104.312 28.542 103.087 28.542C102.1 28.542 101.112 28.542 100.125 28.542C98.8604 28.542 98.6432 28.5222 98.5642 28.5816C98.5049 28.641 98.5444 31.3143 98.5839 31.9083C98.6432 32.7202 98.0506 33.0173 97.5173 33.3539C97.458 33.3935 97.0432 33.0569 97.0432 32.8787C96.984 31.9678 97.0037 31.0568 96.984 30.1261C96.984 29.4133 96.984 28.7202 96.5099 28.0865C96.2531 27.7697 96.2729 27.3736 96.5889 26.938C96.8655 26.6013 96.905 26.0469 96.984 25.5914C97.0432 25.2152 97.0235 24.8191 97.537 24.7795C98.0506 24.7399 98.4061 24.9379 98.4654 25.4924C98.4851 25.6706 98.5444 25.829 98.5444 26.0073C98.5246 26.7796 98.5642 27.136 98.5642 27.136C99.6308 27.136 101.685 27.136 102.771 27.136C103.799 27.136 104.589 27.0766 104.589 27.0766C104.589 26.4627 104.668 25.8092 104.984 25.4726C105.201 25.235 105.932 24.9776 106.248 24.8389C106.347 25.0964 106.544 25.3538 106.544 25.6112C106.564 27.8291 106.564 30.0667 106.544 32.2846C106.544 32.6608 106.445 33.0173 106.386 33.4331Z" fill="#A8A8A8"/>
<path d="M193.712 33.4529C192.704 33.4529 191.697 33.4529 190.67 33.4529C189.761 33.4331 189.584 33.2945 189.544 32.3836C189.505 31.5123 189.584 30.641 189.505 29.7895C189.465 29.2944 189.169 28.839 189.07 28.3637C189.011 28.0865 188.932 27.6905 189.07 27.5122C189.663 26.7004 190.295 25.9281 190.986 25.1954C191.203 24.9578 191.638 24.8191 191.974 24.7993C193.653 24.7597 195.332 24.7597 197.01 24.7795C197.247 24.7795 197.485 24.9776 197.722 25.0766C197.603 25.2944 197.564 25.5914 197.386 25.6904C197.03 25.9083 196.596 26.1261 196.201 26.1657C195.015 26.2449 193.83 26.2053 192.645 26.2647C192.369 26.2845 192.112 26.5617 191.855 26.7202C192.092 26.9182 192.329 27.235 192.606 27.2944C193.08 27.3934 193.593 27.2944 194.067 27.3142C194.364 27.3142 194.68 27.3142 194.936 27.433C195.134 27.532 195.331 27.8093 195.371 28.0271C195.391 28.1459 195.075 28.443 194.897 28.4628C194.186 28.542 193.475 28.5618 192.764 28.5816C191.46 28.6014 191.104 28.9578 191.104 30.2846C191.104 31.4925 191.737 32.245 192.823 32.2252C193.317 32.2252 193.791 32.1064 194.285 32.047C194.522 32.0272 194.778 31.9678 195.015 31.9876C195.667 32.0668 196.319 32.1856 196.971 32.245C197.425 32.2846 197.741 32.4034 197.722 32.9381C197.722 33.4925 197.366 33.5519 196.912 33.5519C196.378 33.5321 195.825 33.5321 195.292 33.5321C194.759 33.4727 194.245 33.4727 193.712 33.4529C193.712 33.4727 193.712 33.4727 193.712 33.4529Z" fill="#A8A8A8"/>
<path d="M202.363 33.4727C202.304 33.0965 202.205 32.74 202.185 32.4034C202.166 31.4727 202.185 30.5222 202.166 29.5717C202.166 29.3539 202.205 29.0964 202.126 28.8984C201.435 27.1558 202.58 26.1459 203.667 25.136C203.924 24.8983 204.378 24.7795 204.733 24.7795C206.807 24.7597 208.881 24.7993 210.955 24.7993C211.449 24.7993 211.686 25.0172 211.706 25.4924C211.706 25.8687 211.726 26.2251 211.706 26.6013C211.686 27.1558 210.995 27.7697 210.955 27.7895C209.632 28.8984 207.835 28.4628 206.333 28.4628C204.22 28.4628 204.121 28.5222 204.2 30.7004C204.24 32.1262 203.785 32.8193 202.363 33.4727ZM209.573 26.2449C208.151 26.2449 206.373 26.2647 204.911 26.2647C204.694 26.2647 204.654 26.839 204.733 26.9776C204.872 27.235 204.753 27.334 205.524 27.334C206.432 27.334 207.933 27.3736 208.842 27.2944C209.178 27.235 209.612 26.2647 209.573 26.2449Z" fill="#A8A8A8"/>
<path d="M70.5163 33.453C70.4768 33.0173 70.4372 32.6609 70.4175 32.3044C70.299 30.8787 70.1607 29.4727 70.0817 28.0469C70.062 27.7499 70.1015 27.3341 70.299 27.136C71.0298 26.3637 71.8002 25.6509 72.5903 24.9578C72.7483 24.8192 73.0446 24.7796 73.2816 24.7796C75.0988 24.7796 76.9358 24.7598 78.753 24.8192C79.1085 24.8192 79.7209 25.0172 79.7406 25.1954C79.8394 25.7499 79.8789 26.4232 79.6024 26.8786C78.8913 28.1063 77.8049 28.7598 76.284 28.5618C75.4346 28.4628 74.5655 28.5024 73.6964 28.5222C72.7483 28.5618 72.4915 28.839 72.4322 29.7895C72.4125 30.1262 72.4125 30.4826 72.4322 30.8193C72.452 32.4034 72.215 32.7599 70.5163 33.453ZM77.5679 26.6014C77.3703 26.4628 77.2913 26.3637 77.2123 26.3637C75.9679 26.3241 74.7235 26.2845 73.4791 26.2845C73.3211 26.2845 73.0248 26.6212 73.0643 26.6608C73.1828 26.8984 73.3804 27.235 73.5581 27.235C74.684 27.235 75.8297 27.1756 76.9555 27.0964C77.1333 27.0964 77.3111 26.8192 77.5679 26.6014Z" fill="#A8A8A8"/>
<path d="M171.728 29.1162C171.728 30.1856 171.767 31.2549 171.708 32.3044C171.688 32.6806 171.491 33.0371 171.372 33.4133C170.957 33.0569 170.503 32.74 170.187 32.3044C170.029 32.0866 170.108 31.6905 170.108 31.3539C170.108 30.3242 170.167 29.2746 170.108 28.2449C170.088 27.8489 170.049 26.3241 170.049 26.3241C169.614 26.4825 168.567 26.9974 168.133 27.2152C167.145 27.6905 165.466 28.6608 164.36 29.0964C164.36 29.0964 164.36 29.235 164.36 29.6509C164.36 30.1856 164.321 30.7796 164.222 31.3341C164.163 31.7499 164.044 32.2054 163.807 32.5618C163.629 32.7994 163.215 33.0173 162.938 32.9975C162.484 32.9579 162.385 32.5222 162.405 32.0866C162.424 30.7994 162.424 29.5123 162.424 28.2251C162.424 27.5915 162.326 26.938 162.405 26.3043C162.464 25.8687 162.701 25.4528 162.938 25.0766C162.997 24.9776 163.511 24.9974 163.59 25.1162C163.866 25.532 164.143 25.9677 164.261 26.4429C164.261 27.1954 164.4 27.8291 164.4 27.8291C165.348 27.3736 167.797 26.3439 168.706 25.8489C169.357 25.4924 170.009 25.1162 170.701 24.8389C171.313 24.5815 171.748 24.9181 171.748 25.631C171.748 26.7994 171.728 27.9677 171.728 29.1162Z" fill="#A8A8A8"/>
<path d="M119.028 25.037C118.653 25.6904 118.258 26.1459 117.487 26.1459C116.184 26.1261 114.88 26.1657 113.557 26.1657C112.846 26.1657 112.332 26.5023 112.213 27.1756C112.213 28.0469 112.174 28.8192 112.174 29.7895C112.174 31.5717 112.529 32.0668 114.623 32.0668C115.828 32.0668 116.737 32.146 117.922 32.146C118.179 32.146 118.554 32.8391 118.929 33.2747C118.435 33.3539 118.119 33.4331 117.784 33.4331C115.868 33.4529 113.932 33.4529 112.016 33.4331C110.989 33.4331 110.436 32.8589 110.436 31.8291C110.416 30.3044 110.416 28.7598 110.436 27.235C110.436 26.3241 111.522 24.8785 112.411 24.8389C114.445 24.7597 116.5 24.8191 118.554 24.8191C118.672 24.8389 118.83 24.9577 119.028 25.037Z" fill="#A8A8A8"/>
<path d="M149.269 32.6806C149.604 31.5717 149.901 30.5618 150.197 29.5519C150.473 28.6014 150.71 27.6509 151.007 26.7003C151.303 25.8092 152.745 24.7597 153.654 24.7597C154.937 24.7399 156.221 24.7795 157.505 24.7795C158.137 24.7795 158.453 25.037 158.453 25.6904C158.453 27.8687 158.473 30.0469 158.434 32.2054C158.434 32.4826 158.137 32.7598 157.979 33.0173C157.624 32.7994 157.189 32.6212 156.952 32.3242C156.794 32.1262 156.853 31.7103 156.853 31.3935C156.853 30.1261 156.893 28.8786 156.893 27.6113C156.893 26.4231 156.616 26.1657 155.471 26.1459C155.254 26.1459 155.036 26.1459 154.799 26.1459C152.784 26.1459 152.212 26.6607 151.817 28.6608C151.599 29.7499 151.303 30.7994 150.967 31.8687C150.691 32.8589 149.881 33.1559 149.269 32.6806Z" fill="#A8A8A8"/>
<path d="M24.8289 56.7008C18.6069 56.7008 12.78 53.7701 8.43443 48.4631C4.16792 43.2551 1.81738 36.3441 1.81738 29.0172C1.81738 21.6904 4.16792 14.7794 8.43443 9.57139C12.78 4.24458 18.6069 1.33365 24.8289 1.33365C31.0509 1.33365 36.8779 4.26438 41.2234 9.57139C45.4899 14.7794 47.8404 21.6904 47.8404 29.0172C47.8404 36.3441 45.4899 43.2551 41.2234 48.4631C36.8581 53.7701 31.0312 56.7008 24.8289 56.7008ZM24.8289 5.09608C14.2021 5.09608 5.57034 15.8289 5.57034 29.0172C5.57034 42.2055 14.2021 52.9384 24.8289 52.9384C35.4557 52.9384 44.0875 42.2055 44.0875 29.0172C44.0875 15.8289 35.4359 5.09608 24.8289 5.09608Z" fill="#106A9A"/>
<path d="M24.9079 44.0471C23.624 44.0471 22.5771 42.9976 22.5771 41.7105V27.0964C22.5771 25.8092 23.624 24.7597 24.9079 24.7597C26.1918 24.7597 27.2387 25.8092 27.2387 27.0964V41.7105C27.2387 42.9976 26.1918 44.0471 24.9079 44.0471Z" fill="#106A9A"/>
<path d="M35.8505 14.8586C34.7444 14.8586 33.816 15.6309 33.579 16.6606H31.3272C30.9717 15.6111 29.9841 14.8586 28.8187 14.8586C27.357 14.8586 26.1719 16.0467 26.1719 17.5121C26.1719 18.9775 27.357 20.1656 28.8187 20.1656C29.9841 20.1656 30.9717 19.4131 31.3272 18.3636H33.5198V41.7501C33.5198 43.0372 34.5666 44.0867 35.8505 44.0867C37.1344 44.0867 38.1813 43.0372 38.1813 41.7501V17.1953C38.1616 15.9081 37.1344 14.8586 35.8505 14.8586Z" fill="#A8A8A8"/>
<path d="M20.8582 14.8586C19.6928 14.8586 18.7051 15.6111 18.3496 16.6606H16.2361C15.9991 15.6309 15.0707 14.8586 13.9646 14.8586C12.6807 14.8586 11.6338 15.9081 11.6338 17.1953V41.7303C11.6338 43.0174 12.6807 44.0669 13.9646 44.0669C15.2485 44.0669 16.2954 43.0174 16.2954 41.7303V18.3636H18.3496C18.7051 19.4131 19.6928 20.1656 20.8582 20.1656C22.3198 20.1656 23.505 18.9775 23.505 17.5121C23.505 16.0467 22.3001 14.8586 20.8582 14.8586Z" fill="#106A9A"/>
<path d="M67.4346 23.0171H55.7412V34.7401H67.4346V23.0171Z" fill="#106A9A"/>
<path d="M64.6105 24.5815C62.3982 24.5617 60.1662 24.5617 57.9539 24.5815C57.6972 24.5815 57.4404 24.7795 57.1836 24.8785C57.3219 25.1954 57.4009 25.5914 57.6379 25.829C57.9737 26.1459 58.3687 26.5419 58.8428 26.5419C59.2181 26.5419 59.9094 26.5419 60.66 26.5419C60.6205 27.5122 60.6798 29.6509 60.6798 30.2648C60.6798 31.1757 60.6798 32.0866 60.739 32.9975C60.7588 33.1757 61.1736 33.5123 61.2131 33.4727C61.9044 32.7796 62.2797 32.542 62.2797 31.7301C62.2797 31.1361 62.26 30.8192 62.26 30.2252L62.2205 26.6409C62.2205 26.6013 62.2205 26.5617 62.2205 26.5419C62.7933 26.5419 63.2278 26.5419 63.2871 26.5419C64.7883 26.5419 65.124 26.1855 65.7364 24.7399C65.3018 24.6805 64.966 24.5815 64.6105 24.5815Z" fill="#A8A8A8"/>
</g>
<defs>
<clipPath id="clip0_189_446">
<rect width="214.906" height="57.6246" fill="white" transform="translate(0 0.105896)"/>
</clipPath>
</defs>
</svg>
