<svg width="168" height="37" viewBox="0 0 168 37" fill="none" xmlns="http://www.w3.org/2000/svg">
<path d="M54.7936 30.3194L54.699 30.4429H53.7589V19.5048H51.1318V32.5062H56.2481L64.5056 21.564H65.4478V32.5062H68.0749V19.5048H63.0491L54.7936 30.3194Z" fill="white"/>
<path d="M83.0386 24.7177H73.1971V19.5048H70.5762V32.5062H73.1971V26.8263H83.0386V32.5062H85.6615V19.5048H83.0386V24.7177Z" fill="white"/>
<path d="M108.052 20.3935C107.637 20.0726 107.157 19.8422 106.663 19.7311C105.97 19.583 105.242 19.5069 104.495 19.5069H92.7919C92.0492 19.5069 91.3189 19.583 90.6236 19.7311C90.1258 19.8442 89.6485 20.0726 89.1979 20.4264C89.0437 20.5869 88.6549 21.0333 88.4327 21.7513C88.2228 22.4733 88.1221 23.2345 88.1221 24.0738V26.96C88.1221 27.785 88.2146 28.4906 88.3833 28.9843C88.5109 29.5336 88.7371 29.9573 89.1013 30.3153C89.4201 30.6403 89.8768 30.8954 90.4734 31.0785C91.1317 31.2184 91.934 31.2925 92.7939 31.2925H97.3567V32.5062H99.9838V31.2925H104.497C105.372 31.2925 106.166 31.2163 106.869 31.0641C107.4 30.8996 107.877 30.6363 108.254 30.2989C108.568 29.9862 108.821 29.5212 108.945 29.0296C109.101 28.5153 109.171 27.8652 109.171 26.9168V24.0265C109.171 23.1255 109.081 22.3561 108.898 21.7286C108.663 21.1197 108.398 20.698 108.052 20.3935ZM106.445 27.7479C106.336 28.1264 106.234 28.433 105.991 28.6716C105.699 28.8938 105.361 29.0419 104.995 29.0995C104.689 29.188 104.238 29.2312 103.658 29.2312H99.9838V21.6093H103.619C104.131 21.6093 104.536 21.6093 104.964 21.7142C105.355 21.7677 105.651 21.9755 105.855 22.138C106.118 22.3931 106.285 22.6749 106.398 23.0493C106.497 23.3991 106.546 23.8372 106.546 24.3515V26.5856C106.544 27.0094 106.509 27.4044 106.445 27.7479ZM97.3547 21.6093V29.2312H93.6806C93.2115 29.2312 92.7178 29.1962 92.3434 29.1407C91.9567 29.0358 91.6337 28.8897 91.4012 28.7189C91.1112 28.4371 91 28.1471 90.9054 27.8529C90.7902 27.4662 90.7902 27.0588 90.7902 26.5857V24.3516C90.7902 23.8702 90.8417 23.4217 90.9404 23.0597C91.0495 22.6914 91.214 22.4014 91.4341 22.1771C91.7304 21.9343 92.0184 21.7616 92.4936 21.6978C92.7939 21.6093 93.2465 21.6093 93.7258 21.6093H97.3547Z" fill="white"/>
<path d="M127.009 20.2124C126.665 19.9142 126.145 19.6653 125.62 19.5459C124.993 19.3978 124.259 19.3217 123.493 19.3217H116.057C115.201 19.3217 114.421 19.3978 113.734 19.548C113.104 19.727 112.65 19.9553 112.294 20.27C111.987 20.5745 111.732 21.0374 111.553 21.6113C111.378 22.2408 111.29 23.0061 111.29 23.8825V28.1717C111.29 28.9576 111.376 29.6282 111.555 30.2248C111.751 30.7946 112.012 31.2163 112.347 31.5105C112.668 31.8315 113.16 32.1009 113.781 32.2902C114.446 32.4301 115.234 32.5062 116.057 32.5062H123.493C124.559 32.5062 125.244 32.4404 125.781 32.2861C126.355 32.1256 126.832 31.8829 127.198 31.5578C127.47 31.2883 127.692 30.8748 127.906 30.2433C128.04 29.6508 128.116 28.9144 128.116 28.1717V23.8825C128.116 22.9156 128.027 22.173 127.846 21.6072C127.62 20.9551 127.361 20.5252 127.009 20.2124ZM125.489 24.1643V27.7973C125.489 28.3178 125.443 28.7169 125.334 29.0769C125.297 29.3464 125.137 29.6406 124.892 29.8874C124.639 30.1363 124.294 30.2515 123.979 30.3421C123.485 30.4141 123.063 30.447 122.611 30.447H116.849C116.036 30.447 115.528 30.3873 115.151 30.2454C114.74 30.0891 114.433 29.8216 114.201 29.4246C113.997 28.9164 113.921 28.3918 113.966 27.8138L113.964 24.154C113.921 23.7303 113.958 23.2736 114.063 22.8827C114.15 22.6215 114.31 22.2532 114.567 21.9878C114.81 21.741 115.149 21.6299 115.503 21.5332C115.836 21.4488 116.164 21.4077 116.505 21.4077C116.633 21.4077 116.764 21.4118 116.916 21.4242H122.533C122.64 21.4118 122.775 21.4077 122.907 21.4077C123.255 21.4077 123.576 21.4488 123.886 21.5373C124.222 21.5805 124.561 21.7513 124.81 22.0002C125.059 22.1997 125.24 22.4919 125.343 22.8745C125.443 23.218 125.489 23.6171 125.489 24.1643Z" fill="white"/>
<path d="M142.199 19.8874C141.563 19.5912 140.788 19.4431 139.895 19.4431C139.782 19.4431 139.669 19.4472 139.558 19.4513H130.522V32.4527H133.15V28.4474H139.584C140.623 28.4474 141.528 28.2807 142.201 27.9681C142.841 27.6677 143.289 27.2028 143.575 26.5527C143.9 25.8532 144.065 24.9563 144.065 23.8824C144.065 22.8538 143.896 21.9528 143.581 21.2678C143.287 20.6383 142.835 20.1878 142.199 19.8874ZM141.17 25.2566C141.074 25.6043 140.782 25.9026 140.341 26.098C140.109 26.2606 139.648 26.3429 138.975 26.3429H133.152V21.5125H138.975C139.43 21.5125 139.79 21.5599 140.103 21.6627C140.43 21.7759 140.708 21.9364 140.887 22.1215C141.09 22.3231 141.224 22.5885 141.3 22.9485C141.397 23.2241 141.397 23.543 141.397 23.8804C141.395 24.5017 141.327 24.9316 141.17 25.2566Z" fill="white"/>
<path d="M161.359 19.3299L156.786 30.268H156.412L151.923 19.4205L151.888 19.3299H146.013V32.681H148.989V21.7389H149.697L154.324 32.5905L154.363 32.681H158.833L163.544 21.7389H164.206V32.681H167.228V19.3299H161.359Z" fill="white"/>
<path d="M51.1396 17.1393H53.7585V6.19293H63.3532V4.13782H41.5449V6.19293H51.1396V17.1393Z" fill="white"/>
<path d="M86.1608 4.56958C85.5313 4.27539 84.7599 4.12936 83.8712 4.12936C83.7539 4.12936 83.6346 4.13137 83.5173 4.13759H65.5684V17.137H68.2386V13.1316H83.542C84.5809 13.1316 85.4861 12.9649 86.1629 12.6502C86.8068 12.3519 87.2553 11.887 87.5412 11.2348C87.8642 10.5457 88.0308 9.64876 88.0308 8.56668C88.0308 7.52779 87.8621 6.62677 87.5474 5.95615C87.2552 5.32251 86.8006 4.87199 86.1608 4.56958ZM85.2083 9.86479C85.0314 10.2906 84.7351 10.593 84.299 10.7803C83.9884 10.9962 83.4371 11.025 82.9372 11.025H68.2365V6.19063H82.9372C83.3938 6.19063 83.7539 6.24205 84.0686 6.34702C84.3772 6.45192 84.6611 6.61647 84.8442 6.79753C85.0664 7.03 85.1816 7.29123 85.2865 7.55661L85.3071 7.62861C85.3503 7.91458 85.4017 8.23551 85.3503 8.64076C85.3955 9.00903 85.342 9.45954 85.2083 9.86479Z" fill="white"/>
<path d="M120.448 11.4571H137.93V17.139H140.555V4.1376H137.93V9.35051H120.448V4.1376H117.825V17.139H120.448V11.4571Z" fill="white"/>
<path d="M162.427 17.139C163.197 17.139 163.886 17.0958 164.478 17.0053C165.036 16.9127 165.443 16.779 165.756 16.5815C166.087 16.3758 166.33 16.1351 166.552 15.7854C166.694 15.4995 166.871 15.1024 166.965 14.5552C167.009 14.0841 167.035 13.6377 167.046 13.2262L167.048 13.0781H164.421L164.408 13.2098C164.384 13.4669 164.334 13.683 164.258 13.8681C164.141 14.2322 163.941 14.4997 163.653 14.6724C163.46 14.8165 163.133 14.9317 162.759 14.9852C162.401 15.0324 161.967 15.0818 161.45 15.0818H148.833C148.369 15.0818 147.998 15.0386 147.665 14.9975L147.527 14.9769C147.161 14.8658 146.838 14.7568 146.587 14.5058C146.338 14.3104 146.163 14.0265 146.05 13.6356C145.949 13.2591 145.9 12.8086 145.9 12.2902L145.898 8.87738C145.855 8.34864 145.892 7.88576 146.015 7.47022C146.054 7.15757 146.223 6.81197 146.441 6.5815C146.758 6.34086 147.099 6.19685 147.509 6.14336C147.733 6.07549 148.078 6.03431 148.428 6.03431C148.57 6.03431 148.716 6.04253 148.881 6.05898L161.467 6.0549C161.559 6.04667 161.681 6.04253 161.796 6.04253C162.273 6.04253 162.711 6.11454 163.098 6.25856C163.518 6.41488 163.863 6.6844 164.094 7.03409C164.26 7.32005 164.359 7.62039 164.402 7.97422L164.419 8.10386H167.05L167.04 7.94955C167.003 7.25627 166.889 6.65351 166.704 6.16395C166.505 5.61261 166.194 5.18263 165.725 4.81028C165.377 4.53668 164.882 4.3145 164.199 4.12321C163.664 4.00594 162.979 3.95038 162.1 3.95038H148.227C147.328 3.95038 146.503 4.02653 145.764 4.17871C145.161 4.33918 144.678 4.5881 144.283 4.93578C143.919 5.26494 143.67 5.71752 143.497 6.36347C143.32 7.00533 143.226 7.83027 143.226 8.74981V12.6626C143.226 13.504 143.318 14.261 143.491 14.8411C143.618 15.3966 143.861 15.8554 144.219 16.2133C144.6 16.5486 145.073 16.7893 145.585 16.9107C146.145 17.067 146.836 17.1349 147.897 17.1349H162.427V17.139Z" fill="white"/>
<path d="M93.0427 12.9033H112.535V17.139H115.166V8.42687C115.166 7.52786 115.046 6.76671 114.816 6.16804C114.614 5.61469 114.306 5.18471 113.839 4.81443C113.491 4.5429 112.995 4.31865 112.31 4.12529C111.773 4.00801 111.088 3.95245 110.212 3.95245H95.3653C94.4725 3.95245 93.6455 4.02861 92.9008 4.18085C92.3083 4.33717 91.8269 4.5861 91.4278 4.93785C91.0637 5.26086 90.8128 5.71545 90.6358 6.36554C90.4589 7.00741 90.3643 7.83234 90.3643 8.75189V17.137H93.0406V12.9033L93.0427 12.9033ZM112.535 8.4248V10.7659H93.0427L93.0406 8.87738C92.9954 8.37338 93.0324 7.89613 93.1579 7.47029C93.1908 7.15551 93.3616 6.8099 93.5879 6.5795C93.9026 6.33673 94.24 6.19478 94.6453 6.14336C94.8777 6.0755 95.2233 6.03437 95.5689 6.03437C95.7088 6.03437 95.8549 6.0426 96.0194 6.05905L109.578 6.0549C109.671 6.04668 109.792 6.0426 109.908 6.0426C110.383 6.0426 110.823 6.11454 111.212 6.25649C111.629 6.41288 111.975 6.6844 112.205 7.03415C112.436 7.43117 112.535 7.84465 112.535 8.4248Z" fill="white"/>
<path d="M29.4302 9.79486C29.3603 9.81338 29.315 9.88125 29.3232 9.95326C29.3335 10.0253 29.3952 10.0829 29.4672 10.0829H31.8124C31.9091 10.0829 32.0428 10.0808 32.1457 10.0582L32.2239 10.0273C33.0344 9.57268 33.9354 9.09336 34.9826 8.56054C35.0484 8.52557 35.0792 8.44741 35.0525 8.37747C35.0258 8.3096 34.9496 8.26842 34.8797 8.28901C34.1947 8.47415 33.4397 8.68196 32.5839 8.92467C31.6746 9.17773 30.6336 9.47192 29.4302 9.79486Z" fill="white"/>
<path d="M31.0805 6.73581C31.062 6.66173 30.9879 6.61238 30.9097 6.62676C28.9657 7.01355 23.8618 8.33426 19.7618 9.39575C18.579 9.70231 17.4927 9.98413 16.6102 10.2104C15.4109 10.5169 14.226 10.7905 13.078 11.0559L12.9896 11.0785C10.5209 11.6463 8.19014 12.1853 6.20496 12.9403C6.14739 12.9609 6.11035 13.0164 6.11035 13.0761V14.763C6.11035 14.8123 6.13502 14.8597 6.17822 14.8864C6.20289 14.9008 6.22964 14.909 6.25638 14.909C6.27697 14.909 6.29964 14.9049 6.31809 14.8967C12.0906 12.1997 19.2763 10.1899 24.5242 8.72099L30.9797 6.91273C31.0537 6.89012 31.0989 6.81196 31.0805 6.73581Z" fill="white"/>
<path d="M17.0339 19.2805C18.3628 18.3404 19.554 17.5237 20.5702 16.8489C20.6237 16.8119 20.6483 16.744 20.6298 16.6844C20.6114 16.6247 20.5537 16.5795 20.49 16.5795H10.2925C10.2719 16.5795 10.2493 16.5835 10.2308 16.5938C9.11371 17.1061 8.37723 17.5319 7.59756 17.9824L7.54407 18.0154C7.12646 18.2581 6.69447 18.5091 6.19047 18.7786C6.14313 18.8033 6.1123 18.8526 6.1123 18.9082V19.1612C6.1123 19.2414 6.1781 19.3073 6.25833 19.3073H16.9495C16.9783 19.3053 17.0092 19.295 17.0339 19.2805Z" fill="white"/>
<path d="M21.5239 12.1401C19.7177 12.7119 17.8827 13.362 16.0724 14.0656C16.0065 14.0903 15.9695 14.1581 15.9819 14.2281C15.9942 14.296 16.0559 14.3474 16.1259 14.3474H24.4492C24.4739 14.3474 24.4986 14.3413 24.5212 14.3268C25.7226 13.6418 26.9014 12.9979 28.0287 12.4096C28.0884 12.3766 28.1192 12.3088 28.1028 12.245C28.0864 12.1812 28.0287 12.1318 27.9609 12.1318H21.5692C21.5548 12.1318 21.5384 12.1359 21.5239 12.1401Z" fill="white"/>
<path d="M6.52699 24.3227C6.53314 24.3227 6.53936 24.3206 6.54551 24.3206L11.1351 23.7261C11.1577 23.722 11.1803 23.7138 11.2009 23.6994C11.6247 23.399 12.0567 23.0843 12.5299 22.7387C12.8632 22.498 13.219 22.2388 13.6058 21.9549C13.6551 21.9179 13.6778 21.8541 13.6572 21.7944C13.6366 21.7348 13.5811 21.6937 13.5194 21.6937H6.25546C6.17523 21.6937 6.10938 21.7574 6.10938 21.8376V24.0285C6.10938 24.0738 6.1176 24.1746 6.15464 24.2343C6.18754 24.2898 6.25132 24.3103 6.31303 24.298C6.30895 24.298 6.30688 24.3042 6.30274 24.3042C6.346 24.3124 6.42415 24.3227 6.52699 24.3227Z" fill="white"/>
<path d="M22.9521 21.0765C23.2874 20.698 23.9643 20.0479 24.2378 19.7907C24.4312 19.6138 24.5711 19.5048 24.7069 19.4698C24.7912 19.4451 24.9085 19.4307 25.0586 19.4307C25.1471 19.4307 25.217 19.4369 25.2294 19.4369L26.6406 19.4348C26.6797 19.4348 26.7167 19.4205 26.7435 19.3916L27.4676 18.6614C27.9182 18.2108 28.4674 17.6575 28.9303 17.1864C28.9714 17.1452 28.9838 17.0835 28.9611 17.03C28.9406 16.9785 28.8871 16.9415 28.8295 16.9395L27.9819 16.923L27.8544 16.6926C27.7721 16.4684 27.9058 16.3182 28.0663 16.1907L28.1774 16.094C28.5538 15.7772 28.7246 15.6414 29.0352 15.3945L29.1936 15.267C29.2286 15.2341 29.28 15.1867 29.3644 15.1559C29.4322 15.1353 29.4631 15.1271 29.8972 15.1271L30.2818 15.1292L30.8579 15.1271C30.8805 15.123 30.9176 15.1189 30.9443 15.1127C30.9751 15.1065 31.0019 15.09 31.0225 15.0695C31.259 14.8144 31.4936 14.586 31.7219 14.3639L31.8021 14.2857C32.2033 13.8969 32.6168 13.4937 33.0302 13.1213C33.0714 13.0843 33.0879 13.0288 33.0734 12.9774C33.0199 12.7737 32.9665 12.5186 32.9603 12.4918C32.985 12.4363 32.9706 12.3663 32.9213 12.3252C32.8719 12.2841 32.8019 12.2799 32.7484 12.3108C32.2177 12.6441 31.6725 12.9814 31.1377 13.3044C27.3154 15.6167 22.012 19.5377 17.6261 23.29C17.5767 23.3332 17.5602 23.4011 17.587 23.4587C17.6096 23.5122 17.663 23.5472 17.7207 23.5472C17.7248 23.5472 17.731 23.5451 17.7371 23.5451L23.6084 22.9012C23.6474 22.9012 23.7606 22.8642 23.8017 22.8498C23.8573 22.8209 23.9005 22.7922 23.9313 22.7572C24.1041 22.5597 24.3222 22.2923 24.5197 22.0454C24.5546 22.0022 24.5608 21.9405 24.5361 21.8911C24.5114 21.8418 24.46 21.8089 24.4045 21.8089L23.4767 21.8129C23.4623 21.8129 23.4211 21.8171 23.3738 21.8171C23.0035 21.8171 22.8883 21.6402 22.8513 21.4756C22.8081 21.3583 22.8513 21.2596 22.9068 21.1464L22.9521 21.0765Z" fill="white"/>
<path d="M36.0811 13.5019C36.0132 13.4937 35.937 13.5575 35.9288 13.6336C35.9103 13.8187 35.898 14.2487 35.8815 14.8453C35.8198 17.0732 35.6325 23.8598 34.3468 23.975L6.17569 27.7706C5.79103 27.8405 5.44543 27.8755 5.14094 27.8755C4.19465 27.8755 3.54048 27.5505 3.19896 26.9045C2.92743 26.3861 2.92743 25.7751 2.92743 25.3698L2.89453 4.09232C2.89453 2.83125 3.53841 2.1627 4.75007 2.1627L32.9294 3.53276C32.9315 3.53276 32.9336 3.53276 32.9336 3.53276C32.9376 3.53276 32.9397 3.53276 32.9418 3.53276C33.022 3.53276 33.0878 3.46904 33.0878 3.3888C33.0878 3.30857 33.022 3.24479 32.9418 3.24479L2.61265 0.163086C0.36003 0.175454 0.0576172 1.75746 0.0576172 3.30443V27.9433C0.0576172 28.5955 0.302461 30.7247 3.44173 30.7247C3.64746 30.7247 3.87372 30.7123 4.14324 30.6897L34.9187 25.8224C35.647 25.8162 36.2169 25.1353 36.2169 24.2692V13.65C36.2189 13.5698 36.1592 13.506 36.0811 13.5019Z" fill="white"/>
<path d="M18.7044 31.0641C11.0331 31.0641 6.32422 32.5699 6.32422 33.65C6.32422 34.7301 11.0352 36.2338 18.7044 36.2338C26.3736 36.2338 31.0845 34.73 31.0845 33.65C31.0845 32.57 26.3756 31.0641 18.7044 31.0641Z" fill="white"/>
</svg>
