<svg width="117" height="65" viewBox="0 0 117 65" fill="none" xmlns="http://www.w3.org/2000/svg">
<g clip-path="url(#clip0_203_1153)">
<path d="M115.251 12.2614H87.4218C86.2561 12.2614 84.9448 13.2955 84.362 14.3295L82.905 17.4318L82.1764 17.1364L78.8252 8.56818H77.2225C77.0768 8.56818 75.9112 8.27273 74.4541 7.97727C71.9772 7.23864 68.3346 6.35227 66.0033 6.20454C65.4205 6.20454 63.9635 6.20454 62.9436 6.35227C61.1951 6.64773 60.0295 7.53409 60.0295 7.53409L53.1814 4.57954L48.0818 7.09091L40.5052 8.86364H38.6111L35.4056 18.0227L33.8028 14.4773C33.3657 13.4432 31.9087 12.4091 30.7431 12.4091H3.20508C3.20508 12.2614 3.20508 13.8864 3.78789 15.0682C4.225 15.9545 5.24493 16.1023 5.53634 16.1023H9.03322H29.5774C31.0345 16.1023 31.763 16.9886 32.2001 18.0227L33.8028 22.0114H33.5114L33.3657 23.1932C33.22 22.8977 33.0743 22.6023 32.9286 22.3068C32.4915 21.5682 32.2001 20.9773 31.4716 20.9773H10.9274C10.9274 20.8295 10.9274 22.0114 11.3645 22.75C11.6559 23.4886 12.3844 23.6364 12.5301 23.6364H31.6173V24.8182H14.8614C14.8614 24.6705 14.8614 25.8523 15.2985 26.5909C15.5899 27.1818 16.4641 27.4773 16.6098 27.4773H31.6173V29.25L26.8091 43.2841H53.3271C53.4728 43.2841 57.1154 45.0568 59.1553 45.0568C61.1951 45.0568 64.8377 43.2841 64.9834 43.2841H91.6472L85.819 27.4773H101.846C101.992 27.4773 102.866 27.3295 103.158 26.5909C103.595 25.7045 103.595 24.6705 103.595 24.8182H84.0706V22.8977L86.2561 17.7273C86.6932 16.6932 87.4218 15.8068 88.8788 15.8068H109.423H112.92C113.066 15.8068 114.086 15.6591 114.668 14.7727C115.251 13.7386 115.397 12.1136 115.251 12.2614ZM83.9249 18.1705V23.4886V23.6364V28.6591L68.3346 29.8409L68.1889 12.5568L67.0233 10.7841L83.9249 18.1705ZM68.1889 32.0568L60.6123 32.6477L59.301 32.3523L59.7381 10.3409C60.4666 10.0455 61.4865 9.75 62.0693 9.60227C62.5064 9.45454 63.3807 9.30682 64.2549 9.75C65.7119 10.3409 67.6061 12.5568 67.6061 12.5568L68.1889 32.0568ZM64.2549 6.79545C65.8576 6.64773 67.7518 6.94318 69.5002 7.23864L77.3682 9.15909L79.4081 15.6591L66.2947 9.89773C65.7119 9.30682 64.8377 8.56818 63.9635 8.27273C63.6721 8.125 63.235 7.97727 62.6521 7.97727C62.215 7.97727 61.7779 7.97727 61.7779 7.97727L61.0494 7.68182C61.7779 7.23864 62.9436 6.79545 64.2549 6.79545ZM54.2013 5.31818L60.758 8.27273C60.758 8.27273 59.8838 8.42045 58.7181 8.86364C56.5326 9.60227 53.4728 10.7841 53.4728 10.7841L54.2013 5.31818ZM59.0096 32.3523L51.2873 30.875L51.1416 12.1136L57.8439 9.75L59.0096 32.3523ZM52.5986 5.31818L53.4728 10.4886L50.413 11.6705L51.1416 30.875L48.0818 30.4318V24.6705L46.3333 24.2273V22.1591H45.8962L45.7505 8.86364L52.5986 5.31818ZM40.6509 9.30682L45.7505 7.97727L45.1677 8.27273L45.4591 13.5909L38.3196 16.1023L40.6509 9.30682ZM42.6908 15.2159L43.1279 21.5682H43.2736V15.0682L45.4591 13.7386L45.8962 22.1591L43.7107 21.8636L41.6708 21.5682C41.6708 21.5682 41.6708 21.4205 41.6708 21.2727C41.5251 20.9773 41.3794 20.6818 41.088 20.5341C40.6509 20.0909 39.3396 19.5 38.4653 20.5341C38.0282 20.9773 38.0282 21.5682 37.8825 21.5682H37.154L37.0083 17.2841L42.6908 15.2159ZM41.3794 21.4205L39.1939 21.2727C39.1939 20.0909 40.0681 19.9432 40.6509 20.3864C41.3794 20.9773 41.3794 21.4205 41.3794 21.4205ZM37.4454 21.7159C39.3396 21.7159 41.3794 21.8636 43.1279 22.0114C44.5849 22.1591 45.8962 22.3068 45.8962 22.3068L46.0419 24.0795C46.0419 24.0795 42.9822 23.4886 39.7767 23.4886C37.4454 23.4886 34.5314 23.7841 34.5314 23.7841V22.1591C35.2599 22.0114 35.9884 21.7159 37.4454 21.7159ZM33.5114 24.5227C33.5114 24.375 34.9685 24.2273 36.2798 24.0795C37.0083 24.0795 37.7368 23.9318 38.1739 23.9318C41.6708 23.7841 47.3533 24.8182 47.6447 24.8182H47.7904L48.0818 30.2841H47.6447H47.3533V25.2614L41.6708 25.1136L41.8165 31.6136C41.8165 31.7614 39.4853 32.2045 37.7368 32.0568C35.4056 31.9091 33.3657 31.0227 33.3657 31.0227L33.5114 24.5227ZM56.2412 42.25C56.2412 42.25 54.7842 41.6591 52.7443 41.2159C50.9959 40.7727 48.6646 40.4773 46.7705 40.4773C44.1478 40.4773 40.5052 40.625 37.154 41.0682C35.2599 41.2159 33.22 41.5114 31.763 41.6591C31.4716 41.6591 33.9485 40.9205 37.0083 39.7386C39.9224 38.7045 43.565 37.375 46.3333 36.9318C48.0818 36.7841 49.9759 36.9318 51.433 37.375C54.4927 38.2614 57.1154 40.3295 58.281 41.3636C58.8639 41.9545 59.1553 42.25 59.1553 42.25H56.2412ZM81.3022 40.9205C77.951 40.625 74.3084 40.3295 71.6858 40.3295C69.6459 40.3295 67.4604 40.625 65.7119 41.0682C63.6721 41.5114 62.215 42.1023 62.215 42.1023H59.301C59.301 42.1023 59.5924 41.8068 60.1752 41.2159C61.3408 40.0341 63.9635 38.1136 67.0233 37.2273C68.626 36.7841 70.3744 36.6364 72.1229 36.7841C74.8913 37.0795 78.5338 38.4091 81.4479 39.5909C84.5077 40.7727 86.9846 41.5114 86.6932 41.5114C85.2362 41.3636 83.1964 41.2159 81.3022 40.9205ZM86.9846 41.0682L74.8913 36.7841C72.2686 36.0455 69.9373 35.75 66.8776 36.4886C64.4006 37.2273 61.7779 38.7045 59.0096 41.3636C59.0096 41.3636 56.5326 39.1477 54.347 37.9659C52.0158 36.7841 50.413 36.4886 48.956 36.1932C49.1017 36.1932 46.6248 35.75 42.5451 37.0795C40.6509 37.6705 38.4653 38.4091 36.5712 39.1477C33.6571 40.1818 31.1802 41.0682 31.3259 40.9205L33.9485 31.9091C37.5911 33.0909 42.6908 32.5 42.6908 32.5L48.956 36.1932V36.0455L42.5451 31.9091V31.0227L53.1814 36.1932L42.5451 30.7273V26.7386L46.3333 26.8864L46.479 30.875L47.2076 30.7273L66.149 33.9773V33.8295L62.6521 33.0909L68.4803 32.3523V30.875L83.4878 28.9545L86.9846 41.0682Z" fill="#0C795D"/>
<path d="M66.8776 13.4432C66.5861 12.8523 66.0033 11.9659 65.4205 11.5227C65.1291 11.375 64.2549 10.9318 64.2549 10.9318V12.5568L66.8776 13.4432Z" fill="#0C795D"/>
<path d="M63.0898 15.5114L64.8383 15.9545V13.8864L63.0898 13.2955V15.5114Z" fill="#0C795D"/>
<path d="M31.1809 18.4659C30.7438 17.7273 30.3067 16.9886 29.2868 16.9886H6.99414C6.99414 16.8409 6.99414 18.0227 7.43125 18.7614C7.72266 19.3523 8.59688 19.6477 8.74258 19.6477H31.6181C31.7638 19.7954 31.618 19.2045 31.1809 18.4659Z" fill="#0C795D"/>
<path d="M63.235 10.7841C63.235 10.7841 62.7979 10.6364 62.5065 10.6364C62.215 10.6364 62.0693 10.6364 61.9236 10.7841C61.4865 10.9318 61.0494 11.375 60.6123 11.6705L63.3807 12.4091L63.235 10.7841Z" fill="#0C795D"/>
<path d="M89.1703 17.1364C88.1504 17.1364 87.7133 17.875 87.2762 18.6136C86.9848 19.2046 86.6934 19.7955 86.6934 19.7955H109.569C109.715 19.7955 110.589 19.6477 110.88 18.9091C111.317 18.0227 111.317 16.9886 111.317 17.1364H89.1703Z" fill="#0C795D"/>
<path d="M87.1307 20.9773C86.4021 20.9773 85.965 21.5682 85.6736 22.3068C85.3822 22.8977 85.0908 23.7841 85.0908 23.7841H105.926C106.072 23.7841 106.946 23.6364 107.238 22.8977C107.675 22.0114 107.675 20.9773 107.675 21.125L87.1307 20.9773Z" fill="#0C795D"/>
<path d="M43.1279 30.5795H43.2736V27.625H45.6049L45.7506 30.5795L45.8963 27.4773L43.1279 27.3295V30.5795Z" fill="#0C795D"/>
<path d="M65.5664 16.1023L66.8777 16.25V14.3295L65.5664 14.0341V16.1023Z" fill="#0C795D"/>
<path d="M62.9443 25.4091V26.8864L64.8385 26.7386V25.4091H62.9443Z" fill="#0C795D"/>
<path d="M64.8385 23.0455L62.9443 22.8977V24.6705L64.8385 24.5227V23.0455Z" fill="#0C795D"/>
<path d="M64.6928 16.8409L62.9443 16.5455V19.3523H64.8385L64.6928 16.8409Z" fill="#0C795D"/>
<path d="M64.8385 20.2386L62.9443 20.0909V22.1591H64.8385V20.2386Z" fill="#0C795D"/>
<path d="M60.6123 12.7045V15.0682L62.3607 15.3636V13.1477L60.6123 12.7045Z" fill="#0C795D"/>
<path d="M94.2703 55.5455C93.8332 56.1364 93.2504 56.7273 92.5219 56.875C91.0649 57.1705 89.7535 57.1705 88.5879 56.1364C86.6937 54.5114 85.8195 52.4432 85.8195 49.9318C85.8195 48.75 86.4023 47.8636 87.568 47.5682C88.1508 47.4205 88.7336 47.4205 89.3164 47.5682C90.6277 47.8636 91.6477 48.6023 92.5219 49.7841C92.6676 49.9318 92.8133 50.0795 92.8133 50.0795C92.8133 50.0795 92.8133 50.0795 92.959 49.9318C92.5219 48.8977 92.2305 47.8636 91.7934 46.8295C91.6477 46.8295 91.6477 46.8295 91.502 46.8295C91.502 47.2727 91.3563 47.5682 90.9192 47.4204C90.0449 47.2727 89.1707 46.9773 88.1508 46.8295C87.7137 46.8295 87.2766 46.8295 86.8394 46.8295C86.6937 46.8295 86.6938 46.9773 86.548 46.9773C83.7797 47.4205 82.1769 49.7841 83.1969 52.5909C84.0711 55.25 86.1109 56.7273 88.7336 57.4659C89.1707 57.6136 89.6078 57.6136 90.0449 57.7614C90.482 57.7614 91.0649 57.7614 91.502 57.7614C91.7934 57.7614 91.9391 57.6136 92.2305 57.6136C93.1047 57.4659 93.6875 57.0227 94.2703 56.4318C94.8531 55.8409 94.8532 55.8409 94.416 54.9545C94.416 55.1023 94.2703 55.25 94.2703 55.5455Z" fill="#0C795D"/>
<path d="M66.0035 47.2727C66.8778 47.4205 67.0235 47.7159 66.5864 48.4545C66.0035 49.4886 65.4207 50.375 64.9836 51.4091C64.8379 51.8523 64.5465 52.1477 64.2551 52.5909C63.818 51.8523 63.5266 51.2614 63.2352 50.6705C62.7981 49.7841 62.2153 48.8977 61.7781 48.1591C61.4867 47.5682 61.6324 47.2727 62.2153 47.2727C62.361 47.2727 62.5067 47.2727 62.6524 47.2727C62.6524 47.2727 62.6524 47.2727 62.6524 47.125C60.9039 47.125 59.3012 47.125 57.5527 47.125V47.2727C58.427 47.2727 58.8641 47.8636 59.3012 48.4545C60.3211 50.5227 61.4867 52.4432 62.5067 54.5114C62.9438 55.1023 62.7981 55.6932 62.361 56.1364C62.0695 56.4318 61.7781 56.875 61.341 56.7273C60.9039 56.5795 60.9039 56.1364 60.9039 55.6932C60.7582 54.9545 60.4668 54.8068 59.7383 54.9545C59.1555 55.1023 58.8641 55.3977 58.7184 55.9886C58.7184 56.5795 59.0098 57.1705 59.4469 57.4659C59.5926 57.6136 59.7383 57.6136 60.0297 57.7614C60.3211 57.7614 60.6125 57.7614 60.9039 57.7614C61.7781 57.4659 62.5067 57.0227 62.9438 56.2841C63.0895 56.1364 63.2352 55.8409 63.3809 55.6932C64.5465 53.625 65.5664 51.7045 66.7321 49.6364C67.3149 48.75 67.6063 47.5682 68.7719 47.125C67.6063 47.125 66.4407 47.125 65.275 47.125C65.5664 47.2727 65.7121 47.2727 66.0035 47.2727Z" fill="#0C795D"/>
<path d="M31.909 55.6932C32.9289 53.1818 33.9489 50.8182 34.9688 48.3068C35.2602 47.5682 35.843 47.125 36.5715 47.125C36.7172 47.125 36.8629 47.125 37.0086 47.125C35.843 46.8295 31.6176 46.9773 31.3262 47.125C31.6176 47.125 31.7633 47.125 31.909 47.125C32.2004 47.125 32.4918 47.2727 32.4918 47.5682C32.3461 47.8636 32.2004 48.3068 32.0547 48.4545C30.0149 50.2273 27.975 51.8523 26.0809 53.625C26.0809 53.625 25.9352 53.7727 25.7895 53.7727C26.3723 52.5909 26.9551 51.4091 27.5379 50.2273C27.975 49.3409 28.4121 48.4545 28.995 47.7159C29.1407 47.4205 29.5778 47.125 30.0149 46.9773C30.3063 46.8295 30.5977 46.8295 30.8891 46.8295C30.8891 46.8295 30.8891 46.8295 30.8891 46.6818C28.995 46.6818 27.2465 46.6818 25.3524 46.6818C25.4981 46.8295 25.6438 46.8295 25.7895 46.8295C26.518 46.8295 26.6637 47.125 26.3723 47.7159V47.8636C25.061 50.375 23.7496 52.8864 22.2926 55.25C21.8555 56.1364 21.127 56.7273 20.107 56.5795C19.9613 56.5795 19.8156 56.7273 19.6699 56.7273V56.875C21.7098 56.875 23.7496 56.875 25.7895 56.875C25.9352 56.875 25.9352 56.7273 26.0809 56.7273C25.7895 56.5795 25.4981 56.5795 25.2067 56.5795C24.9153 56.5795 24.6238 56.4318 24.7695 56.1364C24.9153 55.6932 25.061 55.25 25.3524 54.9545C26.518 53.7727 27.8293 52.7386 29.1407 51.7045C30.0149 50.9659 30.8891 50.2273 31.7633 49.4886C30.8891 51.5568 30.0149 53.625 28.995 55.6932C28.5578 56.4318 27.975 56.875 27.1008 56.875C26.9551 56.875 26.8094 56.875 26.6637 57.0227V57.1705C28.7035 57.1705 30.7434 57.1705 32.7832 57.1705C32.7832 57.1705 32.929 57.0227 33.0747 57.0227C32.929 57.0227 32.7832 57.0227 32.7832 57.0227C31.6176 57.0227 31.4719 56.875 31.909 55.6932Z" fill="#0C795D"/>
<path d="M81.1567 55.6932C80.7196 53.7727 80.4282 51.8523 79.9911 50.0795C79.8453 49.4886 79.6996 48.8977 79.6996 48.1591C79.5539 47.5682 79.8453 47.2727 80.4282 47.2727C80.5739 47.2727 80.7196 47.2727 80.8653 47.2727V47.125C76.9313 47.125 73.143 47.125 69.209 47.125C69.209 47.2727 69.3547 47.2727 69.3547 47.2727C70.3746 47.4205 70.5203 47.4205 70.666 48.6023C70.8117 49.7841 70.8117 50.8182 70.9574 52C71.1031 53.3295 71.1031 54.6591 71.2488 55.9886C71.2488 56.875 70.9574 57.0227 70.2289 57.1705C70.0832 57.1705 69.9375 57.1705 69.7918 57.1705V57.3182C69.9375 57.3182 69.9375 57.4659 70.0832 57.4659C71.9774 57.4659 73.8715 57.4659 75.7656 57.4659C75.9114 57.4659 75.9114 57.3182 76.0571 57.3182C75.9114 57.1705 75.9114 57.1705 75.7656 57.1705C74.6 57.1705 74.3086 56.875 74.1629 55.6932C74.1629 55.5455 74.1629 55.3977 74.1629 55.25C74.0172 54.0682 73.8715 52.8864 73.7258 51.7045C73.5801 50.375 73.4344 49.0455 73.2887 47.7159C74.6 47.7159 75.7656 47.7159 77.077 47.7159C77.2227 49.0455 77.5141 50.2273 77.6598 51.4091C77.9512 53.0341 78.0969 54.6591 78.2426 56.2841C78.2426 56.875 78.0969 57.0227 77.5141 57.1705C77.2227 57.1705 77.077 57.1705 76.7856 57.1705C77.2227 57.4659 82.7594 57.4659 83.0508 57.1705C82.9051 57.1705 82.7594 57.1705 82.7594 57.1705C81.7395 57.0227 81.4481 56.875 81.1567 55.6932Z" fill="#0C795D"/>
<path d="M45.7506 50.0795C46.3334 48.8977 45.8963 47.8636 44.585 47.4205C44.2936 47.2727 43.8565 47.2727 43.5651 47.2727C41.8166 47.2727 39.9225 47.125 38.0283 47.125C37.8826 47.125 37.7369 47.125 37.5912 47.2727C37.7369 47.4205 37.8826 47.4205 38.0283 47.4205C38.7569 47.5682 38.9026 47.7159 38.6111 48.4545C37.7369 50.9659 36.717 53.625 35.8428 56.1364C35.5514 56.875 34.9686 57.3182 34.0943 57.3182C33.9486 57.3182 33.8029 57.3182 33.6572 57.3182C33.6572 57.4659 33.8029 57.4659 33.8029 57.4659C35.6971 57.4659 37.5912 57.4659 39.4854 57.4659C39.6311 57.4659 39.6311 57.3182 39.7768 57.3182C39.7768 57.3182 39.7768 57.3182 39.7768 57.1705C39.6311 57.1705 39.6311 57.1705 39.4854 57.1705C38.4654 57.1705 38.174 56.875 38.6111 55.8409C38.9026 54.8068 39.3397 53.9205 39.6311 52.8864C39.7768 52.4432 39.9225 52.4432 40.3596 52.4432C41.3795 52.2955 42.3994 52.2955 43.4194 52C44.585 51.5568 45.3135 50.9659 45.7506 50.0795ZM40.2139 51.7045C40.651 50.375 41.0881 49.0455 41.5252 47.7159C41.5252 47.5682 41.6709 47.5682 41.6709 47.5682C42.3994 47.2727 43.5651 48.0114 43.4194 48.75C43.4194 50.375 42.2537 52 40.2139 51.7045Z" fill="#0C795D"/>
<path d="M47.4994 47.2727C47.6451 47.2727 47.9365 47.2727 48.0822 47.2727C48.6651 47.2727 48.8108 47.5682 48.8108 48.1591C48.8108 48.3068 48.8108 48.4545 48.8108 48.4545C48.2279 50.8182 47.6451 53.3295 47.0623 55.6932C46.7709 56.7273 46.4795 57.0227 45.4596 57.0227C45.3139 57.0227 45.1682 57.1705 45.0225 57.1705C46.0424 57.4659 50.9963 57.3182 51.2877 57.0227C51.142 57.0227 51.142 57.0227 51.142 57.0227C49.8307 57.0227 49.685 56.7273 49.9764 55.5455C50.2678 54.2159 50.4135 53.0341 50.7049 51.7045C50.9963 50.375 51.2877 48.8977 51.5791 47.5682C52.7448 47.5682 53.9104 47.5682 55.076 47.5682C55.8045 47.5682 56.2416 48.0114 56.3873 48.75C56.3873 48.8977 56.3873 49.0455 56.533 49.1932C56.533 49.3409 56.6788 49.3409 56.8245 49.4886C56.9702 48.6023 56.9702 47.7159 57.1159 46.9773C55.3674 46.9773 47.7908 46.9773 47.4994 47.2727Z" fill="#0C795D"/>
</g>
<defs>
<clipPath id="clip0_203_1153">
<rect width="117" height="65" fill="white"/>
</clipPath>
</defs>
</svg>
