<svg width="112" height="91" viewBox="0 0 112 91" fill="none" xmlns="http://www.w3.org/2000/svg">
<rect y="0.105896" width="111.275" height="58.9493" fill="#E21A1A"/>
<g clip-path="url(#clip0_189_491)">
<path fill-rule="evenodd" clip-rule="evenodd" d="M25.6181 35.6189V26.0921H23.7383H21.8584L21.9018 24.9038C21.9402 23.8495 21.9791 23.6633 22.2466 23.2534C22.4274 22.9762 22.7465 22.6938 23.0439 22.5478C23.5374 22.3054 23.5838 22.3043 33.2634 22.3063C43.7724 22.3085 43.8705 22.3136 45.0574 22.9237C45.3706 23.0847 45.9388 23.5094 46.32 23.8674C47.036 24.5398 49.544 27.8289 49.976 28.6621C50.3116 29.3091 50.3143 30.4459 49.9819 31.0851C49.7353 31.5592 48.1899 33.7179 46.343 36.1678L45.2857 37.5702H40.657C38.1112 37.5702 36.0283 37.5309 36.0283 37.4829C36.0283 37.4349 37.2584 35.7175 38.7619 33.6665C42.9851 27.9052 42.6291 28.4474 42.6826 27.6964C42.725 27.1015 42.6991 27.0081 42.3965 26.6645C42.0769 26.3017 42.0192 26.283 40.9413 26.195C40.324 26.1445 38.3295 26.1007 36.5092 26.0977L33.1994 26.0921L33.1982 35.1885C33.1975 40.1915 33.1654 44.4786 33.1268 44.7153L33.0567 45.1458H29.3374H25.6181L25.6181 35.6189Z" fill="white"/>
<path fill-rule="evenodd" clip-rule="evenodd" d="M47.4238 37.2244C47.5426 37.0342 50.0553 33.6012 53.0078 29.5955L58.3759 22.3124L63.0434 22.3084C65.6106 22.3062 67.711 22.3348 67.711 22.372C67.711 22.4488 63.5827 28.095 59.3828 33.7624L56.5654 37.5642L51.8867 37.5672L47.208 37.5702L47.4238 37.2244Z" fill="white"/>
<path fill-rule="evenodd" clip-rule="evenodd" d="M72.52 37.4495C70.5203 37.3121 69.698 36.9314 68.3631 35.5251C67.5394 34.6573 65.4891 31.9092 65.0991 31.1501C64.7095 30.3919 64.6818 29.5769 65.0201 28.8289C65.1728 28.4916 66.2788 26.8855 67.478 25.26L69.6584 22.3043H74.3424C76.9185 22.3043 79.0263 22.3207 79.0263 22.3407C79.0263 22.3607 77.5493 24.3881 75.7442 26.8459C73.7709 29.5325 72.4171 31.4801 72.3493 31.7295C72.1204 32.5722 72.5326 33.3192 73.3543 33.5508C73.9108 33.7076 79.4278 33.701 80.1556 33.5427C80.7922 33.4042 81.3098 33.0237 81.6046 32.4775C81.7808 32.151 81.7986 31.5668 81.7986 26.0921V20.0661L81.5306 19.5918C81.3759 19.3179 81.0652 19.0027 80.7951 18.8458L80.3276 18.574L75.0094 18.5166L69.6911 18.4592L69.7002 17.4828C69.7118 16.2464 69.7814 15.9764 70.2188 15.4711C70.9399 14.638 70.6837 14.6703 76.4803 14.6808C81.3505 14.6897 81.7582 14.7061 82.817 14.9359C84.9108 15.3903 86.0688 16.0092 87.2769 17.3192C88.0248 18.1302 88.7307 19.4658 89.032 20.64C89.3519 21.8868 89.4675 23.9298 89.3989 27.1251C89.3304 30.3157 89.247 30.9705 88.722 32.4376C87.8787 34.7943 86.0114 36.4318 83.3827 37.1198C81.9191 37.5029 75.9398 37.6843 72.52 37.4495Z" fill="white"/>
</g>
<g clip-path="url(#clip1_189_491)">
<path d="M15.4195 76.2553H3.31242V66.7418H0.217773V89.958H3.31242V79.012H15.4195V89.958H18.5142V66.7418H15.4195V76.2553Z" fill="#E21A1A"/>
<path d="M26.4953 85.1201V66.7418H23.6992V89.958H26.7939L39.1996 71.6066V89.958H41.9956V66.7418H38.901L26.4953 85.1201Z" fill="#E21A1A"/>
<path d="M49.8947 85.1201V66.7418H47.0986V89.958H50.1933L62.6261 71.6066V89.958H65.4222V66.7418H62.3275L49.8947 85.1201Z" fill="#E21A1A"/>
<path d="M76.8781 66.7418L67.9199 89.958H71.2046L73.7563 82.9309H83.5017L86.2163 89.958H89.7182L80.1899 66.7418H76.8781ZM74.6521 80.4174L77.2039 73.6066C77.7468 72.1472 78.154 70.6607 78.4526 69.1742C78.8055 70.4174 79.3755 72.0391 80.1085 73.985L82.5516 80.4174H74.6521Z" fill="#E21A1A"/>
<path d="M108.123 81.7958C107.689 83.7418 106.875 85.2283 105.68 86.2012C104.486 87.1742 103.02 87.6877 101.283 87.6877C99.871 87.6877 98.5409 87.3364 97.3193 86.6066C96.0978 85.8769 95.2019 84.7688 94.6319 83.3093C94.0618 81.8499 93.7632 80.1202 93.7632 78.1472C93.7632 76.6066 94.0075 75.1202 94.4961 73.6877C94.9848 72.2553 95.8263 71.0931 97.0207 70.2553C98.2151 69.4175 99.7353 68.985 101.527 68.985C103.074 68.985 104.377 69.3634 105.409 70.1472C106.44 70.931 107.228 72.1472 107.771 73.8499L110.811 73.1472C110.187 71.0121 109.074 69.3364 107.499 68.1472C105.925 66.958 103.943 66.3634 101.608 66.3634C99.5453 66.3634 97.6722 66.8229 95.962 67.7688C94.2518 68.7148 92.9217 70.0661 91.9987 71.8769C91.0757 73.6877 90.6143 75.7958 90.6143 78.2012C90.6143 80.4175 91.0214 82.4985 91.8358 84.4175C92.6502 86.3364 93.8446 87.8229 95.4191 88.8499C96.9936 89.8769 99.0295 90.3904 101.554 90.3904C104.079 90.3904 106.033 89.7148 107.716 88.3904C109.399 87.0661 110.567 85.1472 111.218 82.6066L108.123 81.8229V81.7958Z" fill="#E21A1A"/>
</g>
<defs>
<clipPath id="clip0_189_491">
<rect width="67.5599" height="30.4682" fill="white" transform="translate(21.8584 14.6776)"/>
</clipPath>
<clipPath id="clip1_189_491">
<rect width="111" height="24" fill="white" transform="translate(0.217773 66.3364)"/>
</clipPath>
</defs>
</svg>
