<svg width="24" height="24" viewBox="0 0 24 24" fill="none" xmlns="http://www.w3.org/2000/svg">
<path d="M6.29964 9.5407C8.19276 13.0956 10.847 15.7505 14.3774 17.6333C14.9786 16.8929 15.5798 16.1526 16.1746 15.4123C16.7757 14.6656 17.5176 14.5698 18.3363 14.9719C19.9096 15.7569 21.4766 16.5483 23.0307 17.3716C24.0476 17.9077 24.2779 18.865 23.6575 19.8606C23.2354 20.5435 22.7557 21.2009 22.3592 21.8965C21.0417 24.2069 20.3893 24.1814 17.831 23.8176C14.5948 23.3517 11.7999 21.8136 9.25444 19.8415C5.48099 16.9121 2.47503 13.3572 0.86332 8.80675C0.377249 7.42821 0.255731 5.91564 0.0254872 4.46051C-0.121613 3.50319 0.383645 2.78839 1.13833 2.27143C2.12327 1.59493 3.1146 0.937564 4.12511 0.305731C5.05888 -0.275044 6.02463 -0.0133764 6.54907 0.963093C7.3869 2.5331 8.19915 4.12226 8.99222 5.71779C9.42073 6.573 9.21606 7.26227 8.40381 7.91964C7.73227 8.46212 7.03514 8.97907 6.29964 9.54708V9.5407Z" fill="#059B84"/>
</svg>
