<svg width="24" height="27" viewBox="0 0 24 27" fill="none" xmlns="http://www.w3.org/2000/svg">
<g clip-path="url(#clip0_161_286)">
<path d="M0.760094 26.2856C0.973644 25.4048 1.17198 24.5824 1.37241 23.7606C1.68985 22.46 2.01306 21.161 2.31896 19.8577C2.34834 19.7326 2.31424 19.5528 2.24183 19.4476C0.727038 17.251 -0.0636744 14.8108 0.00401106 12.1248C0.112623 7.80259 1.95167 4.41012 5.45138 1.99782C7.59895 0.517909 10.0089 -0.118179 12.5898 0.0176274C18.023 0.304269 22.5275 4.21634 23.7133 9.63731C25.1709 16.3009 20.913 23 14.3706 24.3189C12.0678 24.7832 9.8142 24.5846 7.61889 23.7203C7.49768 23.6726 7.32663 23.6758 7.2049 23.7236C5.15178 24.5336 3.10285 25.3543 1.05287 26.1729C0.97207 26.2051 0.890743 26.2352 0.760094 26.2856ZM1.51618 25.4015C1.61639 25.3667 1.68146 25.3468 1.74389 25.3221C3.49217 24.6237 5.2436 23.934 6.98506 23.2179C7.2941 23.0907 7.54595 23.1009 7.84923 23.2206C10.3342 24.2024 12.8648 24.3087 15.4011 23.4885C21.6308 21.4739 24.9248 14.7722 22.8324 8.42901C21.0904 3.14814 15.6845 -0.205137 10.3058 0.660693C8.07484 1.0198 6.0915 1.93609 4.40566 3.4788C2.00152 5.67907 0.695032 8.44189 0.533951 11.7367C0.397006 14.5355 1.17618 17.0707 2.81427 19.3209C2.92026 19.4669 2.93705 19.5893 2.89402 19.7621C2.43334 21.6242 1.98211 23.4885 1.51618 25.4021V25.4015Z" fill="#059B84"/>
<path d="M21.6801 10.5563C20.7157 4.82292 15.0941 1.10785 9.57226 2.5534C2.55239 4.39189 -0.201726 13.1012 4.44758 18.7734C4.58873 18.9451 4.61863 19.089 4.55777 19.3005C4.23561 20.4224 3.92709 21.5485 3.5981 22.73C3.734 22.679 3.82267 22.6479 3.90977 22.6124C4.98277 22.1825 6.05734 21.7552 7.12772 21.3177C7.30192 21.2463 7.44043 21.2463 7.61516 21.3344C9.60165 22.3376 11.6905 22.643 13.8632 22.2034C19.1757 21.1282 22.5988 16.0165 21.6801 10.5568V10.5563ZM18.0162 16.7336C17.5366 17.4454 17.0077 18.1453 16.1047 18.2291C15.5349 18.2817 14.9325 18.1899 14.369 18.0562C12.7613 17.6756 11.4297 16.7577 10.2087 15.6632C8.84451 14.4405 7.75682 13.0062 7.22269 11.2096C7.02907 10.559 6.96559 9.86331 6.88741 9.18321C6.81972 8.59704 7.06948 8.10052 7.44778 7.67431C7.61201 7.48966 7.79985 7.32755 7.97667 7.15471C8.23062 6.90618 8.51291 6.75427 8.76109 6.84874C9.14726 6.88578 9.48044 6.8219 9.66776 6.96254C9.85192 7.10049 9.88918 7.44511 9.98782 7.70008C10.2318 8.33133 10.4669 8.96581 10.7203 9.59331C10.853 9.92182 10.863 10.2026 10.5875 10.4693C10.3404 10.7087 10.1353 10.9932 9.8876 11.2316C9.71446 11.3985 9.69032 11.5375 9.81939 11.7404C10.3619 12.5923 10.9863 13.3749 11.7361 14.0406C12.223 14.4732 12.754 14.8538 13.2656 15.258C13.445 15.3997 13.5825 15.3594 13.7404 15.1946C14.0154 14.908 14.3218 14.6525 14.6056 14.3744C14.7657 14.2177 14.9498 14.1876 15.1382 14.2601C16.0454 14.6074 16.9489 14.9638 17.8509 15.3261C17.9044 15.3476 17.9558 15.4432 17.9621 15.5092C17.9967 15.8742 18.0183 16.2403 18.0413 16.6064C18.044 16.6488 18.0398 16.7014 18.0172 16.7347L18.0162 16.7336Z" fill="#059B84"/>
</g>
<defs>
<clipPath id="clip0_161_286">
<rect width="24" height="26.2857" fill="white"/>
</clipPath>
</defs>
</svg>
