<svg width="133" height="60" viewBox="0 0 133 60" fill="none" xmlns="http://www.w3.org/2000/svg">
<g clip-path="url(#clip0_189_342)">
<path fill-rule="evenodd" clip-rule="evenodd" d="M7.36795 40.619V22.1884H3.68397H0L0.0849822 19.8895C0.160376 17.8499 0.236614 17.4897 0.760742 16.6966C1.11504 16.1604 1.74044 15.6141 2.32315 15.3316C3.29037 14.8627 3.3813 14.8606 22.3504 14.8644C42.9447 14.8686 43.137 14.8785 45.463 16.0589C46.0769 16.3703 47.1903 17.1919 47.9374 17.8845C49.3406 19.1854 54.2554 25.5484 55.1021 27.1603C55.7597 28.4121 55.765 30.6112 55.1136 31.8478C54.6304 32.7651 51.6017 36.9412 47.9823 41.6808L45.9105 44.394H36.8396C31.8506 44.394 27.7687 44.318 27.7687 44.2251C27.7687 44.1323 30.1794 40.8098 33.1258 36.8418C41.402 25.6961 40.7042 26.745 40.8092 25.2921C40.8923 24.1412 40.8415 23.9604 40.2484 23.2957C39.6221 22.5938 39.5091 22.5578 37.3967 22.3874C36.187 22.2898 32.2784 22.2051 28.7111 22.1992L22.225 22.1884L22.2225 39.7863C22.2212 49.4652 22.1583 57.7589 22.0827 58.2169L21.9452 59.0497H14.6566H7.36795L7.36795 40.619Z" fill="#E21A1A"/>
<path fill-rule="evenodd" clip-rule="evenodd" d="M50.1007 43.725C50.3334 43.357 55.2576 36.7156 61.0435 28.9661L71.5633 14.8762L80.7104 14.8684C85.7413 14.8641 89.8575 14.9195 89.8575 14.9915C89.8575 15.14 81.7672 26.0632 73.5366 37.0275L68.0154 44.3824L58.8466 44.3882L49.6777 44.394L50.1007 43.725Z" fill="#E21A1A"/>
<path fill-rule="evenodd" clip-rule="evenodd" d="M99.2819 44.1604C95.3632 43.8947 93.7517 43.1582 91.1358 40.4375C89.5215 38.7586 85.5036 33.4422 84.7393 31.9736C83.9757 30.5067 83.9214 28.93 84.5845 27.483C84.8836 26.8304 87.0511 23.7234 89.4012 20.5785L93.6741 14.8606H102.853C107.902 14.8606 112.032 14.8922 112.032 14.931C112.032 14.9697 109.138 18.8917 105.6 23.6466C101.733 28.8442 99.0803 32.612 98.9475 33.0946C98.4989 34.7248 99.3067 36.17 100.917 36.6179C102.007 36.9212 112.819 36.9085 114.245 36.6022C115.493 36.3343 116.507 35.5982 117.085 34.5416C117.43 33.9099 117.465 32.7797 117.465 22.1884V10.5305L116.94 9.61293C116.637 9.08297 116.028 8.47325 115.499 8.16957L114.582 7.64376L104.16 7.53273L93.7383 7.4217L93.7561 5.53269C93.7787 3.14088 93.9151 2.61854 94.7722 1.64099C96.1854 0.0292417 95.6833 0.091791 107.043 0.112126C116.587 0.12921 117.386 0.160956 119.461 0.605524C123.564 1.48472 125.834 2.68195 128.201 5.2163C129.667 6.78524 131.05 9.36913 131.64 11.6408C132.267 14.0527 132.494 18.0052 132.36 24.1869C132.225 30.3593 132.062 31.6261 131.033 34.4645C129.38 39.0236 125.721 42.1915 120.57 43.5226C117.701 44.2637 105.984 44.6148 99.2819 44.1604Z" fill="#E21A1A"/>
</g>
<defs>
<clipPath id="clip0_189_342">
<rect width="132.397" height="58.9438" fill="white" transform="translate(0 0.105896)"/>
</clipPath>
</defs>
</svg>
