<svg width="23" height="19" viewBox="0 0 23 19" fill="none" xmlns="http://www.w3.org/2000/svg">
<path d="M1.3862 8.14191C1.3862 8.14191 11.3862 4.03791 14.8544 2.59279C16.1839 2.01479 20.6925 0.165032 20.6925 0.165032C20.6925 0.165032 22.7735 -0.644167 22.6 1.32111C22.5422 2.13039 22.0798 4.96271 21.6174 8.02631C20.9237 12.3616 20.1723 17.1014 20.1723 17.1014C20.1723 17.1014 20.0567 18.4309 19.074 18.6621C18.0914 18.8933 16.4728 17.853 16.1839 17.6217C15.9526 17.4483 11.8486 14.8471 10.3457 13.5754C9.94108 13.2286 9.47868 12.535 10.4035 11.7258C12.4844 9.81823 14.97 7.44831 16.4728 5.94543C17.1665 5.25175 17.8601 3.63327 14.97 5.59855C10.866 8.43095 6.81972 11.0899 6.81972 11.0899C6.81972 11.0899 5.89484 11.6679 4.16076 11.1477C2.4266 10.6275 0.40348 9.93383 0.40348 9.93383C0.40348 9.93383 -0.983721 9.06679 1.3862 8.14191Z" fill="#059B84"/>
</svg>
