<svg width="87" height="87" viewBox="0 0 87 87" fill="none" xmlns="http://www.w3.org/2000/svg">
<path fill-rule="evenodd" clip-rule="evenodd" d="M59.2801 4.576C54.1123 2.37862 48.7032 1.27983 43.0528 1.27983C37.403 1.27983 31.9938 2.37862 26.8252 4.576C21.8273 6.6936 17.4014 9.6846 13.5482 13.548C9.68399 17.401 6.69384 21.827 4.57621 26.8248C2.37868 31.9934 1.27991 37.4025 1.27991 43.0519C1.27991 48.7024 2.37868 54.1116 4.57621 59.2793C6.69384 64.2771 9.67925 68.7085 13.5332 72.5719C17.3967 76.425 21.8273 79.4111 26.8252 81.528C31.9938 83.7262 37.403 84.825 43.0528 84.825C48.7032 84.825 54.1123 83.7262 59.2801 81.528C64.278 79.4111 68.7095 76.425 72.5722 72.5719C76.4261 68.7085 79.4125 64.2771 81.5293 59.2793C83.7275 54.1116 84.8263 48.7024 84.8263 43.0519C84.8263 37.4025 83.7275 31.9934 81.5293 26.8248C79.4125 21.827 76.4261 17.401 72.5722 13.548C68.7095 9.6846 64.278 6.6936 59.2801 4.576ZM82.719 26.3129C84.9766 31.6515 86.1054 37.2315 86.1054 43.0519C86.1054 48.8732 84.9766 54.4477 82.719 59.776C80.5309 64.9241 77.4498 69.4908 73.4755 73.4752C69.4918 77.4486 64.925 80.5297 59.7771 82.7177C54.4485 84.9753 48.8741 86.1049 43.0528 86.1049C37.2321 86.1049 31.6522 84.9753 26.3135 82.7177C21.1653 80.5297 16.6041 77.4486 12.6299 73.4752C8.65563 69.5011 5.5745 64.9399 3.38727 59.791C1.12882 54.4524 0 48.8732 0 43.0519C0 37.2315 1.12882 31.6572 3.38727 26.3279C5.5745 21.18 8.65563 16.6141 12.6299 12.6296C16.6136 8.65546 21.1803 5.57436 26.3285 3.3871C31.6577 1.12876 37.2321 0 43.0528 0C48.8741 0 54.4534 1.12876 59.7921 3.3871C64.941 5.57436 69.5013 8.65546 73.4755 12.6296C77.4498 16.6038 80.5309 21.1648 82.719 26.3129Z" fill="#488A77"/>
<path fill-rule="evenodd" clip-rule="evenodd" d="M43.0527 6.86646e-05C37.232 6.86646e-05 31.6572 1.12935 26.328 3.38768C21.1798 5.57495 16.6128 8.65677 12.629 12.6309C8.65483 16.6154 5.57289 21.1788 3.38567 26.3267C1.12722 31.656 0.000976562 37.2308 0.000976562 43.0512C0.000976562 48.8724 1.12722 54.4518 3.38567 59.7905C5.57289 64.9394 8.65483 69.5002 12.629 73.4744C16.6033 77.4477 21.165 80.5296 26.3132 82.7176C31.6519 84.9752 37.232 86.1052 43.0527 86.1052C48.874 86.1052 54.4488 84.9752 59.7774 82.7176C64.9253 80.5296 69.4926 77.4477 73.4763 73.4744C77.4506 69.4899 80.5316 64.9237 82.7197 59.7756C84.9773 54.4473 86.1044 48.8724 86.1044 43.0512C86.1044 37.2308 84.9773 31.6505 82.7197 26.3119C80.5316 21.1638 77.4506 16.6051 73.4763 12.6309C69.5021 8.65677 64.9412 5.57495 59.7922 3.38768C54.4535 1.12935 48.874 6.86646e-05 43.0527 6.86646e-05Z" fill="white"/>
<path fill-rule="evenodd" clip-rule="evenodd" d="M57.8203 78.8198C57.8606 78.8 57.9009 78.7494 57.9412 78.6695C57.9611 78.5888 57.9562 78.5137 57.9254 78.4433C57.8963 78.3634 57.8456 78.3033 57.7752 78.2629C57.7047 78.2329 57.6399 78.2226 57.5798 78.2329C57.4896 78.2527 57.3544 78.3033 57.1731 78.3832L56.8125 78.5184L57.068 79.1362L57.8203 78.8198ZM56.2556 77.1191L56.6614 78.1427L56.7515 78.0976C56.9026 78.047 57.003 77.9766 57.0528 77.8864C57.113 77.8065 57.1628 77.6261 57.2033 77.3445L57.3544 76.6674L57.9254 76.4412L57.715 77.5399C57.6652 77.661 57.6051 77.7614 57.5346 77.8413C57.7752 77.7915 57.9657 77.8065 58.1067 77.8864C58.2673 77.9671 58.3778 78.0921 58.438 78.2629C58.4981 78.4132 58.5131 78.5588 58.4831 78.6996C58.4532 78.8602 58.3874 78.9757 58.2869 79.046C58.1968 79.126 58.0212 79.2217 57.7602 79.3316L56.7365 79.7532L55.7588 77.3145L56.2556 77.1191ZM60.907 74.9208L62.1408 77.2243L61.7042 77.4648L60.892 75.9143L60.7709 77.9616L60.3041 78.2028L59.0852 75.8993L59.5218 75.6588L60.3191 77.1792L60.4552 75.1621L60.907 74.9208ZM71.9554 69.276L71.5947 69.6525L70.0133 68.1772L69.5016 68.7191L71.083 70.2094L70.7215 70.601L69.1409 69.1106L68.614 69.6826L70.1946 71.1729L69.8331 71.5644L68.2525 70.0741L68.0873 70.2394L67.3641 69.5473L67.6507 69.2309L68.0723 69.6225L70.0443 67.4851L71.9554 69.276ZM66.7021 70.8264L68.3427 72.8586L66.8524 74.0784L66.5669 73.7319L67.6657 72.8435L67.3042 72.3919L66.2805 73.2201L66.01 72.8736L67.0185 72.0462L66.5818 71.4893L65.4531 72.4219L65.1667 72.0763L66.7021 70.8264ZM63.5412 73.2501L63.9778 72.9487L65.4071 75.147L64.9563 75.4476L64.3994 74.5751L63.5412 75.147L64.0981 76.0045L63.6613 76.2909L62.2312 74.0934L62.6828 73.807L63.2998 74.7705L64.158 74.1986L63.5412 73.2501ZM71.8503 66.0248C71.8201 66.0952 71.81 66.1648 71.8201 66.2352C71.8304 66.3056 71.8707 66.3658 71.9404 66.4164C72.0512 66.4963 72.147 66.516 72.2268 66.4765C72.3272 66.4464 72.4428 66.3507 72.5724 66.1901L72.8889 65.7685L72.347 65.3327L71.8503 66.0248ZM73.2354 66.0248L72.8138 66.5967C72.7039 66.7368 72.5828 66.8475 72.4521 66.9282C72.3422 66.9978 72.2071 67.0334 72.0465 67.0334C71.8859 67.0128 71.7403 66.9527 71.6097 66.8522C71.4793 66.7526 71.389 66.6213 71.3383 66.4615C71.298 66.3207 71.2934 66.1854 71.3234 66.0549C71.344 65.9647 71.4287 65.8191 71.5797 65.6182L72.3321 64.6397L74.3792 66.2653L73.1903 67.8007L72.8438 67.5302L73.7172 66.4006L73.2354 66.0248ZM74.0937 63.1944C74.1538 63.3953 74.3087 63.5758 74.5604 63.7363C74.8207 63.8874 75.0469 63.9476 75.2374 63.9176C75.4282 63.8874 75.5831 63.7815 75.7042 63.6011C75.8047 63.4105 75.8348 63.2198 75.7943 63.0292C75.7342 62.8283 75.5785 62.6525 75.3278 62.5023C75.0768 62.3417 74.8506 62.2815 74.6506 62.3212C74.4497 62.3512 74.2937 62.4573 74.1838 62.6376C74.073 62.7981 74.043 62.984 74.0937 63.1944ZM76.2911 63.2997C76.2611 63.4903 76.1906 63.6659 76.0807 63.8265C75.8901 64.1476 75.6291 64.3485 75.2976 64.4285C74.9663 64.4895 74.6253 64.4087 74.2741 64.1881C73.9228 63.9674 73.702 63.6969 73.6119 63.3757C73.5414 63.0545 73.6016 62.7279 73.7923 62.3972C74.0027 62.0657 74.2684 61.8648 74.5904 61.7943C74.9211 61.7342 75.2573 61.815 75.5991 62.0357C75.8292 62.1756 75.9954 62.3267 76.0959 62.4873C76.186 62.6076 76.2461 62.738 76.2761 62.8789C76.3063 63.049 76.3109 63.1898 76.2911 63.2997ZM11.245 60.7557L8.92722 61.9454L8.53566 61.1773C8.38537 60.8561 8.30467 60.6656 8.29439 60.6054C8.25484 60.475 8.26986 60.3245 8.34028 60.1538C8.40988 60.0034 8.54041 59.8833 8.73105 59.7922C8.88215 59.7124 9.01187 59.6767 9.12262 59.6871C9.27293 59.6871 9.38366 59.7124 9.45407 59.7622C9.55453 59.8025 9.63442 59.8626 9.69455 59.9434L10.1312 60.7257L11.0045 60.2739L11.245 60.7557ZM9.60437 60.6656C9.51419 60.475 9.43904 60.3594 9.37892 60.3191C9.31879 60.2693 9.25314 60.2393 9.18275 60.229C9.11234 60.2091 9.04747 60.2241 8.98735 60.2739C8.90667 60.3041 8.84655 60.365 8.80621 60.4552C8.77613 60.5256 8.77613 60.6054 8.80621 60.6955C8.82676 60.7858 8.8766 60.9013 8.9573 61.042L9.07753 61.2676L9.73965 60.9369L9.60437 60.6656ZM22.1441 72.9646L20.8792 74.7254L21.4961 75.1771L21.2407 75.5386L19.57 74.3188L19.8255 73.9573L20.4424 74.409L21.7225 72.6482L22.1441 72.9646ZM16.8448 72.0612L17.1312 71.7298L18.1999 72.6482L18.5764 72.2115L17.5829 71.3532L17.8684 71.0226L18.862 71.8801L19.3287 71.3382L18.2299 70.3747L18.5163 70.0441L20.0066 71.3532L18.3051 73.3253L16.8448 72.0612ZM15.5206 70.1192L16.0625 69.6225L15.8663 69.4112C15.716 69.2412 15.6108 69.1455 15.5507 69.1257C15.4803 69.0956 15.4154 69.0853 15.3545 69.0956C15.2849 69.1059 15.2192 69.1352 15.1591 69.1858C15.0887 69.276 15.0539 69.3511 15.0539 69.4112C15.0436 69.5022 15.0634 69.5821 15.114 69.6525C15.1741 69.7427 15.254 69.8384 15.3545 69.9381L15.5206 70.1192ZM15.7611 68.689C15.8513 68.7492 15.9818 68.8749 16.1526 69.0656L16.3939 69.3211L17.1011 68.6439L17.4626 69.0355L15.5657 70.8114L14.9938 70.1944C14.7525 69.9436 14.6172 69.783 14.5872 69.7126C14.5168 69.5821 14.497 69.4318 14.5271 69.2609C14.5366 69.1106 14.622 68.9548 14.7826 68.7942C14.9131 68.6843 15.0333 68.6139 15.1441 68.5838C15.254 68.5538 15.3648 68.5482 15.4755 68.5688C15.6155 68.6091 15.7112 68.6487 15.7611 68.689ZM13.172 65.2418C13.3025 65.1413 13.4528 65.0812 13.6237 65.0613C13.7843 65.0613 13.9148 65.0913 14.0152 65.1515C14.1252 65.2116 14.2462 65.3327 14.376 65.5129L15.129 66.4765L13.0818 68.087L11.8778 66.5517L12.2235 66.2803L13.0968 67.4099L13.5786 67.0334L13.1419 66.4765C13.0312 66.3357 12.9513 66.1901 12.9014 66.0399C12.8508 65.9196 12.8508 65.7788 12.9014 65.6182C12.941 65.4775 13.0312 65.3525 13.172 65.2418ZM13.3832 65.9346C13.403 66.0549 13.4734 66.1901 13.5936 66.3404L13.9251 66.7621L14.4669 66.3404L13.9251 65.6634C13.8444 65.6229 13.7795 65.6032 13.7289 65.6032C13.6387 65.6032 13.5683 65.6286 13.5185 65.6784C13.4283 65.729 13.3832 65.8136 13.3832 65.9346ZM12.4197 62.9541C12.5494 62.9737 12.6649 63.0545 12.7654 63.1944L12.9315 63.511L12.6001 63.7214L12.4948 63.5409C12.4347 63.4405 12.3691 63.3803 12.2987 63.3607C12.2488 63.34 12.1436 63.3447 11.983 63.3757L10.8993 65.1966L10.5829 64.6999L11.4111 63.4508L9.99594 63.7363L9.69455 63.2696L11.847 62.9541C12.078 62.9239 12.2686 62.9239 12.4197 62.9541ZM24.8535 75.2072L23.6044 74.4842L23.8148 74.0934L25.5304 75.0869L24.2364 77.3596L22.5657 76.3961L22.7761 76.0045L23.9958 76.7125L24.2814 76.2157L23.1526 75.5536L23.363 75.1771L24.507 75.8242L24.8535 75.2072ZM28.7675 76.7275L27.6687 79.0911L25.7868 78.2178L26.8856 75.8392L27.3674 76.0654L26.4488 78.0375L27.3674 78.4733L28.2858 76.5013L28.7675 76.7275ZM7.49701 57.9263L9.52922 57.143L9.70957 57.6399L7.28582 58.5733L6.65377 56.9176L7.06036 56.7665L7.49701 57.9263ZM5.78124 53.5755C5.86113 53.4149 5.99641 53.2845 6.18705 53.184L6.44334 53.6506C6.33259 53.7107 6.24241 53.8017 6.17202 53.9219C6.13166 54.0319 6.12692 54.1577 6.15698 54.2986C6.2076 54.4987 6.31283 54.6348 6.4734 54.7042C6.64427 54.7953 6.88001 54.7953 7.18059 54.7042C7.50177 54.6141 7.71297 54.4987 7.81343 54.3585C7.91311 54.2075 7.93842 54.0376 7.88858 53.8468C7.85853 53.7164 7.78259 53.6111 7.66234 53.5305C7.56188 53.46 7.41159 53.4252 7.21067 53.4252L7.22569 52.8985C7.5168 52.8985 7.75807 52.9679 7.94871 53.1089C8.11877 53.2393 8.24455 53.445 8.32446 53.7257C8.41543 54.0572 8.37509 54.3634 8.20421 54.6443C8.03335 54.9154 7.74778 55.1108 7.34671 55.2311C6.92509 55.3419 6.57386 55.3166 6.29225 55.156C6.00115 55.0057 5.81051 54.7548 5.72033 54.4037C5.63015 54.1024 5.65071 53.8264 5.78124 53.5755ZM6.6237 49.8577L7.27077 49.3759L7.37678 49.9929L6.60867 50.5348L6.39826 50.7452C6.37769 50.8155 6.37295 50.886 6.38322 50.9565L7.51206 50.7452L7.60224 51.272L5.04318 51.7237L4.95301 51.2118L6.03675 51.0166C6.0067 50.8963 5.9616 50.8212 5.90147 50.791C5.85085 50.761 5.71083 50.7207 5.47985 50.6701C5.16896 50.61 4.97753 50.5348 4.90793 50.4445C4.82723 50.3441 4.76237 50.1732 4.71174 49.9328L4.69671 49.8577L5.07326 49.7967L5.08828 49.8727C5.09857 49.9731 5.12309 50.0482 5.16343 50.098C5.21406 50.1487 5.2639 50.1788 5.31373 50.1892C5.35407 50.2088 5.46956 50.2341 5.6602 50.2643L5.90147 50.3394C5.9616 50.3489 6.03201 50.4042 6.1119 50.5047C6.1119 50.3939 6.15698 50.2839 6.24717 50.1732C6.34764 50.0735 6.4734 49.9676 6.6237 49.8577ZM6.83491 46.4704L5.14841 46.6808L6.97019 47.524L7.03029 48.0509L4.44121 48.3674L4.38108 47.8857L6.1119 47.6753L4.26006 46.8318L4.19994 46.3051L6.774 45.9886L6.83491 46.4704ZM4.10976 43.9715L5.84137 43.9415L4.09474 42.9178L4.07969 42.3911L6.68382 42.3459V42.8427L4.9981 42.8729L6.71387 43.8963V44.4232L4.10976 44.4684V43.9715ZM3.95946 43.4297C3.97923 43.58 3.93968 43.7104 3.83921 43.8212C3.76882 43.9012 3.64304 43.9613 3.46269 44.0016L3.44764 43.7461C3.53784 43.7461 3.60349 43.7161 3.64304 43.6559C3.68338 43.6157 3.70317 43.5405 3.70317 43.4297C3.70317 43.3593 3.68338 43.2841 3.64304 43.2042C3.59321 43.1535 3.52755 43.1282 3.44764 43.1282L3.43262 42.8878C3.59321 42.8878 3.72372 42.9377 3.82419 43.0381C3.91436 43.1489 3.95946 43.2795 3.95946 43.4297ZM7.24072 36.7313L4.68169 36.2194L5.02816 34.4877L5.4498 34.5631L5.22356 35.7828L7.34671 36.2044L7.24072 36.7313ZM7.31587 31.0255C7.71773 31.1259 8.00407 31.3268 8.17416 31.6282C8.34501 31.9194 8.37509 32.2452 8.26434 32.6067C8.14409 32.988 7.94318 33.2539 7.66234 33.4041C7.36176 33.5647 7.01527 33.5846 6.6237 33.4643C6.35317 33.3843 6.15224 33.2838 6.02172 33.1636C5.93154 33.083 5.84137 32.973 5.75038 32.8323C5.67049 32.6913 5.62539 32.5617 5.61513 32.4406C5.59534 32.2904 5.61513 32.0996 5.67523 31.8687C5.77569 31.5073 5.97188 31.2414 6.2622 31.0713C6.56359 30.9202 6.9148 30.9052 7.31587 31.0255ZM6.45837 31.5522C6.27723 31.6227 6.15698 31.7683 6.09687 31.989C6.03675 32.1899 6.06206 32.3805 6.17202 32.5617C6.27249 32.7215 6.46787 32.8472 6.75897 32.9374C7.06036 33.0182 7.29608 33.0125 7.46696 32.9224C7.64731 32.8323 7.76756 32.6867 7.82848 32.4858C7.88858 32.2855 7.86327 32.0996 7.75254 31.9289C7.65207 31.7683 7.45193 31.6377 7.15054 31.5372C6.85944 31.4575 6.62846 31.4621 6.45837 31.5522ZM14.2557 19.1188L13.2772 18.7873L13.8191 19.6757L14.2557 19.1188ZM12.9916 18.1703L15.6709 19.0135L15.3094 19.4653L14.7074 19.2541L14.0453 20.0823L14.376 20.6242L14.0303 21.0608L12.6451 18.6071L12.9916 18.1703ZM16.0625 15.6714C15.962 15.6714 15.8869 15.6967 15.8362 15.7467C15.7967 15.7672 15.701 15.8518 15.5507 16.0029L15.3853 16.1833L15.9122 16.71L16.1076 16.4996C16.2579 16.3486 16.348 16.2386 16.3781 16.1683C16.3987 16.078 16.4034 16.0077 16.3939 15.9579C16.3734 15.8771 16.3385 15.817 16.2879 15.7767C16.2278 15.7062 16.1526 15.6714 16.0625 15.6714ZM16.8148 16.3486C16.7752 16.4294 16.6597 16.5693 16.4691 16.7702L16.2278 17.0116L16.9358 17.7037L16.5743 18.0802L14.6924 16.2584L15.2793 15.6564C15.4905 15.4357 15.6456 15.2903 15.7461 15.2198C15.8869 15.1493 16.0372 15.1193 16.1977 15.1297C16.348 15.1493 16.5039 15.2301 16.6645 15.37C16.7752 15.5007 16.8503 15.6161 16.8899 15.7165C16.9208 15.8471 16.9303 15.9626 16.9208 16.063C16.9002 16.173 16.8654 16.2688 16.8148 16.3486ZM8.17416 27.3377L8.08398 27.8644C7.94318 27.8448 7.82293 27.8644 7.72246 27.9245C7.60224 27.995 7.52233 28.0908 7.48199 28.2109C7.40131 28.4017 7.40684 28.5726 7.49701 28.7228C7.59748 28.9031 7.78259 29.044 8.05391 29.1444C8.34501 29.2749 8.58549 29.3097 8.77613 29.2495C8.93672 29.1894 9.05776 29.074 9.13765 28.9031C9.19778 28.783 9.2033 28.6524 9.15268 28.5124C9.11234 28.3913 9.00713 28.271 8.83705 28.1507L9.18275 27.7443C9.41373 27.915 9.55927 28.1153 9.6194 28.3462C9.67952 28.5669 9.65974 28.8083 9.55927 29.0693C9.41847 29.3905 9.2033 29.611 8.9122 29.7313C8.60054 29.8413 8.2596 29.8214 7.88858 29.6712C7.47725 29.5004 7.20591 29.2694 7.07539 28.9782C6.94487 28.6777 6.94487 28.3565 7.07539 28.0149C7.19564 27.7245 7.38152 27.5179 7.63229 27.3978C7.78259 27.3274 7.96373 27.3075 8.17416 27.3377ZM10.2214 25.7421L8.12906 25.7122L8.4004 25.2002L9.8749 25.2904L8.92722 24.1918L9.18275 23.71L10.5228 25.4256C10.643 25.5769 10.7435 25.7375 10.8242 25.9074C10.8637 26.0585 10.8487 26.1986 10.7783 26.329C10.7387 26.4295 10.6731 26.5348 10.5829 26.6455L10.2364 26.4643L10.3424 26.2841C10.4025 26.1836 10.4223 26.0933 10.4025 26.0135C10.3922 25.9526 10.3321 25.8624 10.2214 25.7421ZM21.9027 10.1618L22.1591 10.5235L21.5271 10.9751L22.7611 12.751L22.3395 13.0524L21.0905 11.2756L20.4582 11.7274L20.217 11.3667L21.9027 10.1618ZM11.1548 21.3915L10.7332 22.0393C11.4056 22.4806 11.8525 22.8573 12.0732 23.1681L12.6151 22.3399L11.1548 21.3915ZM10.1011 22.2348L11.0797 20.7144L12.9014 21.9041L13.0217 21.7078L13.8641 22.2497L13.6237 22.6262L13.1419 22.3099L12.2536 23.695L12.7353 24.0113L12.4948 24.372L11.6516 23.8303L11.7718 23.6349C11.6318 23.4142 11.4562 23.2133 11.245 23.0328C11.0148 22.8423 10.7087 22.6262 10.3266 22.385L10.1011 22.2348ZM18.1698 12.8719C18.4309 12.6607 18.6864 12.5706 18.9371 12.6006C19.0977 12.6006 19.2686 12.6664 19.4497 12.796L19.1333 13.2176C19.0226 13.1378 18.9071 13.0975 18.7868 13.0975C18.6563 13.1172 18.5408 13.1678 18.4404 13.2478C18.2901 13.3687 18.2149 13.5191 18.2149 13.6994C18.2046 13.8806 18.3003 14.0957 18.5013 14.3466C18.7117 14.5981 18.9071 14.738 19.0882 14.7682C19.2686 14.7982 19.4339 14.753 19.585 14.6329C19.695 14.5426 19.7551 14.4318 19.7654 14.3014C19.7859 14.1915 19.7551 14.0355 19.6752 13.8355L20.1569 13.6243C20.2875 13.8853 20.3278 14.1313 20.2772 14.3624C20.217 14.5924 20.0818 14.7982 19.8706 14.9794C19.6095 15.2095 19.3192 15.3004 18.998 15.2498C18.6864 15.2198 18.3905 15.0442 18.1097 14.723C17.8384 14.382 17.7078 14.0507 17.7181 13.7296C17.7482 13.3885 17.8993 13.1022 18.1698 12.8719ZM25.2599 9.93643C25.1801 9.95628 25.0394 10.0219 24.8383 10.1319L24.4626 10.3273L24.8083 10.9451L25.5462 10.5235C25.5963 10.4729 25.6309 10.4127 25.6515 10.3431C25.6619 10.2821 25.6515 10.2023 25.6216 10.1019C25.5614 10.0219 25.5108 9.97127 25.4703 9.95142C25.4205 9.92145 25.3502 9.91598 25.2599 9.93643ZM25.4855 9.21349C25.4855 9.33459 25.4458 9.44434 25.3652 9.54499C25.5361 9.51482 25.6815 9.52515 25.8018 9.57496C25.9324 9.64543 26.0329 9.7402 26.1031 9.86131C26.1633 9.97126 26.1935 10.0867 26.1935 10.207C26.203 10.3177 26.1831 10.4332 26.1333 10.5535C26.0732 10.6634 25.9877 10.7592 25.8769 10.8398L24.5519 11.5921L23.3029 9.3036L24.6279 8.58147C24.7283 8.55129 24.8233 8.54118 24.9134 8.5513C25.0242 8.57114 25.1192 8.60192 25.2 8.64161C25.2702 8.69224 25.3407 8.76737 25.4104 8.86781C25.4703 8.99822 25.4956 9.11304 25.4855 9.21349ZM24.8535 9.04804C24.7735 9.0284 24.6983 9.03306 24.6279 9.06322L23.9659 9.4247L24.2664 9.95142L24.8834 9.58994C24.9436 9.55997 24.9942 9.49983 25.0337 9.40971C25.044 9.33924 25.0337 9.26411 25.0037 9.18332C24.9539 9.12337 24.9041 9.07822 24.8535 9.04804ZM28.6924 7.10622L27.4124 7.69308L27.6385 8.21999L28.8277 7.67809L29.0079 8.08472L27.819 8.62643L28.1053 9.27363L29.4295 8.67159L29.6108 9.07822L27.804 9.89147L26.7504 7.49767L28.5112 6.71458L28.6924 7.10622ZM35.9027 4.53218L36.4898 7.09103L35.9778 7.21132L35.7223 6.09754L34.7138 6.32375L34.9693 7.43752L34.4574 7.55781L33.8705 5.01394L34.3823 4.89365L34.6085 5.88714L35.6172 5.66094L35.391 4.65227L35.9027 4.53218ZM32.1397 5.42037L32.9372 7.91928L32.4402 8.08472L32.0945 6.98593L31.116 7.30225L31.4617 8.40104L30.9649 8.56648L30.1527 6.06757L30.6494 5.90213L30.9649 6.88063L31.9587 6.56432L31.6429 5.58582L32.1397 5.42037ZM40.8554 3.97529L41.0359 6.5793L40.5089 6.62446L40.3287 4.00526L40.8554 3.97529ZM39.6056 5.90213C39.6056 5.79136 39.5606 5.7061 39.4703 5.64596C39.3603 5.59614 39.2092 5.57549 39.0187 5.58582L38.4918 5.63078L38.5369 6.32375L39.0487 6.27879C39.2092 6.27879 39.32 6.26299 39.3802 6.23282C39.4403 6.21297 39.4956 6.17268 39.5454 6.11253C39.596 6.04226 39.6159 5.9726 39.6056 5.90213ZM38.4468 5.19417L39.154 5.13403C39.3848 5.13403 39.5454 5.14922 39.6357 5.17918C39.7868 5.22981 39.9014 5.31526 39.9822 5.43555C40.0723 5.54552 40.1276 5.69091 40.1483 5.87215C40.1681 6.05238 40.1325 6.20831 40.0422 6.33893C39.9719 6.46934 39.8769 6.55946 39.7566 6.60928C39.6262 6.66942 39.4608 6.70506 39.2599 6.71458L38.0402 6.7897L37.8597 4.18569L38.3867 4.14053L38.4468 5.19417ZM43.098 6.50417L42.5713 6.48919L42.6162 3.86999L43.098 3.88498L43.068 5.61578L44.1517 3.90016H44.6794L44.6334 6.53415L44.1367 6.51916L44.1677 4.80354L43.098 6.50417ZM43.9714 3.23716L44.2118 3.25215C44.1922 3.41354 44.1367 3.53849 44.0466 3.62881C43.9366 3.72925 43.806 3.76955 43.6549 3.7497C43.5046 3.7497 43.3742 3.70393 43.2643 3.61382C43.1638 3.51318 43.1132 3.38276 43.1132 3.22298L43.3544 3.23716C43.3544 3.30763 43.3797 3.36777 43.4295 3.4184C43.5 3.46822 43.5751 3.49353 43.6549 3.49353C43.7553 3.49353 43.8307 3.47369 43.8813 3.43339C43.9311 3.38276 43.9611 3.31796 43.9714 3.23716ZM76.5017 58.8588C76.3014 58.9198 76.156 59.0401 76.0649 59.2203C75.9756 59.4212 75.9652 59.6119 76.0349 59.7922C76.1155 59.9932 76.2864 60.1585 76.5466 60.2891C76.8283 60.4298 77.0537 60.4701 77.2246 60.41C77.4247 60.3594 77.5711 60.2393 77.6613 60.0485C77.7712 59.8476 77.7862 59.6571 77.7064 59.4767C77.6256 59.2859 77.4555 59.1255 77.1945 58.9949C76.9334 58.8542 76.7026 58.809 76.5017 58.8588ZM77.4201 58.4981C77.6613 58.6184 77.8417 58.7537 77.9618 58.9048C78.0624 59.0447 78.1327 59.1753 78.173 59.2954C78.2127 59.4165 78.2331 59.5518 78.2331 59.702C78.2127 59.873 78.158 60.0534 78.0679 60.2439C77.8866 60.5951 77.6408 60.8158 77.3298 60.9067C77.0189 61.0167 76.6724 60.9717 76.2911 60.7709C75.9201 60.5801 75.6789 60.3245 75.5681 60.0034C75.4582 59.702 75.4883 59.3762 75.6591 59.0249C75.8395 58.6737 76.0855 58.453 76.3964 58.3629C76.7176 58.2521 77.0592 58.2973 77.4201 58.4981ZM77.5562 55.7429C77.5055 55.8838 77.511 56.0142 77.5711 56.1345C77.6209 56.2651 77.7317 56.3757 77.9018 56.466L77.5861 56.9026C77.3449 56.7515 77.1843 56.5665 77.1044 56.3449C77.0339 56.1345 77.0387 55.8885 77.1193 55.6076C77.2396 55.2864 77.4405 55.0507 77.7214 54.9004C78.0124 54.77 78.3534 54.7644 78.7451 54.8855C79.1667 55.0254 79.4522 55.2366 79.6033 55.5175C79.7639 55.8087 79.7884 56.1299 79.6784 56.481C79.5677 56.8022 79.3967 57.018 79.1667 57.128C79.0464 57.2088 78.8652 57.2483 78.6248 57.2483L78.6699 56.7064C78.8099 56.727 78.931 56.6969 79.0306 56.6163C79.1311 56.5561 79.207 56.4557 79.2568 56.3149C79.317 56.1242 79.2971 55.9541 79.1967 55.8038C79.1161 55.6528 78.9253 55.5223 78.6248 55.4124C78.3131 55.3221 78.0725 55.3071 77.9018 55.3672C77.7317 55.4369 77.6161 55.5626 77.5562 55.7429ZM81.5144 49.0294L79.7987 48.7131L81.3192 50.0681L81.2288 50.5798L78.6699 50.1282L78.7601 49.6465L80.4307 49.9478L78.9405 48.6078L79.0306 48.0809L81.5897 48.5327L81.5144 49.0294ZM81.7408 49.2256C81.8507 49.1552 81.9866 49.1252 82.1472 49.1347L82.1022 49.3759C82.0214 49.3552 81.9558 49.3712 81.906 49.4211C81.8562 49.4614 81.8206 49.531 81.8009 49.6315C81.7811 49.7422 81.7906 49.8174 81.8309 49.8577C81.8609 49.9178 81.9164 49.9628 81.9961 49.9929L81.9512 50.2341C81.7906 50.1835 81.675 50.1037 81.6055 49.9929C81.535 49.8623 81.5144 49.727 81.5454 49.5863C81.5745 49.436 81.6403 49.3158 81.7408 49.2256ZM80.8823 45.2365L80.7922 46.5455L80.3556 46.5155L80.4457 45.2055L79.7386 45.1606L79.6333 46.6208L79.1967 46.5907L79.3319 44.6037L81.921 44.7847L81.8009 46.7267L81.3491 46.6968L81.4544 45.2815L80.8823 45.2365ZM79.317 41.9243L81.4694 41.8492L81.4392 41.0811L81.891 41.0661L81.9512 43.1434L81.5144 43.1592L81.4844 42.3911L79.3319 42.4662L79.317 41.9243ZM79.0004 38.1614L79.3921 38.1004L79.4071 38.3116C79.4174 38.4121 79.4522 38.4921 79.5124 38.5522C79.563 38.6028 79.6635 38.6423 79.8137 38.6731L81.5296 37.4534L81.6205 38.0403L80.3556 38.8386L81.7707 39.1541L81.8459 39.7118L79.7686 39.1099C79.5377 39.0498 79.3621 38.9738 79.2418 38.8835C79.1207 38.8132 79.0464 38.693 79.0156 38.522L79.0004 38.1614ZM81.3341 35.8881L78.8052 36.5201L78.6849 36.0081L80.7772 35.4814L80.5359 34.4877L78.4286 35.0147L78.3083 34.5029L80.8374 33.8557L81.3341 35.8881ZM70.3598 16.0932C70.1796 16.1128 69.9738 16.2283 69.743 16.4395C69.5016 16.6801 69.3767 16.8858 69.3663 17.0565C69.3568 17.2369 69.4115 17.3975 69.5324 17.5383C69.6423 17.6482 69.758 17.7037 69.8783 17.7037C70.019 17.7242 70.1693 17.6784 70.3299 17.5684L70.571 18.0502C70.3299 18.1901 70.0893 18.2454 69.8481 18.2154C69.6274 18.1855 69.417 18.0652 69.2161 17.854C68.985 17.6237 68.875 17.3374 68.8846 16.9964C68.9052 16.6651 69.0601 16.3589 69.3513 16.078C69.6622 15.7672 69.9787 15.6114 70.2999 15.6114C70.6312 15.6114 70.9224 15.7418 71.1731 16.0029C71.3835 16.2133 71.4989 16.4642 71.5196 16.7552C71.5196 16.9158 71.4643 17.0913 71.3535 17.2821L70.9017 16.9964C70.9825 16.8755 71.0125 16.7552 70.9921 16.6349C70.9921 16.5241 70.942 16.4095 70.8416 16.2884C70.7112 16.158 70.5506 16.0932 70.3598 16.0932ZM51.0766 4.72759L51.363 6.18766L52.1754 4.98376L52.7171 5.10406L51.4079 6.85066C51.2775 7.02077 51.1469 7.15685 51.0165 7.25648C50.8962 7.3474 50.7554 7.37191 50.5948 7.33242C50.545 7.32209 50.4294 7.28726 50.2492 7.22631L50.3393 6.83567L50.5347 6.89581C50.6653 6.92579 50.7554 6.92033 50.8061 6.88063C50.8757 6.84033 50.946 6.76054 51.0165 6.63945L50.5047 4.59232L51.0766 4.72759ZM56.1646 6.18766L55.3514 8.68657L54.8554 8.52132L55.2011 7.42253L54.2226 7.10622L53.8769 8.18983L53.3801 8.03957L54.1774 5.54066L54.6742 5.7061L54.3587 6.6846L55.3372 7.00092L55.6527 6.02242L56.1646 6.18766ZM58.3019 7.04607L57.5947 8.62643L59.2654 7.46769L59.7322 7.69308L58.6786 10.0867L58.2268 9.87629L58.9198 8.31092L57.2634 9.45467L56.7817 9.22848L57.8511 6.83567L58.3019 7.04607ZM67.6806 14.8733C67.5604 14.8036 67.4148 14.6985 67.244 14.5576L66.9735 14.3314L66.3556 15.0845L65.949 14.753L67.6205 12.7359L68.2675 13.2778C68.4986 13.4787 68.6488 13.6243 68.7193 13.7144C68.8094 13.8553 68.8497 14.0007 68.8396 14.1512C68.8396 14.3118 68.7691 14.477 68.6292 14.6479C68.5184 14.7783 68.4131 14.8638 68.3127 14.9041C68.1924 14.9438 68.077 14.9588 67.9662 14.9492C67.8761 14.9492 67.7811 14.9239 67.6806 14.8733ZM67.259 13.9857L67.4844 14.1811C67.6853 14.3219 67.8009 14.3972 67.8309 14.4073C67.8911 14.4375 67.9615 14.4422 68.0421 14.4225C68.1023 14.4019 68.1576 14.3624 68.2076 14.3014C68.2675 14.2318 68.2977 14.1512 68.2977 14.0609C68.2977 13.9906 68.2675 13.9155 68.2076 13.8355L67.7408 13.4138L67.259 13.9857ZM64.8052 13.8197L63.1795 12.6759L64.67 10.5385L66.2503 11.6523L65.995 12.0137L64.8502 11.2005L64.5197 11.6672L65.5883 12.4353L65.332 12.796L64.2633 12.0287L63.8567 12.6158L65.0464 13.459L64.8052 13.8197ZM62.4274 10.7789C62.447 10.9198 62.4171 11.0551 62.3363 11.1855C62.296 11.2859 62.2162 11.3762 62.0959 11.4568C61.9954 11.517 61.8901 11.5573 61.7794 11.5771C61.6893 11.5875 61.5643 11.5668 61.4037 11.517L60.0637 10.794L61.3286 8.49116L62.6378 9.25864C62.7176 9.3194 62.7785 9.39452 62.818 9.48484C62.8583 9.55511 62.8782 9.65009 62.8782 9.77038C62.8988 9.87082 62.8735 9.97126 62.803 10.0717C62.7326 10.192 62.6528 10.2775 62.5627 10.3273C62.462 10.3882 62.3466 10.4079 62.2162 10.3882C62.3267 10.4982 62.3964 10.6286 62.4274 10.7789ZM61.7042 11.0652C61.785 11.0352 61.8452 10.9799 61.8847 10.8999C61.9146 10.8398 61.9304 10.7742 61.9304 10.7037C61.9203 10.6341 61.8901 10.5685 61.8395 10.5083L61.0722 10.0417L60.7407 10.6588L61.4938 11.0652C61.5738 11.085 61.6441 11.085 61.7042 11.0652ZM62.2312 9.51482L61.5839 9.13836L61.2826 9.66508L61.9304 10.0116C62.0208 10.0519 62.0959 10.0567 62.156 10.0266C62.2162 10.0164 62.2715 9.97126 62.3213 9.89147C62.3616 9.821 62.3768 9.75053 62.3664 9.68026C62.3466 9.60979 62.3014 9.55511 62.2312 9.51482ZM76.5926 29.0541L78.594 28.2411L78.3083 27.5179L78.7149 27.3527L79.4822 29.2797L79.0756 29.4599L78.79 28.7378L76.788 29.5511L76.5926 29.0541ZM76.4565 25.1401L77.0744 26.299L76.6827 26.5094L76.0649 25.3505L75.4478 25.682L76.1258 26.977L75.7494 27.1874L74.8158 25.4256L77.1044 24.1918L78.0219 25.9074L77.6313 26.1186L76.9683 24.8687L76.4565 25.1401ZM74.846 21.3314L75.2075 21.0908L76.3362 22.8366L75.9598 23.078L75.554 22.415L73.7322 23.6047L73.4458 23.1681L75.2676 21.9784L74.846 21.3314ZM73.9426 19.3292L74.2741 19.7359L72.2569 21.3915L71.9404 21.0007L73.2654 19.9321L71.2784 20.1725L70.9469 19.7658L72.9799 18.1101L73.2804 18.5018L71.9404 19.6006L73.9426 19.3292Z" fill="#322F30"/>
<path d="M57.8203 78.8198C57.8606 78.8 57.9009 78.7494 57.9412 78.6695C57.9611 78.5888 57.9562 78.5137 57.9254 78.4433C57.8963 78.3634 57.8456 78.3033 57.7752 78.2629C57.7047 78.2329 57.6399 78.2226 57.5798 78.2329C57.4896 78.2527 57.3544 78.3033 57.1731 78.3832L56.8125 78.5184L57.068 79.1362L57.8203 78.8198ZM56.2556 77.1191L56.6614 78.1427L56.7515 78.0976C56.9026 78.047 57.003 77.9766 57.0528 77.8864C57.113 77.8065 57.1628 77.6261 57.2033 77.3445L57.3544 76.6674L57.9254 76.4412L57.715 77.5399C57.6652 77.661 57.6051 77.7614 57.5346 77.8413C57.7752 77.7915 57.9657 77.8065 58.1067 77.8864C58.2673 77.9671 58.3778 78.0921 58.438 78.2629C58.4981 78.4132 58.5131 78.5588 58.4831 78.6996C58.4532 78.8602 58.3874 78.9757 58.2869 79.046C58.1968 79.126 58.0212 79.2217 57.7602 79.3316L56.7365 79.7532L55.7588 77.3145L56.2556 77.1191ZM60.907 74.9208L62.1408 77.2243L61.7042 77.4648L60.892 75.9143L60.7709 77.9616L60.3041 78.2028L59.0852 75.8993L59.5218 75.6588L60.3191 77.1792L60.4552 75.1621L60.907 74.9208ZM71.9554 69.276L70.0443 67.4851L68.0723 69.6225L67.6507 69.2309L67.3641 69.5473L68.0873 70.2394L68.2525 70.0741L69.8331 71.5644L70.1946 71.1729L68.614 69.6826L69.1409 69.1106L70.7215 70.601L71.083 70.2094L69.5016 68.7191L70.0133 68.1772L71.5947 69.6525L71.9554 69.276ZM66.7021 70.8264L68.3426 72.8586L66.8524 74.0784L66.5669 73.7319L67.6657 72.8435L67.3042 72.3919L66.2805 73.2201L66.01 72.8736L67.0185 72.0462L66.5818 71.4893L65.4531 72.4219L65.1667 72.0763L66.7021 70.8264ZM63.5412 73.2501L64.158 74.1986L63.2998 74.7705L62.6828 73.807L62.2312 74.0934L63.6613 76.2909L64.0981 76.0045L63.5412 75.147L64.3994 74.5751L64.9563 75.4476L65.4071 75.147L63.9778 72.9487L63.5412 73.2501ZM71.8503 66.0248C71.8201 66.0952 71.81 66.1648 71.8201 66.2352C71.8304 66.3056 71.8707 66.3658 71.9404 66.4164C72.0512 66.4963 72.147 66.516 72.2268 66.4765C72.3272 66.4464 72.4428 66.3507 72.5724 66.1901L72.8889 65.7685L72.347 65.3327L71.8503 66.0248ZM73.2354 66.0248L72.8138 66.5967C72.7039 66.7368 72.5828 66.8475 72.4521 66.9282C72.3422 66.9978 72.2071 67.0334 72.0465 67.0334C71.8859 67.0128 71.7403 66.9527 71.6097 66.8522C71.4793 66.7526 71.389 66.6213 71.3383 66.4615C71.2981 66.3207 71.2934 66.1854 71.3234 66.0549C71.344 65.9647 71.4287 65.8191 71.5797 65.6182L72.3321 64.6397L74.3792 66.2653L73.1903 67.8007L72.8438 67.5302L73.7172 66.4006L73.2354 66.0248ZM74.0937 63.1944C74.1538 63.3953 74.3087 63.5758 74.5604 63.7363C74.8207 63.8874 75.0469 63.9476 75.2374 63.9176C75.4282 63.8874 75.5831 63.7815 75.7042 63.6011C75.8047 63.4105 75.8348 63.2198 75.7943 63.0292C75.7342 62.8283 75.5785 62.6525 75.3278 62.5023C75.0768 62.3417 74.8506 62.2815 74.6506 62.3212C74.4497 62.3512 74.2937 62.4573 74.1838 62.6376C74.073 62.7981 74.043 62.984 74.0937 63.1944ZM76.2911 63.2997C76.2611 63.4903 76.1906 63.6659 76.0807 63.8265C75.8901 64.1476 75.6291 64.3485 75.2976 64.4285C74.9663 64.4895 74.6253 64.4087 74.2741 64.1881C73.9228 63.9674 73.702 63.6969 73.6119 63.3757C73.5414 63.0545 73.6016 62.7279 73.7923 62.3972C74.0027 62.0657 74.2684 61.8648 74.5904 61.7943C74.9211 61.7342 75.2573 61.815 75.5991 62.0357C75.8292 62.1756 75.9954 62.3267 76.0959 62.4873C76.186 62.6076 76.2461 62.738 76.2761 62.8789C76.3063 63.049 76.3109 63.1898 76.2911 63.2997ZM11.245 60.7557L8.92722 61.9454L8.53565 61.1773C8.38537 60.8561 8.30467 60.6656 8.29439 60.6054C8.25484 60.475 8.26986 60.3245 8.34028 60.1538C8.40988 60.0034 8.54041 59.8833 8.73105 59.7922C8.88215 59.7124 9.01187 59.6767 9.12262 59.6871C9.27293 59.6871 9.38366 59.7124 9.45407 59.7622C9.55453 59.8025 9.63442 59.8626 9.69455 59.9434L10.1312 60.7257L11.0045 60.2739L11.245 60.7557ZM9.60437 60.6656C9.51419 60.475 9.43904 60.3594 9.37892 60.3191C9.31879 60.2693 9.25314 60.2393 9.18275 60.229C9.11234 60.2091 9.04747 60.2241 8.98735 60.2739C8.90667 60.3041 8.84655 60.365 8.80621 60.4552C8.77613 60.5256 8.77613 60.6054 8.80621 60.6955C8.82676 60.7858 8.8766 60.9013 8.9573 61.042L9.07753 61.2676L9.73965 60.9369L9.60437 60.6656ZM22.1441 72.9646L20.8792 74.7254L21.4961 75.1771L21.2407 75.5386L19.57 74.3188L19.8255 73.9573L20.4424 74.409L21.7225 72.6482L22.1441 72.9646ZM16.8448 72.0612L18.3051 73.3253L20.0066 71.3532L18.5163 70.0441L18.2299 70.3747L19.3287 71.3382L18.862 71.8801L17.8684 71.0226L17.5829 71.3532L18.5764 72.2115L18.1999 72.6482L17.1312 71.7298L16.8448 72.0612ZM15.5206 70.1192L16.0625 69.6225L15.8663 69.4112C15.716 69.2412 15.6108 69.1455 15.5507 69.1257C15.4803 69.0956 15.4154 69.0853 15.3545 69.0956C15.2849 69.1059 15.2192 69.1352 15.1591 69.1858C15.0887 69.276 15.0539 69.3511 15.0539 69.4112C15.0436 69.5022 15.0634 69.5821 15.114 69.6525C15.1741 69.7427 15.254 69.8384 15.3545 69.9381L15.5206 70.1192ZM15.7611 68.689C15.8513 68.7492 15.9818 68.8749 16.1526 69.0656L16.3939 69.3211L17.1011 68.6439L17.4626 69.0355L15.5657 70.8114L14.9938 70.1944C14.7525 69.9436 14.6172 69.783 14.5872 69.7126C14.5168 69.5821 14.497 69.4318 14.5271 69.2609C14.5366 69.1106 14.622 68.9548 14.7826 68.7942C14.9131 68.6843 15.0333 68.6139 15.1441 68.5838C15.254 68.5538 15.3648 68.5482 15.4755 68.5688C15.6155 68.6091 15.7112 68.6487 15.7611 68.689ZM13.172 65.2418C13.3025 65.1413 13.4528 65.0812 13.6237 65.0613C13.7843 65.0613 13.9148 65.0913 14.0152 65.1514C14.1252 65.2116 14.2462 65.3327 14.376 65.5129L15.129 66.4765L13.0818 68.087L11.8778 66.5517L12.2235 66.2803L13.0968 67.4099L13.5786 67.0334L13.1419 66.4765C13.0312 66.3357 12.9513 66.1901 12.9014 66.0399C12.8508 65.9196 12.8508 65.7788 12.9014 65.6182C12.941 65.4775 13.0312 65.3525 13.172 65.2418ZM13.3832 65.9346C13.403 66.0549 13.4734 66.1901 13.5936 66.3404L13.9251 66.7621L14.4669 66.3404L13.9251 65.6634C13.8444 65.6229 13.7795 65.6032 13.7289 65.6032C13.6387 65.6032 13.5683 65.6286 13.5185 65.6784C13.4283 65.729 13.3832 65.8136 13.3832 65.9346ZM12.4197 62.9541C12.2686 62.9239 12.078 62.9239 11.847 62.9541L9.69455 63.2696L9.99594 63.7363L11.4111 63.4508L10.5829 64.6999L10.8993 65.1966L11.983 63.3757C12.1436 63.3447 12.2488 63.34 12.2987 63.3607C12.3691 63.3803 12.4347 63.4405 12.4948 63.5409L12.6001 63.7214L12.9315 63.511L12.7654 63.1944C12.6649 63.0545 12.5494 62.9737 12.4197 62.9541ZM24.8535 75.2072L23.6044 74.4842L23.8148 74.0934L25.5304 75.0869L24.2364 77.3596L22.5657 76.3961L22.7761 76.0045L23.9958 76.7125L24.2814 76.2157L23.1526 75.5536L23.363 75.1771L24.507 75.8242L24.8535 75.2072ZM28.7675 76.7275L27.6687 79.0911L25.7868 78.2178L26.8856 75.8392L27.3674 76.0654L26.4488 78.0375L27.3674 78.4733L28.2858 76.5013L28.7675 76.7275ZM7.49701 57.9263L9.52922 57.143L9.70957 57.6399L7.28582 58.5733L6.65377 56.9176L7.06036 56.7665L7.49701 57.9263ZM5.78124 53.5755C5.86113 53.4149 5.99641 53.2845 6.18705 53.184L6.44334 53.6506C6.33259 53.7107 6.24241 53.8017 6.17202 53.9219C6.13166 54.0319 6.12692 54.1577 6.15698 54.2986C6.2076 54.4987 6.31283 54.6348 6.4734 54.7042C6.64427 54.7953 6.88001 54.7953 7.18059 54.7042C7.50177 54.6141 7.71297 54.4987 7.81343 54.3585C7.91311 54.2075 7.93842 54.0376 7.88858 53.8468C7.85853 53.7164 7.78259 53.6111 7.66234 53.5305C7.56188 53.46 7.41159 53.4252 7.21067 53.4252L7.22569 52.8985C7.5168 52.8985 7.75807 52.9679 7.94871 53.1089C8.11877 53.2393 8.24455 53.445 8.32446 53.7257C8.41543 54.0572 8.37509 54.3634 8.20421 54.6443C8.03335 54.9154 7.74778 55.1108 7.34671 55.2311C6.92509 55.3419 6.57386 55.3166 6.29225 55.156C6.00115 55.0057 5.81051 54.7548 5.72033 54.4037C5.63015 54.1024 5.65071 53.8264 5.78124 53.5755ZM6.6237 49.8577L7.27077 49.3759L7.37678 49.9929L6.60867 50.5348L6.39826 50.7452C6.37769 50.8155 6.37295 50.886 6.38322 50.9565L7.51206 50.7452L7.60224 51.272L5.04318 51.7237L4.95301 51.2118L6.03675 51.0166C6.0067 50.8963 5.9616 50.8212 5.90147 50.791C5.85085 50.761 5.71083 50.7207 5.47985 50.6701C5.16896 50.61 4.97753 50.5348 4.90793 50.4445C4.82723 50.3441 4.76237 50.1732 4.71174 49.9328L4.69671 49.8577L5.07326 49.7967L5.08828 49.8727C5.09857 49.9731 5.12309 50.0482 5.16343 50.098C5.21406 50.1487 5.2639 50.1788 5.31373 50.1892C5.35407 50.2088 5.46956 50.2341 5.6602 50.2643L5.90147 50.3394C5.9616 50.3489 6.03201 50.4042 6.1119 50.5047C6.1119 50.3939 6.15698 50.2839 6.24717 50.1732C6.34764 50.0735 6.4734 49.9676 6.6237 49.8577ZM6.83491 46.4704L5.14841 46.6808L6.97019 47.524L7.03029 48.0509L4.44121 48.3674L4.38108 47.8857L6.1119 47.6753L4.26006 46.8318L4.19994 46.3051L6.774 45.9886L6.83491 46.4704ZM4.10976 43.9715L5.84137 43.9415L4.09474 42.9178L4.07969 42.3911L6.68382 42.3459V42.8427L4.9981 42.8729L6.71387 43.8963V44.4232L4.10976 44.4684V43.9715ZM3.95946 43.4297C3.97923 43.58 3.93968 43.7104 3.83921 43.8212C3.76882 43.9012 3.64304 43.9613 3.46269 44.0016L3.44764 43.7461C3.53784 43.7461 3.60349 43.7161 3.64304 43.6559C3.68338 43.6156 3.70317 43.5405 3.70317 43.4297C3.70317 43.3593 3.68338 43.2841 3.64304 43.2042C3.59321 43.1535 3.52755 43.1282 3.44764 43.1282L3.43262 42.8878C3.59321 42.8878 3.72372 42.9377 3.82419 43.0381C3.91436 43.1489 3.95946 43.2795 3.95946 43.4297ZM7.24072 36.7313L4.68169 36.2194L5.02816 34.4877L5.4498 34.5631L5.22356 35.7828L7.34671 36.2044L7.24072 36.7313ZM7.31587 31.0255C7.71773 31.126 8.00407 31.3268 8.17416 31.6282C8.34501 31.9194 8.37509 32.2452 8.26434 32.6067C8.14409 32.988 7.94318 33.2539 7.66234 33.4041C7.36176 33.5647 7.01527 33.5846 6.6237 33.4643C6.35317 33.3843 6.15224 33.2838 6.02172 33.1636C5.93154 33.083 5.84137 32.973 5.75038 32.8323C5.67049 32.6913 5.62539 32.5617 5.61513 32.4406C5.59534 32.2904 5.61513 32.0996 5.67523 31.8687C5.77569 31.5073 5.97188 31.2414 6.2622 31.0713C6.56359 30.9202 6.9148 30.9052 7.31587 31.0255ZM6.45837 31.5522C6.27723 31.6227 6.15698 31.7683 6.09687 31.989C6.03675 32.1899 6.06206 32.3805 6.17202 32.5617C6.27249 32.7215 6.46787 32.8472 6.75897 32.9374C7.06036 33.0182 7.29608 33.0125 7.46696 32.9224C7.64731 32.8323 7.76756 32.6867 7.82848 32.4858C7.88858 32.2855 7.86327 32.0996 7.75254 31.9289C7.65207 31.7683 7.45193 31.6377 7.15054 31.5372C6.85944 31.4575 6.62846 31.4621 6.45837 31.5522ZM14.2557 19.1188L13.2772 18.7873L13.8191 19.6757L14.2557 19.1188ZM12.9916 18.1703L15.6709 19.0135L15.3094 19.4653L14.7074 19.2541L14.0453 20.0823L14.376 20.6242L14.0303 21.0608L12.6451 18.6071L12.9916 18.1703ZM16.0625 15.6714C15.962 15.6714 15.8869 15.6967 15.8362 15.7467C15.7967 15.7672 15.701 15.8518 15.5507 16.0029L15.3853 16.1833L15.9122 16.71L16.1076 16.4996C16.2579 16.3486 16.348 16.2386 16.3781 16.1683C16.3987 16.078 16.4034 16.0077 16.3939 15.9579C16.3734 15.8771 16.3385 15.817 16.2879 15.7767C16.2278 15.7062 16.1526 15.6714 16.0625 15.6714ZM16.8148 16.3486C16.7752 16.4294 16.6597 16.5693 16.4691 16.7702L16.2278 17.0115L16.9358 17.7037L16.5743 18.0802L14.6924 16.2584L15.2793 15.6564C15.4905 15.4357 15.6456 15.2903 15.7461 15.2198C15.8869 15.1493 16.0372 15.1193 16.1977 15.1297C16.348 15.1493 16.5039 15.2301 16.6645 15.37C16.7752 15.5007 16.8503 15.6161 16.8899 15.7165C16.9208 15.8471 16.9303 15.9626 16.9208 16.063C16.9002 16.173 16.8654 16.2688 16.8148 16.3486ZM8.17416 27.3377L8.08398 27.8644C7.94318 27.8448 7.82293 27.8644 7.72246 27.9246C7.60224 27.995 7.52233 28.0908 7.48199 28.2109C7.40131 28.4017 7.40684 28.5726 7.49701 28.7228C7.59748 28.9031 7.78259 29.044 8.05391 29.1444C8.34501 29.2749 8.58549 29.3097 8.77613 29.2495C8.93672 29.1894 9.05776 29.074 9.13765 28.9031C9.19778 28.783 9.2033 28.6524 9.15268 28.5124C9.11234 28.3913 9.00713 28.271 8.83705 28.1507L9.18275 27.7443C9.41373 27.915 9.55927 28.1153 9.6194 28.3462C9.67952 28.5669 9.65974 28.8083 9.55927 29.0693C9.41847 29.3905 9.2033 29.611 8.9122 29.7313C8.60054 29.8413 8.2596 29.8214 7.88858 29.6712C7.47725 29.5004 7.20591 29.2694 7.07539 28.9782C6.94487 28.6777 6.94487 28.3565 7.07539 28.0149C7.19564 27.7245 7.38152 27.5179 7.63229 27.3978C7.78259 27.3274 7.96373 27.3075 8.17416 27.3377ZM10.2214 25.7421L8.12906 25.7122L8.4004 25.2002L9.8749 25.2904L8.92722 24.1918L9.18275 23.71L10.5228 25.4256C10.643 25.5769 10.7435 25.7375 10.8242 25.9074C10.8637 26.0585 10.8487 26.1986 10.7783 26.329C10.7387 26.4295 10.6731 26.5348 10.5829 26.6455L10.2364 26.4643L10.3424 26.2841C10.4025 26.1836 10.4223 26.0933 10.4025 26.0135C10.3922 25.9526 10.3321 25.8624 10.2214 25.7421ZM10.1011 22.2348L10.3266 22.385C10.7087 22.6262 11.0148 22.8423 11.245 23.0328C11.4562 23.2133 11.6318 23.4142 11.7718 23.6349L11.6516 23.8303L12.4948 24.372L12.7353 24.0113L12.2536 23.695L13.1419 22.3099L13.6237 22.6262L13.8641 22.2497L13.0217 21.7078L12.9014 21.9041L11.0797 20.7144L10.1011 22.2348ZM11.1548 21.3915L12.6151 22.3399L12.0732 23.1681C11.8525 22.8573 11.4056 22.4806 10.7332 22.0393L11.1548 21.3915ZM21.9027 10.1618L20.217 11.3667L20.4582 11.7274L21.0905 11.2756L22.3395 13.0524L22.7611 12.751L21.5271 10.9751L22.1591 10.5235L21.9027 10.1618ZM18.1698 12.8719C18.4309 12.6607 18.6864 12.5706 18.9371 12.6006C19.0977 12.6006 19.2686 12.6664 19.4497 12.796L19.1333 13.2176C19.0226 13.1378 18.9071 13.0975 18.7868 13.0975C18.6563 13.1172 18.5408 13.1678 18.4404 13.2478C18.2901 13.3687 18.2149 13.5192 18.2149 13.6994C18.2046 13.8806 18.3003 14.0957 18.5013 14.3466C18.7117 14.5981 18.9071 14.738 19.0882 14.7682C19.2686 14.7982 19.4339 14.753 19.585 14.6329C19.695 14.5426 19.7551 14.4318 19.7654 14.3014C19.7859 14.1915 19.7551 14.0355 19.6752 13.8355L20.1569 13.6243C20.2875 13.8853 20.3278 14.1313 20.2772 14.3624C20.217 14.5924 20.0818 14.7982 19.8706 14.9794C19.6095 15.2095 19.3192 15.3004 18.998 15.2498C18.6864 15.2198 18.3905 15.0442 18.1097 14.723C17.8384 14.382 17.7078 14.0507 17.7181 13.7296C17.7482 13.3885 17.8993 13.1022 18.1698 12.8719ZM25.2599 9.93643C25.1801 9.95628 25.0394 10.0219 24.8383 10.1318L24.4626 10.3273L24.8083 10.9451L25.5462 10.5235C25.5963 10.4729 25.6309 10.4127 25.6515 10.3431C25.6619 10.2821 25.6515 10.2023 25.6216 10.1019C25.5614 10.0219 25.5108 9.97126 25.4703 9.95142C25.4205 9.92145 25.3502 9.91598 25.2599 9.93643ZM25.4855 9.21349C25.4855 9.33459 25.4458 9.44434 25.3652 9.54499C25.5361 9.51481 25.6815 9.52514 25.8018 9.57496C25.9324 9.64543 26.0329 9.7402 26.1031 9.8613C26.1633 9.97126 26.1935 10.0867 26.1935 10.207C26.203 10.3177 26.1831 10.4332 26.1333 10.5535C26.0732 10.6634 25.9877 10.7592 25.8769 10.8398L24.5519 11.5921L23.3029 9.3036L24.6279 8.58147C24.7283 8.5513 24.8233 8.54117 24.9134 8.5513C25.0242 8.57114 25.1192 8.60192 25.2 8.64161C25.2702 8.69224 25.3407 8.76737 25.4104 8.86781C25.4703 8.99823 25.4956 9.11305 25.4855 9.21349ZM24.8535 9.04804C24.7735 9.0284 24.6983 9.03306 24.6279 9.06323L23.9659 9.4247L24.2664 9.95142L24.8834 9.58995C24.9436 9.55998 24.9942 9.49983 25.0337 9.40971C25.044 9.33924 25.0337 9.26412 25.0037 9.18332C24.9539 9.12338 24.9041 9.07822 24.8535 9.04804ZM28.6924 7.10622L27.4124 7.69308L27.6386 8.22L28.8277 7.67809L29.0079 8.08472L27.819 8.62643L28.1053 9.27363L29.4295 8.67159L29.6108 9.07821L27.804 9.89147L26.7504 7.49766L28.5112 6.71458L28.6924 7.10622ZM35.9027 4.53218L36.4898 7.09104L35.9778 7.21132L35.7223 6.09754L34.7138 6.32374L34.9693 7.43752L34.4574 7.55781L33.8705 5.01394L34.3823 4.89365L34.6085 5.88714L35.6172 5.66094L35.391 4.65227L35.9027 4.53218ZM32.1397 5.42037L32.9372 7.91928L32.4402 8.08472L32.0945 6.98593L31.116 7.30225L31.4617 8.40104L30.9649 8.56648L30.1527 6.06757L30.6494 5.90213L30.9649 6.88063L31.9587 6.56432L31.6429 5.58581L32.1397 5.42037ZM40.8554 3.97529L41.0359 6.5793L40.5089 6.62446L40.3287 4.00526L40.8554 3.97529ZM39.6056 5.90213C39.6056 5.79136 39.5606 5.7061 39.4703 5.64596C39.3603 5.59614 39.2092 5.57549 39.0187 5.58581L38.4918 5.63077L38.5369 6.32374L39.0487 6.27878C39.2092 6.27878 39.32 6.26299 39.3802 6.23282C39.4403 6.21297 39.4956 6.17268 39.5454 6.11253C39.596 6.04226 39.6159 5.9726 39.6056 5.90213ZM38.4468 5.19417L39.154 5.13403C39.3848 5.13403 39.5454 5.14921 39.6357 5.17918C39.7868 5.22981 39.9014 5.31527 39.9822 5.43555C40.0723 5.54551 40.1276 5.69091 40.1483 5.87216C40.1681 6.05238 40.1325 6.20831 40.0422 6.33893C39.9719 6.46934 39.8769 6.55946 39.7566 6.60928C39.6262 6.66942 39.4608 6.70506 39.2599 6.71458L38.0402 6.78971L37.8597 4.18569L38.3867 4.14054L38.4468 5.19417ZM43.098 6.50417L42.5713 6.48919L42.6162 3.86999L43.098 3.88498L43.068 5.61579L44.1517 3.90016H44.6794L44.6334 6.53415L44.1367 6.51916L44.1677 4.80353L43.098 6.50417ZM43.9714 3.23716L44.2118 3.25215C44.1922 3.41354 44.1367 3.53849 44.0466 3.6288C43.9366 3.72925 43.806 3.76955 43.6549 3.7497C43.5046 3.7497 43.3742 3.70393 43.2643 3.61382C43.1638 3.51317 43.1132 3.38276 43.1132 3.22298L43.3544 3.23716C43.3544 3.30763 43.3797 3.36778 43.4295 3.4184C43.5 3.46822 43.5751 3.49353 43.6549 3.49353C43.7553 3.49353 43.8307 3.47369 43.8813 3.43339C43.9311 3.38276 43.9611 3.31796 43.9714 3.23716ZM76.5017 58.8588C76.3014 58.9198 76.156 59.0401 76.0649 59.2203C75.9756 59.4212 75.9652 59.6119 76.0349 59.7922C76.1155 59.9932 76.2864 60.1585 76.5466 60.2891C76.8283 60.4298 77.0537 60.4701 77.2246 60.41C77.4247 60.3594 77.5711 60.2393 77.6613 60.0485C77.7712 59.8476 77.7862 59.6571 77.7064 59.4767C77.6256 59.2859 77.4555 59.1255 77.1945 58.9949C76.9334 58.8542 76.7026 58.809 76.5017 58.8588ZM77.4201 58.4981C77.6613 58.6184 77.8417 58.7537 77.9618 58.9048C78.0624 59.0447 78.1327 59.1753 78.173 59.2954C78.2127 59.4165 78.2331 59.5518 78.2331 59.702C78.2127 59.873 78.158 60.0534 78.0679 60.2439C77.8866 60.5951 77.6408 60.8158 77.3297 60.9067C77.0189 61.0167 76.6724 60.9717 76.2911 60.7709C75.9201 60.5801 75.6789 60.3245 75.5681 60.0034C75.4582 59.702 75.4883 59.3762 75.6591 59.0249C75.8395 58.6737 76.0855 58.453 76.3964 58.3629C76.7176 58.2521 77.0592 58.2973 77.4201 58.4981ZM77.5561 55.7429C77.5055 55.8838 77.511 56.0142 77.5711 56.1345C77.621 56.2651 77.7317 56.3757 77.9018 56.466L77.5861 56.9026C77.3449 56.7515 77.1843 56.5665 77.1044 56.3449C77.0339 56.1345 77.0387 55.8885 77.1193 55.6076C77.2396 55.2864 77.4405 55.0507 77.7214 54.9004C78.0124 54.77 78.3534 54.7644 78.7451 54.8855C79.1667 55.0254 79.4522 55.2366 79.6033 55.5175C79.7639 55.8087 79.7884 56.1299 79.6784 56.481C79.5677 56.8022 79.3967 57.018 79.1667 57.128C79.0464 57.2088 78.8652 57.2483 78.6248 57.2483L78.6699 56.7064C78.8099 56.727 78.931 56.6969 79.0306 56.6163C79.1311 56.5561 79.207 56.4557 79.2568 56.3149C79.317 56.1242 79.2971 55.9541 79.1967 55.8038C79.1161 55.6528 78.9253 55.5223 78.6248 55.4124C78.3131 55.3221 78.0725 55.3071 77.9018 55.3672C77.7317 55.4369 77.6161 55.5626 77.5561 55.7429ZM81.5144 49.0294L79.7987 48.7131L81.3192 50.0681L81.2288 50.5798L78.6699 50.1282L78.7601 49.6465L80.4308 49.9478L78.9405 48.6078L79.0306 48.0809L81.5897 48.5327L81.5144 49.0294ZM81.7408 49.2256C81.6403 49.3158 81.5745 49.436 81.5454 49.5863C81.5144 49.727 81.535 49.8623 81.6055 49.9929C81.675 50.1037 81.7906 50.1835 81.9512 50.2341L81.9961 49.9929C81.9164 49.9628 81.8609 49.9178 81.8309 49.8577C81.7906 49.8174 81.7811 49.7422 81.8009 49.6315C81.8206 49.531 81.8562 49.4614 81.906 49.4211C81.9558 49.3712 82.0214 49.3552 82.1023 49.3759L82.1472 49.1347C81.9866 49.1252 81.8507 49.1552 81.7408 49.2256ZM80.8823 45.2365L80.7922 46.5455L80.3556 46.5155L80.4457 45.2055L79.7386 45.1606L79.6333 46.6208L79.1967 46.5907L79.3319 44.6037L81.921 44.7847L81.8009 46.7267L81.3491 46.6968L81.4544 45.2815L80.8823 45.2365ZM79.317 41.9243L81.4694 41.8492L81.4392 41.0811L81.891 41.0661L81.9512 43.1434L81.5144 43.1592L81.4844 42.3911L79.3319 42.4662L79.317 41.9243ZM79.0004 38.1614L79.3921 38.1004L79.4071 38.3116C79.4174 38.4121 79.4522 38.4921 79.5124 38.5522C79.563 38.6028 79.6634 38.6423 79.8137 38.6731L81.5296 37.4534L81.6205 38.0403L80.3556 38.8386L81.7707 39.1541L81.8459 39.7118L79.7686 39.1099C79.5377 39.0498 79.3621 38.9738 79.2418 38.8835C79.1207 38.8132 79.0464 38.693 79.0156 38.522L79.0004 38.1614ZM81.3341 35.8881L78.8052 36.5201L78.6849 36.0081L80.7772 35.4814L80.5359 34.4877L78.4286 35.0147L78.3083 34.5029L80.8374 33.8557L81.3341 35.8881ZM70.3598 16.0932C70.1796 16.1128 69.9738 16.2283 69.743 16.4395C69.5016 16.6801 69.3767 16.8858 69.3663 17.0565C69.3568 17.2369 69.4115 17.3975 69.5324 17.5383C69.6423 17.6482 69.758 17.7037 69.8783 17.7037C70.019 17.7242 70.1693 17.6784 70.3299 17.5684L70.571 18.0502C70.3299 18.1901 70.0893 18.2454 69.8481 18.2154C69.6274 18.1855 69.417 18.0652 69.2161 17.854C68.985 17.6237 68.875 17.3374 68.8846 16.9964C68.9052 16.6651 69.0601 16.3589 69.3513 16.078C69.6622 15.7672 69.9787 15.6114 70.2999 15.6114C70.6312 15.6114 70.9224 15.7418 71.1731 16.0029C71.3835 16.2133 71.4989 16.4642 71.5196 16.7552C71.5196 16.9158 71.4643 17.0913 71.3535 17.2821L70.9017 16.9964C70.9825 16.8755 71.0125 16.7552 70.9921 16.6349C70.9921 16.5241 70.942 16.4095 70.8416 16.2884C70.7112 16.158 70.5506 16.0932 70.3598 16.0932ZM51.0766 4.7276L51.363 6.18766L52.1754 4.98377L52.7171 5.10405L51.4079 6.85066C51.2775 7.02076 51.1469 7.15685 51.0165 7.25648C50.8962 7.3474 50.7554 7.37191 50.5948 7.33242C50.545 7.32209 50.4294 7.28726 50.2492 7.22631L50.3393 6.83567L50.5347 6.89582C50.6653 6.92579 50.7554 6.92032 50.8061 6.88063C50.8757 6.84033 50.946 6.76055 51.0165 6.63945L50.5047 4.59232L51.0766 4.7276ZM56.1646 6.18766L55.3514 8.68657L54.8554 8.52133L55.2011 7.42253L54.2226 7.10622L53.8769 8.18983L53.3801 8.03957L54.1774 5.54066L54.6742 5.7061L54.3587 6.6846L55.3372 7.00092L55.6527 6.02241L56.1646 6.18766ZM58.3019 7.04608L57.5947 8.62643L59.2654 7.46769L59.7322 7.69308L58.6786 10.0867L58.2268 9.87629L58.9198 8.31092L57.2634 9.45467L56.7817 9.22847L57.8511 6.83567L58.3019 7.04608ZM67.259 13.9857L67.7408 13.4138L68.2076 13.8355C68.2675 13.9155 68.2977 13.9906 68.2977 14.0609C68.2977 14.1512 68.2675 14.2318 68.2076 14.3014C68.1576 14.3624 68.1023 14.4019 68.0421 14.4225C67.9615 14.4422 67.8911 14.4375 67.8309 14.4073C67.8009 14.3972 67.6853 14.3219 67.4844 14.1811L67.259 13.9857ZM67.6806 14.8733C67.7811 14.9239 67.8761 14.9492 67.9662 14.9492C68.077 14.9588 68.1924 14.9438 68.3127 14.9041C68.4131 14.8638 68.5184 14.7783 68.6292 14.6479C68.7691 14.477 68.8396 14.3118 68.8396 14.1512C68.8497 14.0007 68.8094 13.8553 68.7193 13.7144C68.6488 13.6243 68.4986 13.4786 68.2675 13.2778L67.6205 12.7359L65.949 14.753L66.3556 15.0845L66.9735 14.3314L67.244 14.5576C67.4148 14.6985 67.5604 14.8036 67.6806 14.8733ZM64.8052 13.8197L63.1795 12.6759L64.67 10.5385L66.2503 11.6523L65.995 12.0137L64.8502 11.2005L64.5197 11.6672L65.5883 12.4353L65.332 12.796L64.2633 12.0287L63.8567 12.6158L65.0464 13.459L64.8052 13.8197ZM62.4274 10.7789C62.447 10.9198 62.4171 11.0551 62.3363 11.1855C62.296 11.2859 62.2162 11.3762 62.0959 11.4568C61.9954 11.517 61.8901 11.5573 61.7794 11.5771C61.6893 11.5875 61.5643 11.5668 61.4037 11.517L60.0637 10.794L61.3286 8.49116L62.6378 9.25864C62.7176 9.3194 62.7785 9.39453 62.818 9.48484C62.8583 9.55511 62.8782 9.65009 62.8782 9.77038C62.8988 9.87082 62.8735 9.97126 62.803 10.0717C62.7326 10.192 62.6528 10.2774 62.5627 10.3273C62.462 10.3882 62.3466 10.4079 62.2162 10.3882C62.3267 10.4982 62.3964 10.6286 62.4274 10.7789ZM61.7042 11.0652C61.785 11.0352 61.8452 10.9799 61.8847 10.9C61.9146 10.8398 61.9304 10.7742 61.9304 10.7037C61.9203 10.6341 61.8901 10.5685 61.8395 10.5083L61.0722 10.0417L60.7407 10.6588L61.4938 11.0652C61.5738 11.085 61.6441 11.085 61.7042 11.0652ZM62.2312 9.51482L61.5839 9.13836L61.2826 9.66508L61.9304 10.0116C62.0208 10.0519 62.0959 10.0567 62.156 10.0265C62.2162 10.0164 62.2715 9.97126 62.3213 9.89147C62.3616 9.821 62.3768 9.75053 62.3664 9.68026C62.3466 9.60979 62.3014 9.55512 62.2312 9.51482ZM76.5926 29.0541L78.594 28.2411L78.3083 27.5179L78.7149 27.3527L79.4822 29.2797L79.0756 29.4599L78.79 28.7378L76.788 29.5511L76.5926 29.0541ZM76.4565 25.1401L77.0744 26.299L76.6827 26.5094L76.0649 25.3505L75.4478 25.682L76.1258 26.977L75.7494 27.1874L74.8158 25.4256L77.1044 24.1918L78.0219 25.9074L77.6313 26.1186L76.9683 24.8687L76.4565 25.1401ZM74.846 21.3314L75.2075 21.0908L76.3362 22.8366L75.9598 23.078L75.554 22.415L73.7322 23.6047L73.4458 23.1681L75.2676 21.9784L74.846 21.3314ZM73.9426 19.3292L71.9404 19.6006L73.2804 18.5018L72.9799 18.1101L70.9469 19.7658L71.2784 20.1725L73.2654 19.9321L71.9404 21.0007L72.2569 21.3915L74.2741 19.7359L73.9426 19.3292Z" stroke="#262524" stroke-width="0.138759" stroke-miterlimit="22.92"/>
<path fill-rule="evenodd" clip-rule="evenodd" d="M59.2801 4.57701C54.1123 2.37963 48.7032 1.28084 43.0528 1.28084C37.403 1.28084 31.9938 2.37963 26.8252 4.57701C21.8273 6.69461 17.4014 9.68561 13.5482 13.549C9.68399 17.4021 6.69384 21.828 4.57621 26.8258C2.37868 31.9944 1.27991 37.4035 1.27991 43.053C1.27991 48.7034 2.37868 54.1126 4.57621 59.2803C6.69384 64.2781 9.67925 68.7095 13.5332 72.5729C17.3967 76.426 21.8273 79.4122 26.8252 81.529C31.9938 83.7273 37.403 84.826 43.0528 84.826C48.7032 84.826 54.1123 83.7273 59.2801 81.529C64.278 79.4122 68.7095 76.426 72.5722 72.5729C76.4261 68.7095 79.4125 64.2781 81.5293 59.2803C83.7275 54.1126 84.8263 48.7034 84.8263 43.053C84.8263 37.4035 83.7275 31.9944 81.5293 26.8258C79.4125 21.828 76.4261 17.4021 72.5722 13.549C68.7095 9.68561 64.278 6.69461 59.2801 4.57701ZM82.719 26.3139C84.9766 31.6525 86.1054 37.2326 86.1054 43.053C86.1054 48.8742 84.9766 54.4487 82.719 59.777C80.5309 64.9251 77.4498 69.4918 73.4755 73.4762C69.4918 77.4496 64.925 80.5307 59.7771 82.7187C54.4485 84.9763 48.8741 86.1059 43.0528 86.1059C37.2321 86.1059 31.6522 84.9763 26.3135 82.7187C21.1653 80.5307 16.6041 77.4496 12.6299 73.4762C8.65563 69.5021 5.5745 64.9409 3.38727 59.792C1.12882 54.4534 0 48.8742 0 43.053C0 37.2326 1.12882 31.6582 3.38727 26.3289C5.5745 21.181 8.65563 16.6151 12.6299 12.6306C16.6136 8.65647 21.1803 5.57536 26.3285 3.38811C31.6577 1.12977 37.2321 0.00100708 43.0528 0.00100708C48.8741 0.00100708 54.4534 1.12977 59.7921 3.38811C64.941 5.57536 69.5013 8.65647 73.4755 12.6306C77.4498 16.6048 80.5309 21.1658 82.719 26.3139Z" fill="#488A77"/>
<path fill-rule="evenodd" clip-rule="evenodd" d="M64.8196 20.9106C67.6801 23.7702 69.8927 27.0465 71.458 30.74C73.0844 34.5631 73.8968 38.568 73.8968 42.7526C73.8968 46.9371 73.0844 50.9461 71.458 54.7801C69.8927 58.4728 67.6801 61.7494 64.8196 64.6097C61.9695 67.4598 58.693 69.6675 54.9901 71.233C51.1661 72.8586 47.162 73.6718 42.9773 73.6718C38.7927 73.6718 34.7883 72.8586 30.9644 71.233C27.2615 69.6675 23.9849 67.4598 21.1348 64.6097C18.2744 61.7494 16.0619 58.4728 14.4964 54.7801C12.87 50.9461 12.0576 46.9371 12.0576 42.7526C12.0576 38.568 12.87 34.5631 14.4964 30.74C16.0619 27.0465 18.2744 23.7702 21.1348 20.9106C23.9849 18.0603 27.2615 15.8518 30.9644 14.2864C34.7883 12.6607 38.7927 11.8485 42.9773 11.8485C47.162 11.8485 51.1661 12.6607 54.9901 14.2864C58.6826 15.8518 61.96 18.0603 64.8196 20.9106Z" fill="#488A77"/>
<path fill-rule="evenodd" clip-rule="evenodd" d="M65.7388 19.9921C68.7195 22.9719 71.0277 26.3892 72.6636 30.2433C74.3596 34.2371 75.2077 38.4121 75.2077 42.7676C75.2077 47.1326 74.3596 51.3123 72.6636 55.3071C71.0277 59.1602 68.7242 62.5774 65.7538 65.5581C62.7733 68.5285 59.356 70.8312 55.5026 72.4678C51.5088 74.1638 47.3288 75.0118 42.9629 75.0118C38.6076 75.0118 34.4323 74.1638 30.4384 72.4678C26.5851 70.8312 23.1678 68.5237 20.1872 65.5431C17.2065 62.5624 14.9038 59.1452 13.2774 55.2921C11.5814 51.3076 10.7334 47.1326 10.7334 42.7676C10.7334 38.402 11.5814 34.2267 13.2774 30.2433C14.9133 26.3797 17.2168 22.9624 20.1872 19.9921C23.1678 17.0116 26.5851 14.7032 30.4384 13.0674C34.4323 11.3714 38.6076 10.5235 42.9629 10.5235C47.3185 10.5235 51.4936 11.3714 55.4876 13.0674C59.3408 14.7032 62.7581 17.0116 65.7388 19.9921ZM55.3823 13.3537C51.4176 11.6776 47.2782 10.8398 42.9629 10.8398C38.6479 10.8398 34.5131 11.6776 30.5585 13.3537C26.7356 14.9794 23.3537 17.2669 20.4127 20.2176C17.4628 23.1578 15.1743 26.5402 13.5487 30.3633C11.8725 34.3179 11.0348 38.4526 11.0348 42.7676C11.0348 47.0828 11.8725 51.2222 13.5487 55.186C15.164 58.9996 17.4478 62.3822 20.3977 65.3327C23.3586 68.2825 26.7457 70.5654 30.5585 72.1815C34.5131 73.8577 38.6479 74.6954 42.9629 74.6954C47.2782 74.6954 51.413 73.8577 55.3674 72.1815C59.1905 70.5654 62.5779 68.2825 65.5284 65.3327C68.4789 62.3822 70.762 58.9949 72.3772 55.171C74.0536 51.2175 74.8911 47.0828 74.8911 42.7676C74.8911 38.4526 74.0536 34.3179 72.3772 30.3633C70.762 26.5402 68.4789 23.1532 65.5284 20.2025C62.5779 17.252 59.1962 14.9691 55.3823 13.3537Z" fill="#30AD54"/>
<path fill-rule="evenodd" clip-rule="evenodd" d="M62.7877 18.1254C61.9752 17.4632 61.0569 16.8004 60.0332 16.1382C57.5241 14.5222 54.8447 13.2881 51.9946 12.4354C49.0637 11.5622 46.0531 11.1254 42.9624 11.1254C38.6868 11.1254 34.5877 11.9585 30.6641 13.6243C26.8804 15.2302 23.5289 17.4933 20.6083 20.4131C17.6877 23.3334 15.4245 26.685 13.8187 30.4695C12.1528 34.3827 11.3198 38.4826 11.3198 42.7676C11.3198 47.0425 12.148 51.1424 13.8037 55.0659C14.0647 55.6678 14.3455 56.2753 14.6469 56.8877C16.1926 59.968 18.1797 62.7127 20.6083 65.1215C21.3605 65.884 22.2039 66.6466 23.1373 67.41C24.0502 68.1322 24.9732 68.7943 25.9068 69.3962C28.4057 71.0123 31.0802 72.2463 33.9303 73.0999C36.861 73.9732 39.8719 74.409 42.9624 74.409C47.2476 74.409 51.3476 73.5761 55.2609 71.9101C59.0443 70.3051 62.396 68.042 65.3166 65.1215C68.2372 62.201 70.5004 58.8493 72.1061 55.0659C73.7721 51.1519 74.605 47.0526 74.605 42.7676C74.605 38.4921 73.7768 34.393 72.1213 30.4695C71.8704 29.8666 71.5889 29.2591 71.278 28.6477C69.7323 25.5666 67.7451 22.8217 65.3166 20.4131C64.5643 19.6504 63.7211 18.8878 62.7877 18.1254ZM57.4743 13.6694C60.6051 15.2451 63.4301 17.2821 65.9486 19.7808C66.7722 20.614 67.5497 21.4825 68.2823 22.3851C68.995 23.2686 69.6768 24.2171 70.3295 25.2305C71.9955 27.81 73.265 30.5588 74.1385 33.4801C75.0419 36.5003 75.4926 39.5964 75.4926 42.7676C75.4926 47.1626 74.6399 51.3781 72.9335 55.4124C71.278 59.2954 68.9498 62.7429 65.9486 65.7535C62.9388 68.7539 59.4913 71.0827 55.6074 72.7384C51.573 74.4446 47.3582 75.2974 42.9624 75.2974C38.5769 75.2974 34.3623 74.4391 30.3176 72.7233C29.6151 72.422 28.9926 72.1364 28.4507 71.8651C25.3094 70.2901 22.4902 68.2524 19.9913 65.7535V65.7385C19.2081 64.9656 18.4258 64.1027 17.6426 63.1495C16.9299 62.2666 16.248 61.3183 15.5954 60.3041C13.9397 57.7252 12.6749 54.9756 11.8015 52.0551C10.899 49.0341 10.4473 45.9388 10.4473 42.7676C10.4473 38.3718 11.3 34.1573 13.0063 30.123C14.6517 26.2389 16.9805 22.7917 19.9913 19.7808C22.9917 16.7805 26.4392 14.4525 30.3326 12.796C34.3566 11.0905 38.5665 10.2372 42.9624 10.2372C47.3481 10.2372 51.5627 11.0954 55.6074 12.811C56.3099 13.1126 56.9324 13.3989 57.4743 13.6694Z" fill="#488A77"/>
<path d="M39.6348 67.8608L37.9189 68.4786L37.904 68.4936L36.715 68.8694H36.6998L36.6691 68.8844L36.098 68.9754L36.067 68.9904H35.435L35.39 68.9754L34.8631 68.8393L34.8181 68.8243L34.6527 68.7341L32.5596 82.5076L32.9512 82.6136H34.3813C35.4652 82.6231 36.4888 82.4878 37.4522 82.207C38.3049 81.9563 39.229 81.5497 40.2225 80.9873L40.2524 80.9722H40.2676L41.5015 80.9121L42.0584 81.0482L42.4501 81.2886L42.48 81.3037L42.8717 81.6952L42.8867 81.7253L42.9016 81.7403L43.0521 81.9658L43.1722 81.7704L43.1882 81.7553L43.5187 81.3187L43.5788 81.2886L44.0154 81.0181H44.0606L44.5424 80.9121H45.1744L45.7773 80.9722H45.8072L45.8222 80.9873C47.1464 81.7403 48.1756 82.2418 48.9082 82.4926C50.1328 82.9142 51.2869 83.0099 52.3705 82.7789L53.4543 82.5076L51.377 68.7341L51.196 68.8393H51.1508L50.6089 68.9754L50.5637 68.9904H49.9469L49.9167 68.9754L49.3448 68.8844L49.3147 68.8694L48.712 68.689H48.697L48.1249 68.4936L48.11 68.4786L46.3943 67.8608L45.3706 67.6805L44.9038 67.7105C44.4419 67.7002 44.0709 67.7912 43.7901 67.9818C43.499 68.1725 43.2577 68.4984 43.0671 68.9596C42.7965 68.5387 42.5053 68.2278 42.1937 68.0269C41.7927 67.7762 41.2856 67.6607 40.6741 67.6805L39.6348 67.8608Z" stroke="white" stroke-width="0.792908" stroke-miterlimit="22.92"/>
<path fill-rule="evenodd" clip-rule="evenodd" d="M39.6348 67.8608L40.6741 67.6805C41.2856 67.6607 41.7927 67.7762 42.1937 68.0269C42.5053 68.2278 42.7965 68.5387 43.0671 68.9596C43.2577 68.4984 43.499 68.1725 43.7901 67.9818C44.0709 67.7912 44.4419 67.7002 44.9038 67.7105L45.3706 67.6805L46.3943 67.8608L48.11 68.4786L48.1249 68.4936L48.697 68.689H48.712L49.3147 68.8694L49.3448 68.8844L49.9167 68.9754L49.9469 68.9904H50.5637L50.6089 68.9754L51.1508 68.8393H51.196L51.377 68.7341L53.4543 82.5076L52.3705 82.7789C51.2869 83.0099 50.1328 82.9142 48.9082 82.4926C48.1756 82.2418 47.1464 81.7403 45.8222 80.9873L45.8072 80.9722H45.7773L45.1744 80.9121H44.5424L44.0606 81.0181H44.0154L43.5788 81.2886L43.5187 81.3187L43.1882 81.7553L43.1722 81.7704L43.0521 81.9658L42.9016 81.7403L42.8867 81.7253L42.8717 81.6952L42.48 81.3037L42.4501 81.2886L42.0584 81.0482L41.5015 80.9121L40.2676 80.9722H40.2524L40.2225 80.9873C39.229 81.5497 38.3049 81.9563 37.4522 82.207C36.4888 82.4878 35.4652 82.6231 34.3813 82.6136H32.9512L32.5596 82.5076L34.6527 68.7341L34.8181 68.8243L34.8631 68.8393L35.39 68.9754L35.435 68.9904H36.067L36.098 68.9754L36.6691 68.8844L36.6998 68.8694H36.715L37.904 68.4936L37.9189 68.4786L39.6348 67.8608Z" fill="white"/>
<path fill-rule="evenodd" clip-rule="evenodd" d="M39.6808 68.2524L39.1699 68.4327H39.1391L38.0101 68.8393H37.9951L37.9801 68.8544L37.3931 69.0355H37.3631L36.8062 69.2159H36.7912L36.7762 69.2309H36.7161L36.1434 69.3361H35.3459L35.3008 69.3211L34.8791 69.2159L32.9071 81.7854C33.3889 81.9658 34.1214 82.0061 35.1055 81.9056C35.9077 81.8155 36.6559 81.6596 37.3481 81.4389C38.1612 81.208 39.0591 80.8267 40.0423 80.2951L40.0725 80.2801L40.1176 80.2651H40.1326L40.1626 80.25H40.1936L40.7804 80.1899H40.7954L40.8256 80.1749H41.4576L41.4876 80.1899H41.5327L41.9843 80.2951L42.0295 80.3101H42.0896L42.1196 80.3402L42.1648 80.3552L42.5864 80.5965L42.6315 80.6265L42.6623 80.6416L42.6765 80.6716L42.993 80.9722L43.1893 80.7317L43.2342 80.6867L43.2644 80.6416L43.3093 80.6115L43.7611 80.3552L43.8061 80.3402L43.8363 80.3101L43.8964 80.2951H43.9414L44.4231 80.1899H44.4533L44.4983 80.1749H45.1003L45.1153 80.1899H45.1455L45.7481 80.25H45.7933L45.8083 80.2651H45.8385L45.8834 80.2801L45.9136 80.2951C47.1382 80.9572 48.1412 81.4089 48.9243 81.6501C50.5601 82.1113 51.8898 82.1667 52.9135 81.8155L53.0188 81.7854L51.0316 69.2159L50.58 69.3211L50.5498 69.3361H49.7817L49.2106 69.2309H49.1497L49.1347 69.2159L48.5326 69.0505L48.5176 69.0355L47.9458 68.8544L47.9308 68.8393H47.9156L46.7718 68.4327H46.7568L46.2291 68.2524L45.3115 68.0871L44.8448 68.1171C44.4231 68.1171 44.1123 68.1875 43.9114 68.3275C43.6504 68.4786 43.4495 68.7492 43.3093 69.1407L43.0831 69.6675L42.7676 69.1858C42.5262 68.8148 42.2652 68.5482 41.9843 68.3877C41.6435 68.1772 41.1966 68.0768 40.6443 68.0871L39.6808 68.2524ZM40.1024 67.6203L40.5992 67.5602H40.6302V67.5452C41.3017 67.5349 41.8642 67.6654 42.3158 67.936C42.5469 68.0673 42.762 68.2524 42.9628 68.4936C43.1338 68.2223 43.3338 68.0167 43.5649 67.8759C43.8964 67.6757 44.318 67.5753 44.8298 67.5753L45.2816 67.5452H45.3115L45.3415 67.5602L45.8083 67.6053L45.8233 67.6203H45.8385L46.3954 67.7406H46.4253L47.2678 68.0269V68.0119L48.1412 68.3426H48.1562L49.3157 68.7041L49.8878 68.7942H50.4447L50.9864 68.674L51.5133 68.3726L53.6808 82.177L53.0036 82.3573L52.3114 82.3874C51.1565 82.6184 49.9629 82.5432 48.728 82.1619C47.8556 81.9009 46.8263 81.4389 45.6422 80.7768L44.5434 80.7167L44.0766 80.8219L43.686 81.0323L43.3845 81.4089V81.4239L43.008 81.9658L42.9628 81.8906L42.6014 81.3939L42.2407 81.0323L41.8491 80.8219L41.3975 80.7167L40.2987 80.7768C39.325 81.3084 38.4018 81.7 37.5283 81.9507C36.565 82.2221 35.5168 82.3573 34.3824 82.3573H32.9071L32.8771 82.3423L32.2451 82.177L34.4126 68.3726L34.9393 68.674L35.4662 68.7942H36.0389L36.61 68.7041L37.1677 68.5387H37.1827L37.7697 68.3426H37.7847L38.3266 68.1322L38.3566 68.1171L39.5006 67.7406H39.5305L40.0725 67.6203H40.1024Z" fill="#488A77"/>
<path fill-rule="evenodd" clip-rule="evenodd" d="M32.1992 82.1469C32.7909 82.2569 33.4783 82.2569 34.2616 82.1469C34.6427 82.0963 35.35 81.9611 36.3838 81.7403C37.4176 81.6098 38.4968 81.3084 39.6199 80.837L40.2078 80.6416L40.2378 80.6266L41.4868 80.5815L41.9386 80.6566L42.0437 80.6867L42.4955 80.8821L42.5255 80.9121L42.842 81.1534L42.872 81.1835L43.0223 81.3638L43.1276 81.2436L43.1575 81.1985L43.474 80.8971L43.519 80.867L43.5642 80.852L43.9558 80.6867L44.0008 80.6566H44.0459L44.5427 80.5815L45.7926 80.6266L45.8075 80.6416C46.0378 80.7421 46.4847 80.9177 47.1467 81.1684C48.6024 81.7301 49.8917 82.0109 51.0158 82.0109C51.7483 82.071 52.1898 82.1066 52.3409 82.1169C52.8321 82.1366 53.2791 82.1169 53.68 82.0568L52.1898 83.7575L34.0052 83.7274L32.1992 82.1469Z" fill="#488A77"/>
<path fill-rule="evenodd" clip-rule="evenodd" d="M40.5238 70.3897L41.1408 71.0526L41.0657 71.3081C42.4911 73.0547 44.5132 75.4326 47.1322 78.4432C47.4234 78.8253 47.4534 79.1813 47.2225 79.5119C47.213 79.5119 47.1227 79.5222 46.952 79.5428C46.8317 79.5523 46.7359 79.5475 46.6656 79.5269L46.1087 79.1662C43.9713 76.4467 42.1193 73.9976 40.5539 71.8199C40.5444 71.8405 40.5145 71.8555 40.4638 71.865C40.4138 71.8753 40.3838 71.895 40.3735 71.9251C40.0825 72.5279 39.8063 73.3608 39.5452 74.424C38.1911 73.8426 37.3778 72.8838 37.1064 71.5494C38.2409 71.4987 39.1141 71.2527 39.7265 70.8113L39.4252 70.3897L39.6356 70.1192L39.997 70.044L40.3286 70.4206L40.5238 70.3897Z" fill="#488A77"/>
<path fill-rule="evenodd" clip-rule="evenodd" d="M38.5664 77.9615C38.4564 77.9615 38.3457 78.0272 38.2359 78.1577C38.1251 78.2882 38.0696 78.4282 38.0696 78.5785C38.0696 78.7399 38.1401 78.8855 38.2809 79.0152C38.4115 79.1362 38.5721 79.2011 38.7626 79.2114C38.9431 79.2114 39.0838 79.1513 39.1834 79.0302C39.2744 78.9203 39.3092 78.7795 39.2895 78.6094C39.2895 78.539 39.2444 78.524 39.1535 78.5643C39.0933 78.5738 38.988 78.539 38.8378 78.4583C38.7572 78.308 38.727 78.1775 38.7476 78.0675C38.7776 77.9971 38.7175 77.9615 38.5664 77.9615ZM48.2766 70.1493C48.226 70.4404 48.241 70.7418 48.3216 71.0526C48.7829 72.0058 48.8429 72.959 48.502 73.9122C48.4925 74.0127 48.6578 74.0783 48.9988 74.1084C48.4166 74.8409 47.6746 75.1573 46.7712 75.0569C47.4634 74.5451 47.7094 73.9976 47.5085 73.4162C47.7094 73.4764 47.8953 73.576 48.0654 73.7168C48.1452 73.4859 48.1001 73.1346 47.9302 72.6632C47.6191 72.4623 47.2878 72.3768 46.9364 72.4069C46.3844 72.698 45.4865 73.3656 44.2423 74.409C43.5295 75.0015 42.4205 75.9397 40.9151 77.2243L41.0803 77.4047C41.2409 77.3651 41.3517 77.3849 41.4118 77.4648C41.4616 77.5455 41.4521 77.6554 41.3819 77.7962L41.5471 78.0074L41.6524 77.9766L41.7583 78.1277L41.6682 78.2329L41.9236 78.6545L41.472 79.0302L41.1563 78.7747L40.9001 78.8649L40.7798 78.7296L40.8399 78.6094L40.5386 78.3681L40.4033 78.3832L40.2831 78.278L40.3732 78.1126L40.117 77.9014L39.7262 78.2178C39.746 78.2977 39.761 78.4188 39.7713 78.5785C39.8313 78.8301 39.746 79.0808 39.5149 79.3316C39.2839 79.5926 39.0087 79.7176 38.6867 79.7081C38.3655 79.6979 38.1053 79.5879 37.9044 79.3767C37.7136 79.1663 37.6189 78.9005 37.6189 78.5785C37.6085 78.2677 37.7136 78.0019 37.9344 77.7812C38.1353 77.5708 38.3862 77.4648 38.6867 77.4648C38.8876 77.4648 39.0783 77.5154 39.2594 77.6158L39.6051 77.3145L39.4398 77.0289L39.2744 77.074L39.1385 76.8928L39.2144 76.7125L39.0182 76.4412L38.8829 76.487L38.7928 76.366L38.8679 76.1255L38.6867 75.8242L39.0783 75.4627L39.4096 75.764L39.5601 75.6739L39.6652 75.8242L39.651 75.9594L39.8764 76.1406C40.0163 76.12 40.0923 76.1105 40.1018 76.1105C40.1723 76.1105 40.2229 76.1603 40.2529 76.2608L40.2379 76.4111L40.3882 76.5614C41.8438 75.348 42.9069 74.4446 43.5793 73.8521C44.7739 72.8087 45.5466 72.0058 45.8978 71.4434C46.0482 71.1025 46.0229 70.7513 45.8227 70.3897C45.5213 70.029 45.1353 69.9033 44.6639 70.0132C44.9345 70.1944 45.0752 70.4554 45.0847 70.7963C44.3419 70.4752 43.7249 70.5756 43.2336 71.0977C43.2937 70.2347 43.7747 69.5267 44.6789 68.9754V69.4872C45.8725 69.3661 46.7459 69.522 47.2981 69.9539C47.6691 70.0741 47.995 70.139 48.2766 70.1493Z" fill="#488A77"/>
<path d="M47.8558 52.5368L42.963 61.4636H40.6445L44.2121 55.0357C44.3032 54.8751 44.3229 54.7398 44.2723 54.629C44.2121 54.5191 44.0975 54.4638 43.9266 54.4638H43.3397L44.4083 52.5669L47.8558 52.5368Z" stroke="white" stroke-width="0.505479" stroke-miterlimit="22.92"/>
<path fill-rule="evenodd" clip-rule="evenodd" d="M47.8558 52.5368L42.963 61.4636H40.6445L44.2121 55.0357C44.3032 54.8751 44.3229 54.7398 44.2723 54.629C44.2121 54.5191 44.0975 54.4638 43.9266 54.4638H43.3397L44.4083 52.5669L47.8558 52.5368Z" fill="#322F30"/>
<path d="M50.278 57.6399C50.3485 57.6296 50.3936 57.5545 50.4141 57.4143C50.4339 57.2736 50.3841 57.1985 50.263 57.1881L49.0891 57.1732C48.969 57.1732 48.8084 57.374 48.6073 57.7752L47.8702 59.1753C47.81 59.2859 47.7697 59.4015 47.7491 59.5218C47.7292 59.6626 47.7545 59.7677 47.825 59.8373L48.7126 59.8833C48.8835 59.8928 49.0139 59.8428 49.1041 59.7322C49.1745 59.6119 49.2197 59.5368 49.2393 59.5066L50.278 57.6399ZM49.8414 55.788C49.8722 55.8686 49.9222 55.9138 49.9925 55.9241L50.7298 55.9391C50.7907 55.9391 50.8659 55.8988 50.956 55.8188C51.0265 55.7485 51.0763 55.6884 51.1063 55.6378L51.7693 54.4339C51.7889 54.3832 51.7984 54.3286 51.7984 54.2676C51.7889 54.1878 51.7486 54.1427 51.6781 54.1323L50.9108 54.1473C50.8199 54.1473 50.7448 54.1672 50.6846 54.2075C50.6547 54.2281 50.6095 54.2581 50.5494 54.2986L49.8414 55.5776C49.8122 55.6378 49.8122 55.7082 49.8414 55.788ZM54.087 54.1024L53.0031 55.9842C52.8831 56.1851 52.667 56.3504 52.3553 56.481L51.9947 56.6313C52.2557 56.772 52.406 56.9421 52.4463 57.143C52.4764 57.3234 52.4163 57.5545 52.266 57.836L51.1212 59.9884C50.8507 60.5003 50.5494 60.8515 50.2179 61.042C49.8969 61.2224 49.4404 61.3126 48.8487 61.3126H46.2444C45.7526 61.3126 45.4417 61.1473 45.3111 60.8158C45.1805 60.5153 45.2256 60.1585 45.4464 59.7472L46.5901 57.5948C46.8212 57.1936 47.0371 56.9271 47.2382 56.7967C47.4889 56.6163 47.7997 56.5262 48.1707 56.5262C47.9405 56.466 47.8147 56.3149 47.7951 56.0744C47.7744 55.8838 47.8196 55.6829 47.9303 55.4723L49.1192 53.2749C49.3708 52.813 49.5858 52.5417 49.7671 52.4617C49.8667 52.4214 50.2235 52.3961 50.8357 52.3865H53.2136C53.5752 52.3865 53.8812 52.4918 54.1321 52.7023C54.4033 52.923 54.5039 53.184 54.4335 53.4853C54.4128 53.5558 54.363 53.6609 54.2824 53.8017C54.2427 53.8713 54.1771 53.9718 54.087 54.1024Z" stroke="white" stroke-width="0.515391" stroke-miterlimit="22.92"/>
<path fill-rule="evenodd" clip-rule="evenodd" d="M49.0741 57.1732C48.9633 57.1835 48.8084 57.3844 48.6073 57.7752L47.8702 59.1753C47.81 59.2859 47.7697 59.4015 47.7491 59.5218C47.7292 59.6626 47.7545 59.7677 47.825 59.8373L48.7126 59.8833C48.874 59.8833 48.9943 59.8428 49.0741 59.7622C49.1642 59.6223 49.2197 59.5368 49.2393 59.5066L50.278 57.6399C50.3485 57.6296 50.3936 57.5545 50.4141 57.4143C50.4339 57.2736 50.3841 57.1985 50.263 57.1881L49.0741 57.1732ZM49.8414 55.788C49.8722 55.8686 49.9222 55.9138 49.9925 55.9241L50.7298 55.9391L50.8057 55.9241C50.8958 55.8735 50.9963 55.7785 51.1063 55.6378L51.7693 54.4339C51.7889 54.3832 51.7984 54.3286 51.7984 54.2676C51.7889 54.1878 51.7486 54.1427 51.6781 54.1323L50.9108 54.1473L50.8057 54.1625C50.7551 54.1726 50.7099 54.1925 50.6696 54.2227C50.6 54.2733 50.5597 54.2986 50.5494 54.2986L49.8414 55.5776C49.8122 55.6378 49.8122 55.7082 49.8414 55.788ZM54.087 54.1024L53.0031 55.9842C52.8831 56.1851 52.667 56.3504 52.3553 56.481L51.9947 56.6313C52.2557 56.772 52.406 56.9421 52.4463 57.143C52.4764 57.3234 52.4163 57.5545 52.266 57.836L51.1212 59.9884C51.0208 60.1887 50.9157 60.3547 50.8057 60.4851C50.5945 60.7763 50.3539 60.9819 50.0828 61.1022C49.8215 61.2328 49.4854 61.303 49.0741 61.3126H46.2444C45.7526 61.3126 45.4417 61.1473 45.3111 60.8158C45.1805 60.5153 45.2256 60.1585 45.4464 59.7472L46.5901 57.5948C46.8212 57.1936 47.0371 56.9271 47.2382 56.7967C47.4889 56.6163 47.7997 56.5262 48.1707 56.5262C47.9405 56.466 47.8147 56.3149 47.7951 56.0744C47.7744 55.8838 47.8196 55.6829 47.9303 55.4723L49.1192 53.2749C49.3803 52.813 49.5962 52.5417 49.7671 52.4617C49.877 52.4111 50.2235 52.3865 50.8057 52.3865H53.2136C53.5752 52.3865 53.8812 52.4918 54.1321 52.7023C54.4033 52.923 54.5039 53.184 54.4335 53.4853C54.4128 53.5558 54.363 53.6609 54.2824 53.8017C54.2427 53.8713 54.1771 53.9718 54.087 54.1024Z" fill="#322F30"/>
<path d="M60.8765 52.3865C61.2578 52.3865 61.5433 52.4766 61.7341 52.6571C61.9247 52.8383 62.0055 53.0841 61.9753 53.3952C61.9548 53.5153 61.9301 53.6007 61.9002 53.6505C61.8898 53.7012 61.8392 53.8111 61.7491 53.982L58.4678 60.1688C58.1965 60.6609 57.9006 61.0017 57.5794 61.1924C57.2479 61.3735 56.7615 61.4636 56.1192 61.4636H53.455C53.0736 61.4636 52.7976 61.3783 52.6267 61.2074C52.4361 61.0468 52.3553 60.8111 52.3863 60.5003C52.3863 60.4598 52.406 60.3697 52.4463 60.2289L52.5666 59.9434L55.7585 53.7708C56.0187 53.2694 56.3099 52.9181 56.6309 52.718C56.9727 52.5171 57.4687 52.4167 58.1214 52.4167L60.8765 52.3865ZM58.4077 54.4338C58.2068 54.4338 58.0359 54.4836 57.896 54.5841C57.7354 54.6845 57.6094 54.8301 57.5193 55.0207L55.4871 58.9197L55.412 59.1151C55.3913 59.2456 55.4318 59.3405 55.5323 59.4015C55.6121 59.4711 55.7427 59.5066 55.9237 59.5066C56.0938 59.5066 56.2449 59.4616 56.3755 59.3713C56.4956 59.2804 56.6113 59.1348 56.7212 58.9347L58.8293 54.9004L58.8435 54.8253C58.8538 54.7042 58.8239 54.6094 58.7534 54.5389C58.6734 54.4685 58.558 54.4338 58.4077 54.4338Z" stroke="white" stroke-width="0.505479" stroke-miterlimit="22.92"/>
<path fill-rule="evenodd" clip-rule="evenodd" d="M60.8765 52.3865C61.2578 52.3865 61.5433 52.4766 61.7341 52.6571C61.9247 52.8383 62.0055 53.0841 61.9753 53.3952C61.9548 53.5153 61.9301 53.6007 61.9002 53.6505C61.8898 53.7012 61.8392 53.8111 61.7491 53.982L58.4678 60.1688C58.1965 60.6609 57.9006 61.0017 57.5794 61.1924C57.4387 61.2627 57.2884 61.3182 57.1279 61.3585C56.8769 61.4282 56.5408 61.4636 56.1192 61.4636H53.455C53.0736 61.4636 52.7976 61.3783 52.6267 61.2074C52.4361 61.0468 52.3553 60.8111 52.3863 60.5003C52.3863 60.4598 52.406 60.3697 52.4463 60.2289L52.5666 59.9434L55.7585 53.7708C56.0187 53.2694 56.3099 52.9181 56.6309 52.718C56.8018 52.6271 56.9673 52.5621 57.1279 52.5218C57.3786 52.4513 57.7101 52.4167 58.1214 52.4167L60.8765 52.3865ZM58.4077 54.4338C58.2068 54.4338 58.0359 54.4836 57.896 54.5841C57.7354 54.6845 57.6094 54.8301 57.5193 55.0207L55.4871 58.9197L55.412 59.1151C55.3913 59.2456 55.4318 59.3405 55.5323 59.4015C55.6121 59.4711 55.7427 59.5066 55.9237 59.5066C56.0938 59.5066 56.2449 59.4616 56.3755 59.3713C56.4956 59.2804 56.6113 59.1348 56.7212 58.9347L58.8293 54.9004L58.8435 54.8253C58.8538 54.7042 58.8239 54.6094 58.7534 54.5389C58.6734 54.4685 58.558 54.4338 58.4077 54.4338Z" fill="#322F30"/>
<path d="M64.7449 55.0207L64.1428 56.0743L64.0979 56.2096C64.078 56.3402 64.1175 56.4358 64.218 56.4959C64.2988 56.5664 64.4435 56.6012 64.6548 56.6012H65.2868L66.2653 54.9154L66.2803 54.7953C66.3103 54.6742 66.2803 54.5691 66.1902 54.4788C66.0802 54.3982 65.9441 54.3585 65.7835 54.3585C65.5628 54.3585 65.3674 54.414 65.1965 54.5239C65.0359 54.6442 64.8856 54.8095 64.7449 55.0207ZM65.5881 52.5969L68.2373 52.5368C68.6091 52.5266 68.8843 52.6119 69.0656 52.7923C69.2562 52.9632 69.3212 53.2044 69.261 53.5153C69.261 53.5857 69.2357 53.6704 69.1859 53.7708C69.1756 53.7915 69.1257 53.8966 69.0354 54.0873L65.5731 60.1838C65.2923 60.6758 64.9956 61.012 64.6847 61.1924C64.3532 61.3735 63.8715 61.4636 63.2394 61.4636H59.2051L60.2739 59.5517L63.044 59.5368C63.2648 59.5368 63.4403 59.4965 63.5709 59.4165C63.6912 59.3359 63.817 59.1903 63.9474 58.9799L64.218 58.4981L62.3211 58.5131C61.9604 58.5131 61.6937 58.4325 61.5238 58.2719C61.3529 58.1018 61.2881 57.8661 61.3284 57.5646C61.348 57.4445 61.3733 57.359 61.4035 57.3092C61.4233 57.2284 61.4683 57.128 61.5388 57.0077L63.2394 53.9369C63.5108 53.4553 63.8067 53.1135 64.1278 52.9134C64.4593 52.7227 64.9458 52.6176 65.5881 52.5969Z" stroke="white" stroke-width="0.515391" stroke-miterlimit="22.92"/>
<path fill-rule="evenodd" clip-rule="evenodd" d="M65.1965 52.6119L68.2373 52.5368C68.6091 52.5266 68.8843 52.6119 69.0656 52.7923C69.2562 52.9632 69.3212 53.2044 69.261 53.5153C69.261 53.5857 69.2357 53.6704 69.1859 53.7708C69.1756 53.7915 69.1257 53.8966 69.0354 54.0873L65.5731 60.1838C65.4528 60.4148 65.3271 60.6007 65.1965 60.7406C65.0258 60.9415 64.8557 61.0918 64.6847 61.1924C64.3532 61.3735 63.8715 61.4636 63.2394 61.4636H59.2051L60.2739 59.5517L63.044 59.5368C63.2648 59.5368 63.4403 59.4965 63.5709 59.4165C63.6912 59.3359 63.817 59.1903 63.9474 58.9799L64.218 58.4981L62.3211 58.5131C61.9604 58.5131 61.6937 58.4325 61.5238 58.2719C61.3529 58.1018 61.2881 57.8661 61.3284 57.5646C61.348 57.4445 61.3733 57.359 61.4035 57.3092C61.4233 57.2284 61.4683 57.128 61.5388 57.0077L63.2394 53.9369C63.5108 53.4553 63.8067 53.1135 64.1278 52.9134C64.3889 52.7528 64.7449 52.6524 65.1965 52.6119ZM64.7449 55.0207L64.1428 56.0743L64.0979 56.2096C64.078 56.3402 64.1175 56.4358 64.218 56.4959C64.2988 56.5664 64.4435 56.6012 64.6548 56.6012H65.2868L66.2653 54.9154L66.2803 54.7953C66.3103 54.6742 66.2803 54.5691 66.1902 54.4788C66.0802 54.3982 65.9441 54.3585 65.7835 54.3585C65.5628 54.3585 65.3674 54.414 65.1965 54.5239C65.0359 54.6442 64.8856 54.8095 64.7449 55.0207Z" fill="#322F30"/>
<path d="M20.7889 63.0292L68.3728 62.9089L66.5369 64.8502L19.6602 64.8801L20.7889 63.0292Z" stroke="white" stroke-width="1.44705" stroke-miterlimit="22.92"/>
<path fill-rule="evenodd" clip-rule="evenodd" d="M20.7889 63.0292L68.3728 62.9089L66.5369 64.8502L19.6602 64.8801L20.7889 63.0292Z" fill="#322F30"/>
<path d="M68.0868 22.0843L48.517 22.0693L40.4333 35.9632L29.8357 22.1445L24.6426 22.1145L35.737 36.3397C37.031 37.7643 38.0095 39.4856 38.6725 41.5027C39.2839 43.3593 39.5 45.0308 39.3195 46.5155L50.8056 26.1186L62.3817 26.1488C63.8262 26.068 65.0008 25.6717 65.9036 24.9599C66.6162 24.3872 67.344 23.4292 68.0868 22.0843Z" stroke="white" stroke-width="1.44705" stroke-miterlimit="22.92"/>
<path fill-rule="evenodd" clip-rule="evenodd" d="M68.0868 22.0843C67.344 23.4292 66.6162 24.3872 65.9036 24.9599C65.0008 25.6717 63.8262 26.068 62.3817 26.1488L50.8056 26.1186L39.3195 46.5155C39.5 45.0308 39.2839 43.3593 38.6725 41.5027C38.0095 39.4856 37.031 37.7643 35.737 36.3397L24.6426 22.1145L29.8357 22.1445L40.4333 35.9632L48.517 22.0693L68.0868 22.0843Z" fill="#322F30"/>
<path d="M22.5958 22.0843L35.9177 39.0188C36.8513 40.374 37.443 41.9845 37.6945 43.8514C37.9453 45.7276 37.8146 47.5597 37.3029 49.3459C36.761 51.2523 35.8475 52.8479 34.5628 54.1324C33.1484 55.5578 31.3866 56.4761 29.2793 56.8876H24.4477L26.4489 53.1998L28.2557 53.1539C29.6906 53.1136 30.9105 52.6524 31.9136 51.7695C32.8572 50.9461 33.5091 49.868 33.8706 48.5327C34.2217 47.1982 34.2369 45.8234 33.9158 44.4083C33.5747 42.9132 32.8967 41.5882 31.8834 40.4341L17.7783 22.0244L22.5958 22.0843Z" stroke="white" stroke-width="1.44705" stroke-miterlimit="22.92"/>
<path fill-rule="evenodd" clip-rule="evenodd" d="M22.5958 22.0843L35.9177 39.0188C36.8513 40.374 37.443 41.9845 37.6945 43.8514C37.9453 45.7276 37.8146 47.5597 37.3029 49.3459C36.761 51.2523 35.8475 52.8479 34.5628 54.1324C33.1484 55.5578 31.3866 56.4761 29.2793 56.8876H24.4477L26.4489 53.1998L28.2557 53.1539C29.6906 53.1136 30.9105 52.6524 31.9136 51.7695C32.8572 50.9461 33.5091 49.868 33.8706 48.5327C34.2217 47.1982 34.2369 45.8234 33.9158 44.4083C33.5747 42.9132 32.8967 41.5882 31.8834 40.4341L17.7783 22.0244L22.5958 22.0843Z" fill="#322F30"/>
<path d="M33.2976 56.8275C34.7024 55.8939 35.8519 54.8403 36.7449 53.6658L45.3556 38.1614L49.9768 38.2365L40.2074 55.3672C39.414 56.7515 38.1799 58.0915 36.5037 59.3865C34.3061 61.0825 32.1332 61.9353 29.9854 61.9454L21.4199 61.9606L23.5582 58.3327L29.2932 58.3479C30.4174 58.3574 31.7519 57.8511 33.2976 56.8275Z" stroke="white" stroke-width="1.47679" stroke-miterlimit="22.92"/>
<path fill-rule="evenodd" clip-rule="evenodd" d="M33.2976 56.8275C34.7024 55.8939 35.8519 54.8403 36.7449 53.6658L45.3556 38.1614L49.9768 38.2365L40.2074 55.3672C39.414 56.7515 38.1799 58.0915 36.5037 59.3865C34.3061 61.0825 32.1332 61.9353 29.9854 61.9454L21.4199 61.9606L23.5582 58.3327L29.2932 58.3479C30.4174 58.3574 31.7519 57.8511 33.2976 56.8275Z" fill="#322F30"/>
<path d="M64.0073 29.1594C63.6259 29.8413 62.9781 30.3935 62.0652 30.8151C61.3423 31.1559 60.6201 31.3625 59.8978 31.4322H49.0439L51.1964 27.6091L64.9858 27.4588L64.0073 29.1594Z" stroke="white" stroke-width="1.49661" stroke-miterlimit="22.92"/>
<path fill-rule="evenodd" clip-rule="evenodd" d="M64.0073 29.1594C63.6259 29.8413 62.9781 30.3935 62.0652 30.8151C61.3423 31.1559 60.6201 31.3625 59.8978 31.4322H49.0439L51.1964 27.6091L64.9858 27.4588L64.0073 29.1594Z" fill="#322F30"/>
<path d="M61.3122 34.2324C60.9513 34.9245 60.2687 35.5321 59.2648 36.0541C58.4121 36.4956 57.6344 36.7406 56.9321 36.7912L46.0781 36.8064L48.2456 32.9675L62.1253 32.6818L61.3122 34.2324Z" stroke="white" stroke-width="1.49661" stroke-miterlimit="22.92"/>
<path fill-rule="evenodd" clip-rule="evenodd" d="M61.3122 34.2324C60.9513 34.9245 60.2687 35.5321 59.2648 36.0541C58.4121 36.4956 57.6344 36.7406 56.9321 36.7912L46.0781 36.8064L48.2456 32.9675L62.1253 32.6818L61.3122 34.2324Z" fill="#322F30"/>
</svg>
