<svg width="24" height="32" viewBox="0 0 24 32" fill="none" xmlns="http://www.w3.org/2000/svg">
<path d="M12.0071 0.0070807C5.37566 0.0070807 0 5.40296 0 12.0593C0 12.3142 0.0211646 12.64 0.056438 13.0223C0.543211 18.0429 2.94885 22.7803 6.16578 26.6466C8.64903 29.6278 11.0617 32 12 32C12.9383 32 15.3298 29.6278 17.806 26.6466C21.0229 22.7732 23.4568 18.0358 23.9436 13.0223C23.9788 12.64 24 12.3071 24 12.0522C24 5.39588 18.6243 0 11.9929 0L12.0071 0.0070807ZM12.0071 20.2169C7.65432 20.2169 4.12698 16.6763 4.12698 12.3071C4.12698 7.93804 7.65432 4.39743 12.0071 4.39743C16.3598 4.39743 19.8871 7.93804 19.8871 12.3071C19.8871 16.6763 16.3598 20.2169 12.0071 20.2169Z" fill="#059B84"/>
</svg>
